SplineFontDB: 1.0
FontName: CenturySchL-Ital
FullName: Century Schoolbook L Italic
FamilyName: Century Schoolbook L
Weight: Regular
Copyright: Copyright (URW)++,Copyright 1999 by (URW)++ Design & Development; Cyrillic glyphs added by Valek Filippov (C) 2001
Version: 1.06
ItalicAngle: -15
UnderlinePosition: -102
UnderlineWidth: 42
Ascent: 800
Descent: 200
NeedsXUIDChange: 1
UniqueID: 4027871
FSType: 12
OS2WinAscent: 0
OS2WinAOffset: 1
OS2WinDescent: 0
OS2WinDOffset: 1
HheadAscent: 0
HheadAOffset: 1
HheadDescent: 0
HheadDOffset: 1
ScriptLang: 3
 1 latn 1 dflt 
 1 DFLT 1 dflt 
 1 hebr 1 dflt 
Encoding: adobestandard
UnicodeInterp: none
DisplaySize: -36
AntiAlias: 1
FitToEm: 1
WinInfo: 338 26 14
BeginPrivate: 7
BlueValues 31 [-20 0 455 475 722 742 689 709]
BlueScale 8 0.039625
StdHW 4 [39]
StdVW 4 [86]
StemSnapH 210 [36 39 44 48 51 55 61 78 124] 
systemdict /internaldict known
{1183615869 systemdict /internaldict get exec
/StemSnapLength 2 copy known { get 9 lt } { pop pop true } ifelse }
{ true } ifelse { pop [39 48] } if
StemSnapV 2 []
ForceBold 5 false
EndPrivate
Grid
422 476 m 29
 284 -54 l 29
EndSplineSet
BeginChars: 767 662
StartChar: exclam
Encoding: 33 33 2
Width: 333
Flags: W
HStem: -15 124<89 94> 717 20G<236.5 274.5>
Fore
140 182 m 1
 104 192 l 1
 153 376 174 494 183 626 c 0
 188 696 216 737 257 737 c 0
 292 737 316 713 316 679 c 0
 316 649 315 647 266 543 c 0
 218 437 185 344 140 182 c 1
92 109 m 0
 126 109 154 81 154 47 c 0
 154 12 126 -15 91 -15 c 0
 58 -15 30 13 30 47 c 0
 30 81 58 109 92 109 c 0
EndSplineSet
EndChar
StartChar: quotedbl
Encoding: 34 34 3
Width: 400
Flags: W
HStem: 712 20G<187 210 339 362>
Fore
100 520 m 1
 156 695 l 2
 164 721 176 732 198 732 c 0
 222 732 243 712 243 689 c 0
 243 680 239 670 230 657 c 2
 120 510 l 1
 100 520 l 1
252 520 m 1
 308 695 l 2
 316 721 328 732 350 732 c 0
 374 732 395 712 395 689 c 0
 395 680 391 669 382 657 c 2
 272 510 l 1
 252 520 l 1
EndSplineSet
EndChar
StartChar: numbersign
Encoding: 35 35 4
Width: 556
Flags: W
HStem: 0 21G<102 167 290 355> 220 56<33 134 207 322 395 497> 424 56<60 163 236 351 424 524> 424 262<201 351 389 524>
DStem: 134 220 199 220 102 0 167 0 163 424 228 424 142 276 207 276 201 686 266 686 171 480 236 480 322 220 387 220 290 0 355 0 351 424 416 424 330 276 395 276 389 686 454 686 359 480 424 480
Fore
134 220 m 1xd0
 33 220 l 1
 33 276 l 1
 142 276 l 1
 163 424 l 1
 60 424 l 1
 60 480 l 1
 171 480 l 1xe0
 201 686 l 1
 266 686 l 1xd0
 236 480 l 1
 359 480 l 1xe0
 389 686 l 1
 454 686 l 1xd0
 424 480 l 1
 524 480 l 1
 524 424 l 1xe0
 416 424 l 1
 395 276 l 1
 497 276 l 1
 497 220 l 1
 387 220 l 1
 355 0 l 1
 290 0 l 1
 322 220 l 1
 199 220 l 1
 167 0 l 1
 102 0 l 1
 134 220 l 1xd0
228 424 m 1xd0
 207 276 l 1
 330 276 l 1
 351 424 l 1xe0
 228 424 l 1xd0
EndSplineSet
EndChar
StartChar: dollar
Encoding: 36 36 5
Width: 556
Flags: W
HStem: -14 21G<204 211> 464 21G<452.5 489.5> 651 42<322 343>
VStem: 3 139<143 175> 103 80<485 522> 385 88<163 199> 411 125<518 541>
DStem: 162 -11 204 -14 128 -135 171 -135 246 304 285 288 172 30 215 26 339 651 381 647 273 404 311 388 377 792 420 792 350 693 392 689
Fore
381 647 m 1xea
 311 388 l 1
 353 371 356 370 377 357 c 0
 442 315 473 264 473 199 c 0
 473 121 426 53 345 14 c 0
 304 -5 269 -13 211 -14 c 2
 204 -14 l 1
 171 -135 l 1
 128 -135 l 1
 162 -11 l 1
 67 5 3 67 3 143 c 0
 3 197 35 234 80 234 c 0
 116 234 142 210 142 175 c 0xf4
 142 147 125 127 93 118 c 0
 77 114 73 110 73 100 c 0
 73 72 119 40 172 30 c 1
 246 304 l 1
 240 307 l 1
 234 309 l 2
 150 344 103 407 103 485 c 0
 103 601 209 693 343 693 c 2
 350 693 l 1
 377 792 l 1
 420 792 l 1
 392 689 l 1
 480 673 536 615 536 541 c 0
 536 493 510 464 469 464 c 0
 436 464 411 487 411 518 c 0
 411 543 421 558 445 570 c 0
 458 577 462 582 462 591 c 0
 462 613 427 637 381 647 c 1xea
273 404 m 1
 339 651 l 1
 242 650 183 601 183 522 c 0xe8
 183 471 216 426 268 406 c 2
 273 404 l 1
285 288 m 1
 215 26 l 1
 242 27 261 30 282 36 c 0
 344 55 385 106 385 163 c 0xe4
 385 192 372 227 353 248 c 0
 340 263 327 271 298 283 c 0
 294 285 289 287 285 288 c 1
EndSplineSet
EndChar
StartChar: percent
Encoding: 37 37 6
Width: 833
Flags: W
HStem: 15 36<575 591> 321 36<174 193> 364 37<675 692> 605 34<441 463> 702 20G<605 651>
VStem: 46 84<419 445> 357 34<575 593> 445 82<111 136> 757 35<271 293>
DStem: 549 635 651 722 187 0 237 0
Fore
651 722 m 1
 237 0 l 1
 187 0 l 1
 549 635 l 1
 510 613 486 605 452 605 c 0
 431 605 414 608 387 617 c 1
 390 600 391 592 391 581 c 0
 391 520 363 449 320 397 c 0
 276 345 230 321 174 321 c 0
 100 321 46 373 46 445 c 0
 46 512 92 604 152 656 c 0
 191 689 236 708 279 708 c 0
 319 708 344 695 370 661 c 1
 400 644 418 639 443 639 c 0
 507 639 565 668 605 722 c 1
 651 722 l 1
287 673 m 1
 244 658 231 646 192 578 c 0
 146 497 130 456 130 419 c 0
 130 383 154 357 189 357 c 0
 270 357 357 475 357 587 c 0
 357 602 355 613 351 630 c 1
 322 641 307 650 287 673 c 1
675 401 m 0
 743 401 792 351 792 282 c 0
 792 223 762 146 716 89 c 0
 679 42 627 15 575 15 c 0
 500 15 445 66 445 136 c 0
 445 192 472 261 514 314 c 0
 560 370 616 401 675 401 c 0
692 364 m 0
 660 364 633 341 601 290 c 0
 549 203 527 151 527 111 c 0
 527 78 553 51 586 51 c 0
 668 51 757 170 757 280 c 0
 757 327 728 364 692 364 c 0
EndSplineSet
EndChar
StartChar: ampersand
Encoding: 38 38 7
Width: 852
Flags: W
HStem: -15 56<222 274> 691 46<439 457>
VStem: 24 115<170 196> 255 99<517 565> 523 71<604 611>
Fore
773 397 m 1
 768 354 l 1
 702 347 678 328 607 224 c 1
 571 174 546 144 507 108 c 1
 540 70 565 56 598 56 c 0
 643 56 671 77 719 146 c 1
 753 125 l 1
 692 29 629 -15 552 -15 c 0
 499 -15 462 1 422 43 c 1
 350 3 288 -15 222 -15 c 0
 103 -15 24 59 24 170 c 0
 24 235 56 296 117 346 c 0
 149 371 190 393 263 424 c 1
 257 469 255 490 255 517 c 0
 255 650 329 737 442 737 c 0
 532 737 594 684 594 606 c 0
 594 549 565 504 506 468 c 0
 475 449 442 436 372 416 c 1
 400 298 439 199 478 146 c 1
 546 209 588 270 588 305 c 0
 588 335 559 354 514 354 c 2
 507 354 l 1
 513 397 l 1
 773 397 l 1
364 459 m 1
 370 461 370 461 377 464 c 0
 464 490 523 549 523 609 c 0
 523 656 489 691 444 691 c 0
 389 691 354 642 354 565 c 0
 354 534 356 512 364 459 c 1
271 379 m 1
 231 359 213 347 195 329 c 0
 161 295 139 243 139 196 c 0
 139 158 153 117 176 86 c 0
 199 57 233 41 274 41 c 0
 313 41 349 53 392 80 c 1
 335 171 299 260 271 379 c 1
EndSplineSet
EndChar
StartChar: quoteright
Encoding: 39 8217 8
Width: 204
Flags: W
HStem: 689 20G<141.5 180>
Fore
52 433 m 1
 39 464 l 1
 113 498 157 544 166 595 c 1
 159 594 153 594 149 594 c 0
 115 594 93 615 93 647 c 0
 93 682 123 709 160 709 c 0
 200 709 230 675 230 629 c 0
 230 552 160 475 52 433 c 1
EndSplineSet
KernsSLIF: 121 14 1 0 119 -2 1 0 118 -1 1 0 116 -1 1 0 115 -11 1 0 114 -5 1 0 46 -43 1 0 111 -13 1 0 100 -18 1 0 44 -42 1 0 262 -62 1 0 256 -62 1 0 257 -62 1 0 225 -50 1 0 65 -62 1 0
EndChar
StartChar: parenleft
Encoding: 40 40 9
Width: 333
Flags: W
VStem: 40 79<122 213>
Fore
389 736 m 1
 399 713 l 1
 315 669 271 629 232 563 c 0
 163 444 119 274 119 122 c 0
 119 34 133 -22 177 -108 c 1
 156 -123 l 1
 78 -26 40 85 40 213 c 0
 40 440 187 661 389 736 c 1
EndSplineSet
EndChar
StartChar: parenright
Encoding: 41 41 10
Width: 333
Flags: W
VStem: 186 79<400 492>
Fore
-83 -123 m 1
 -93 -100 l 1
 -9 -55 35 -16 73 50 c 0
 143 170 186 339 186 492 c 0
 186 579 172 635 129 721 c 1
 150 736 l 1
 227 640 265 529 265 400 c 0
 265 174 118 -47 -83 -123 c 1
EndSplineSet
EndChar
StartChar: asterisk
Encoding: 42 42 11
Width: 500
Flags: W
HStem: 409 85<76 83> 497 85<401 410> 685 20G<277.5 300>
VStem: 157 84<328 335> 245 84<661 663>
DStem: 199 525 214 540 222 501 237 516 228 480 249 475 219 448 240 442 246 549 267 543 237 516 258 511 249 475 264 490 272 451 288 466
Fore
222 501 m 1
 199 525 l 1
 175 547 163 555 118 571 c 0
 91 582 79 596 79 618 c 0
 79 641 96 659 120 659 c 0
 142 659 157 647 167 620 c 0
 184 573 188 566 214 540 c 2
 237 516 l 1
 246 549 l 2
 250 563 252 578 252 591 c 0
 252 601 250 621 247 641 c 0
 246 649 245 656 245 661 c 0
 245 684 266 705 289 705 c 0
 311 705 329 685 329 661 c 0
 329 648 325 639 312 624 c 0
 281 588 277 581 267 543 c 1
 258 511 l 1
 291 519 l 2
 322 528 335 536 371 565 c 0
 387 578 395 582 408 582 c 0
 432 582 452 564 452 541 c 0
 452 518 430 497 407 497 c 0
 402 497 396 498 388 499 c 0
 360 505 351 506 341 506 c 0
 330 506 314 503 296 499 c 2
 264 490 l 1
 288 466 l 2
 310 444 324 436 367 420 c 0
 395 409 407 395 407 373 c 0
 407 349 390 332 366 332 c 0
 344 332 329 344 319 371 c 0
 303 416 299 423 272 451 c 2
 249 475 l 1
 240 442 l 2
 236 428 234 414 234 401 c 0
 234 390 236 373 239 350 c 0
 240 342 241 336 241 331 c 0
 241 307 221 286 197 286 c 0
 175 286 157 306 157 330 c 0
 157 343 161 352 174 367 c 0
 205 405 209 412 219 448 c 2
 228 480 l 1
 195 472 l 2
 165 463 152 455 115 426 c 0
 99 413 91 409 78 409 c 0
 54 409 34 427 34 450 c 0
 34 473 55 494 79 494 c 0
 84 494 90 493 98 492 c 0
 121 488 137 486 147 486 c 0
 160 486 174 488 190 492 c 2
 222 501 l 1
EndSplineSet
EndChar
StartChar: plus
Encoding: 43 43 12
Width: 606
Flags: W
HStem: 213 80<37 249 329 540>
VStem: 249 80<2 213 293 505>
Fore
249 213 m 1
 37 213 l 1
 37 293 l 1
 249 293 l 1
 249 505 l 1
 329 505 l 1
 329 293 l 1
 540 293 l 1
 540 213 l 1
 329 213 l 1
 329 2 l 1
 249 2 l 1
 249 213 l 1
EndSplineSet
EndChar
StartChar: comma
Encoding: 44 44 13
Width: 278
Flags: W
HStem: -6 21G<54 73>
Fore
-26 -167 m 1
 -39 -136 l 1
 35 -102 79 -56 88 -5 c 1
 81 -6 75 -6 71 -6 c 0
 37 -6 15 15 15 47 c 0
 15 82 45 109 82 109 c 0
 122 109 151 75 151 29 c 0
 151 -48 82 -125 -26 -167 c 1
EndSplineSet
KernsSLIF: 39 4 1 0 186 4 1 0 49 -48 1 0
EndChar
StartChar: hyphen
Encoding: 45 45 14
Width: 333
Flags: W
HStem: 195 83<53 237>
Fore
54 278 m 1
 259 278 l 1
 237 195 l 1
 32 195 l 1
 54 278 l 1
EndSplineSet
KernsSLIF: 89 -81 1 0 87 -51 1 0 86 -60 1 0 84 -78 1 0 262 -11 1 0 256 -11 1 0 257 -11 1 0 225 2 1 0 65 -11 1 0
EndChar
StartChar: period
Encoding: 46 46 15
Width: 278
Flags: W
HStem: -15 21G<61.5 95.5>
Fore
79 109 m 0
 113 109 141 81 141 47 c 0
 141 12 113 -15 78 -15 c 0
 45 -15 17 13 17 47 c 0
 17 81 45 109 79 109 c 0
EndSplineSet
KernsSLIF: 39 -1 1 0 186 -1 1 0 49 -54 1 0
EndChar
StartChar: slash
Encoding: 47 47 16
Width: 606
Flags: W
HStem: 702 20G<408 466>
DStem: 408 722 466 722 140 -108 198 -108
Fore
408 722 m 1
 466 722 l 1
 198 -108 l 1
 140 -108 l 1
 408 722 l 1
EndSplineSet
EndChar
StartChar: zero
Encoding: 48 48 17
Width: 556
Flags: W
HStem: -15 40<201 222> 664 40<335.218 354>
VStem: 29 95<158 232> 430 97<454 531>
Fore
351 704 m 0
 456 704 527 603 527 454 c 0
 527 207 374 -15 203 -15 c 0
 101 -15 29 87 29 232 c 0
 29 372 85 526 168 615 c 0
 223 674 285 704 351 704 c 0
349 664 m 0
 305 664 265 634 234 578 c 0
 170 462 124 287 124 158 c 0
 124 73 155 25 208 25 c 0
 268 25 316 80 364 204 c 0
 404 306 430 435 430 531 c 0
 430 618 402 664 349 664 c 0
EndSplineSet
KernsSLIF: 55 -8 1 0 49 -62 1 0 52 6 1 0
EndChar
StartChar: one
Encoding: 49 49 18
Width: 556
Flags: W
HStem: 0 47<54 420> 588 44<197 219.307> 688 20G<430 459>
DStem: 312 523 459 708 205 123 302 123
Fore
459 708 m 1
 302 123 l 1
 293 82 293 82 293 74 c 0
 293 52 307 47 372 47 c 2
 426 47 l 1
 420 0 l 1
 50 0 l 1
 55 47 l 1
 98 47 l 2
 148 47 171 51 182 61 c 0
 190 69 191 70 205 123 c 2
 312 523 l 1
 322 559 322 559 322 568 c 0
 322 586 315 588 254 588 c 2
 185 588 l 1
 197 632 l 1
 269 632 376 667 430 708 c 1
 459 708 l 1
EndSplineSet
KernsSLIF: 48 -42 1 0 50 -8 1 0 51 -36 1 0 54 -49 1 0 55 -67 1 0 46 -31 1 0 49 -50 1 0 57 -33 1 0 52 -60 1 0 53 -39 1 0 56 -41 1 0 44 -30 1 0
EndChar
StartChar: two
Encoding: 50 50 19
Width: 556
Flags: W
HStem: 0 85<78 394> 654 50<286 315>
VStem: 76 142<473 501> 403 105<527 545>
Fore
435 207 m 1
 471 193 l 1
 394 0 l 1
 -35 0 l 1
 -26 56 14 99 280 329 c 0
 370 407 403 462 403 537 c 0
 403 607 356 654 286 654 c 0
 219 654 144 606 144 563 c 0
 144 551 149 546 172 534 c 0
 205 516 218 499 218 473 c 0
 218 437 190 409 153 409 c 0
 106 409 76 445 76 501 c 0
 76 610 187 704 315 704 c 0
 430 704 508 633 508 529 c 0
 508 450 475 391 395 329 c 0
 369 309 363 304 226 210 c 1
 145 152 103 117 78 85 c 1
 310 85 l 2
 359 85 372 96 409 161 c 2
 435 207 l 1
EndSplineSet
KernsSLIF: 55 -18 1 0 49 -56 1 0 52 2 1 0
EndChar
StartChar: three
Encoding: 51 51 20
Width: 556
Flags: W
HStem: -15 42<173 194> 337 54<211 223> 659 45<297 318>
VStem: -2 135<143 167> 117 120<540 554> 350 108<218 239> 406 100<540 562>
Fore
340 364 m 1xea
 384 350 404 338 426 312 c 0
 447 287 458 256 458 220 c 0
 458 86 343 -15 192 -15 c 0
 72 -15 -2 46 -2 143 c 0
 -2 195 26 229 69 229 c 0
 104 229 133 201 133 167 c 0
 133 140 121 122 92 109 c 0
 76 102 72 98 72 87 c 0
 72 55 121 27 176 27 c 0
 241 27 287 54 317 108 c 0
 338 146 350 192 350 239 c 0xf4
 350 301 318 343 271 343 c 0
 261 343 247 342 233 339 c 0
 225 338 218 337 213 337 c 0
 195 337 184 347 184 363 c 0
 184 381 197 391 218 391 c 0
 222 391 223 391 253 389 c 0
 265 388 273 387 276 387 c 0
 342 387 406 472 406 560 c 0
 406 622 366 659 299 659 c 0
 252 659 202 634 202 610 c 0
 202 603 206 597 216 587 c 0
 231 571 237 559 237 542 c 0
 237 509 213 485 180 485 c 0
 143 485 117 513 117 554 c 0
 117 635 209 704 318 704 c 0
 429 704 506 639 506 545 c 0
 506 467 457 405 374 375 c 0
 364 372 351 368 340 364 c 1xea
EndSplineSet
KernsSLIF: 55 -20 1 0 49 -73 1 0 52 -3 1 0
EndChar
StartChar: four
Encoding: 52 52 21
Width: 556
Flags: W
HStem: 0 47<132 438> 0 238<65 438> 184 54<65 274 386 486> 688 20G<458 512>
DStem: 374 556 512 708 289 238 386 238 458 708 374 556 -8 226 65 238
Fore
512 708 m 1xb0
 386 238 l 1x50
 500 238 l 1
 486 184 l 1
 372 184 l 1
 355 123 l 2
 348 98 345 82 345 74 c 0
 345 52 359 47 425 47 c 2
 443 47 l 1
 438 0 l 1xb0
 127 0 l 1x50
 133 47 l 1
 151 47 l 2
 200 47 224 51 235 61 c 0
 243 68 243 70 258 123 c 1
 274 184 l 1
 -8 184 l 1
 -8 226 l 1
 458 708 l 1
 512 708 l 1xb0
289 238 m 1
 374 556 l 1
 65 238 l 1
 289 238 l 1
EndSplineSet
KernsSLIF: 55 -30 1 0 49 -41 1 0 52 17 1 0
EndChar
StartChar: five
Encoding: 53 53 22
Width: 556
Flags: W
HStem: -15 41<166 197> 391 55<255 294> 586 89<355 408> 684 20G<531.5 534>
VStem: 4 137<137 166> 371 109<256 276>
DStem: 203 704 224 602 112 383 168 413
Fore
112 383 m 1
 203 704 l 1
 275 685 349 675 408 675 c 0
 448 675 482 683 522 700 c 0
 528 703 531 704 532 704 c 0
 536 704 540 698 540 692 c 0
 540 679 530 662 512 642 c 0
 480 607 421 586 355 586 c 0
 320 586 278 591 224 602 c 1
 168 413 l 1
 218 437 250 446 294 446 c 0
 403 446 480 374 480 274 c 0
 480 115 348 -15 187 -15 c 0
 81 -15 4 49 4 137 c 0
 4 185 37 222 81 222 c 0
 116 222 141 198 141 166 c 0
 141 145 132 127 115 115 c 0
 109 110 109 110 83 98 c 0
 78 95 77 93 77 87 c 0
 77 54 126 26 184 26 c 0
 287 26 371 132 371 262 c 0
 371 345 329 391 255 391 c 0
 216 391 183 379 152 355 c 1
 149 318 134 299 108 299 c 0
 88 299 72 314 72 333 c 0
 72 352 81 363 112 383 c 1
EndSplineSet
KernsSLIF: 55 -42 1 0 49 -77 1 0 52 4 1 0
EndChar
StartChar: six
Encoding: 54 54 23
Width: 556
Flags: W
HStem: -15 41<215.092 245> 371 58<290 323> 664 40<385 405>
VStem: 36 93<153 221> 387 105<240 258> 420 127<565 586>
Fore
158 335 m 1xf4
 199 398 253 429 323 429 c 0
 423 429 492 358 492 256 c 0xf8
 492 190 465 118 421 68 c 0
 373 15 306 -15 231 -15 c 0
 109 -15 36 74 36 221 c 0
 36 332 79 459 148 558 c 0
 216 654 300 704 394 704 c 0
 483 704 547 654 547 586 c 0
 547 541 519 511 478 511 c 0
 444 511 420 533 420 565 c 0
 420 580 424 592 433 609 c 0
 440 622 442 626 442 633 c 0
 442 652 422 664 392 664 c 0
 332 664 277 623 233 545 c 0
 193 474 177 430 158 335 c 1xf4
290 371 m 0
 198 371 129 277 129 153 c 0
 129 73 167 26 231 26 c 0
 319 26 387 123 387 250 c 0
 387 327 352 371 290 371 c 0
EndSplineSet
KernsSLIF: 55 -12 1 0 49 -55 1 0 52 11 1 0
EndChar
StartChar: seven
Encoding: 55 55 24
Width: 556
Flags: W
HStem: -15 21G<162 198> 609 85<340 470>
DStem: 166 704 130 521 69 493 106 481 470 609 561 674 361 453 467 528
Fore
561 704 m 1
 561 674 l 1
 467 528 l 1
 328 303 298 238 248 50 c 0
 235 3 216 -15 180 -15 c 0
 144 -15 122 7 122 43 c 0
 122 78 140 122 184 193 c 0
 233 273 233 273 361 453 c 1
 470 609 l 1
 301 609 l 2
 196 609 178 600 130 521 c 2
 106 481 l 1
 69 493 l 1
 166 704 l 1
 191 703 l 1
 292 697 l 2
 328 695 360 694 387 694 c 0
 442 694 509 698 561 704 c 1
EndSplineSet
KernsSLIF: 50 -31 1 0 51 -38 1 0 54 -49 1 0 55 -28 1 0 46 -79 1 0 49 -67 1 0 52 -82 1 0 53 -49 1 0 56 -47 1 0 44 -78 1 0 58 -95 1 0
EndChar
StartChar: eight
Encoding: 56 56 25
Width: 556
Flags: W
HStem: -15 44<206 233> 661 43<327 351>
VStem: 8 81<140 162> 114 80<490 538> 393 87<164 209> 452 75<537 562>
Fore
376 370 m 1xf4
 413 346 431 331 446 311 c 0
 468 281 480 246 480 209 c 0xf8
 480 79 369 -15 216 -15 c 0
 88 -15 8 46 8 142 c 0
 8 233 71 306 189 351 c 1
 135 390 114 429 114 490 c 0
 114 610 214 704 343 704 c 0
 450 704 527 639 527 548 c 0
 527 497 504 451 461 418 c 0
 443 404 422 392 376 370 c 1xf4
333 393 m 1
 338 396 345 399 349 400 c 0
 410 428 452 491 452 554 c 0xf4
 452 616 403 661 335 661 c 0
 257 661 194 606 194 538 c 0
 194 481 232 442 333 393 c 1
227 324 m 1
 216 319 210 317 208 316 c 0
 134 284 89 222 89 154 c 0
 89 77 142 29 227 29 c 0
 321 29 393 88 393 164 c 0xf8
 393 208 366 249 316 279 c 0
 291 294 274 302 227 324 c 1
EndSplineSet
KernsSLIF: 55 -11 1 0 49 -60 1 0 52 7 1 0
EndChar
StartChar: nine
Encoding: 57 57 26
Width: 556
Flags: W
HStem: -15 42<160 168> -15 191<75 160> 257 59<230 264> 662 42<310 332>
VStem: 7 128<102 118> 60 106<416 436> 424 95<454 531>
Fore
393 342 m 1xba
 347 284 296 257 230 257 c 0
 134 257 60 329 60 424 c 0
 60 489 86 559 131 614 c 0
 177 671 247 704 320 704 c 0
 444 704 519 610 519 454 c 0
 519 332 462 186 375 90 c 0
 313 21 240 -15 160 -15 c 0xb6
 71 -15 7 34 7 102 c 0
 7 145 35 176 75 176 c 0x7a
 109 176 135 151 135 118 c 0
 135 105 130 92 120 79 c 0
 112 67 110 63 110 57 c 0
 110 39 129 27 160 27 c 0
 228 27 281 69 329 159 c 0
 359 215 376 264 393 342 c 1xba
319 662 m 0
 273 662 237 639 208 591 c 0
 180 546 166 493 166 434 c 0
 166 359 201 316 264 316 c 0
 356 316 424 407 424 531 c 0
 424 611 383 662 319 662 c 0
EndSplineSet
KernsSLIF: 55 -12 1 0 49 -69 1 0 52 -2 1 0
EndChar
StartChar: colon
Encoding: 58 58 27
Width: 278
Flags: W
HStem: -15 124<101 106> 339 124<185 203>
Fore
104 109 m 0
 138 109 166 81 166 47 c 0
 166 12 138 -15 103 -15 c 0
 70 -15 42 13 42 47 c 0
 42 81 70 109 104 109 c 0
192 463 m 0
 226 463 254 435 254 401 c 0
 254 366 226 339 191 339 c 0
 158 339 130 367 130 401 c 0
 130 435 158 463 192 463 c 0
EndSplineSet
EndChar
StartChar: semicolon
Encoding: 59 59 28
Width: 278
Flags: W
HStem: -6 115<94 113> 339 124<193 201>
Fore
-1 -167 m 1
 -14 -135 l 1
 61 -101 104 -57 113 -5 c 1
 106 -6 100 -6 96 -6 c 0
 62 -6 40 15 40 47 c 0
 40 82 70 109 107 109 c 0
 147 109 176 75 176 29 c 0
 176 -48 108 -124 -1 -167 c 1
199 463 m 0
 233 463 261 435 261 401 c 0
 261 366 233 339 198 339 c 0
 165 339 137 367 137 401 c 0
 137 435 165 463 199 463 c 0
EndSplineSet
EndChar
StartChar: less
Encoding: 60 60 29
Width: 606
Flags: W
DStem: 34 215 145 253 543 -17 543 68 543 523 543 438 34 291 145 253
Fore
543 438 m 1
 145 253 l 1
 543 68 l 1
 543 -17 l 1
 34 215 l 1
 34 291 l 1
 543 523 l 1
 543 438 l 1
EndSplineSet
EndChar
StartChar: equal
Encoding: 61 61 30
Width: 606
Flags: W
HStem: 112 80<36 540> 314 80<36 540>
Fore
540 192 m 1
 540 112 l 1
 36 112 l 1
 36 192 l 1
 540 192 l 1
540 394 m 1
 540 314 l 1
 36 314 l 1
 36 394 l 1
 540 394 l 1
EndSplineSet
EndChar
StartChar: greater
Encoding: 62 62 31
Width: 606
Flags: W
DStem: 53 438 53 523 451 253 562 291 451 253 562 215 53 68 53 -17
Fore
53 438 m 1
 53 523 l 1
 562 291 l 1
 562 215 l 1
 53 -17 l 1
 53 68 l 1
 451 253 l 1
 53 438 l 1
EndSplineSet
EndChar
StartChar: question
Encoding: 63 63 32
Width: 444
Flags: W
HStem: -15 124<152 170> 199 38<209 214> 696 41<270 292>
VStem: 102 124<35.9421 50> 113 39<526 562> 117 50<284 299> 354 63<598 629>
Fore
290 310 m 1xe6
 326 304 l 1
 314 241 268 199 211 199 c 0
 155 199 117 239 117 299 c 0xe6
 117 370 159 427 276 517 c 0
 333 561 354 591 354 629 c 0
 354 667 321 696 279 696 c 0
 232 696 191 670 168 626 c 0
 156 602 152 577 152 526 c 1
 114 526 l 1
 113 537 113 544 113 550 c 0xea
 113 659 183 737 281 737 c 0
 361 737 417 680 417 598 c 0
 417 540 392 494 334 445 c 0
 307 421 307 421 234 374 c 0
 186 343 167 317 167 286 c 0
 167 256 184 237 212 237 c 0
 236 237 259 249 272 267 c 0
 279 277 282 285 290 310 c 1xe6
164 109 m 0
 198 109 226 81 226 47 c 0
 226 12 198 -15 163 -15 c 0
 130 -15 102 13 102 47 c 0xf2
 102 81 130 109 164 109 c 0
EndSplineSet
EndChar
StartChar: at
Encoding: 64 64 33
Width: 747
Flags: W
HStem: -14 51<379 416> 153 40<305 320> 502 41<381 395> 685 51<379 416>
VStem: 28 56<337 371> 180 90<271 302> 412 74<209 227> 676 52<417 437>
Fore
641 188 m 1
 702 188 l 1
 683 144 653 105 610 66 c 1
 550 14 475 -14 393 -14 c 0
 187 -14 28 147 28 356 c 0
 28 464 67 563 137 632 c 0
 203 697 299 736 393 736 c 0
 578 736 728 601 728 435 c 0
 728 343 683 253 610 198 c 0
 567 165 521 147 481 147 c 0
 440 147 412 173 412 212 c 0
 412 219 412 224 413 232 c 1
 374 174 345 153 305 153 c 0
 272 153 236 171 213 198 c 0
 191 224 180 260 180 302 c 0
 180 363 203 424 244 471 c 0
 283 514 337 543 381 543 c 0
 419 543 447 519 459 478 c 1
 475 534 l 1
 563 534 l 1
 490 245 l 2
 487 233 486 223 486 215 c 0
 486 201 497 191 513 191 c 0
 541 191 582 219 616 260 c 1
 652 306 676 373 676 429 c 0
 676 496 643 567 587 616 c 0
 535 662 473 685 399 685 c 0
 216 685 84 549 84 361 c 0
 84 173 217 37 401 37 c 0
 502 37 585 89 641 188 c 1
395 502 m 0
 372 502 349 487 332 460 c 0
 295 403 270 327 270 271 c 0
 270 222 288 193 318 193 c 0
 349 193 380 225 404 280 c 0
 425 327 440 391 440 430 c 0
 440 474 423 502 395 502 c 0
EndSplineSet
EndChar
StartChar: A
Encoding: 65 65 34
Width: 704
Flags: W
HStem: 0 47<-77 -61.2657 157 187 366 663> 238 47<200 428> 717 20G<401 442>
DStem: 363 572 442 737 420 285 567 108 401 737 363 572 71 168 200 285 401 737 173 238 71 168 118 142 428 238 442 737 451 115 567 108
Fore
442 737 m 1
 567 108 l 1
 577 56 588 47 643 47 c 2
 668 47 l 1
 663 0 l 1
 362 0 l 1
 367 47 l 1
 383 47 l 2
 440 47 455 54 455 83 c 0
 455 90 453 103 451 115 c 1
 428 238 l 1
 173 238 l 1
 118 142 l 2
 106 122 100 102 100 87 c 0
 100 57 117 47 169 47 c 2
 193 47 l 1
 187 0 l 1
 -82 0 l 1
 -77 47 l 1
 -23 47 18 80 71 168 c 1
 401 737 l 1
 442 737 l 1
420 285 m 1
 363 572 l 1
 200 285 l 1
 420 285 l 1
EndSplineSet
KernsSLIF: 121 -51 0 0 119 -1 0 0 118 -13 0 0 117 -8 0 0 116 3 0 0 39 -58 0 0 186 -59 0 0 113 3 0 0 46 17 0 0 111 -4 0 0 45 -16 0 0 172 -47 0 0 171 -19 0 0 103 17 0 0 101 3 0 0 100 1 0 0 44 16 0 0 332 -7 0 0 99 -3 0 0 98 -11 0 0 97 3 0 0 89 -21 0 0 87 -85 0 0 86 -91 0 0 300 -43 0 0 298 -43 0 0 301 -43 0 0 299 -43 0 0 85 -43 0 0 84 -18 0 0 81 -32 0 0 286 -34 0 0 79 -34 0 0 71 -32 0 0 264 -41 0 0 67 -37 0 0
EndChar
StartChar: B
Encoding: 66 66 35
Width: 722
Flags: W
HStem: 0 47<-27 334> 347 47<269 354> 675 47<122 178 123 450>
VStem: 508 122<206 225> 549 119<553 572>
DStem: 213 599 327 607 85 123 269 394 213 599 257 347 85 123 193 109
Fore
123 722 m 1xf0
 424 722 l 2
 502 722 546 714 587 691 c 0
 638 663 668 613 668 555 c 0xe8
 668 495 638 442 585 410 c 0
 552 390 522 380 473 371 c 1
 579 339 630 285 630 206 c 0
 630 128 583 60 506 27 c 0
 466 9 405 0 332 0 c 2
 -31 0 l 1
 -26 47 l 1
 -11 47 l 2
 27 47 52 52 62 61 c 0
 70 69 71 69 85 123 c 1
 213 599 l 1
 218 619 222 640 222 648 c 0
 222 670 208 675 143 675 c 2
 117 675 l 1
 123 722 l 1xf0
269 394 m 1
 352 394 l 2
 411 394 454 405 486 430 c 0
 525 460 549 514 549 570 c 0
 549 643 513 675 431 675 c 2
 402 675 l 2
 351 675 343 668 327 607 c 1
 269 394 l 1
257 347 m 1
 193 109 l 2
 189 94 187 82 187 74 c 0
 187 53 203 47 257 47 c 2
 307 47 l 2
 367 47 416 61 446 87 c 0
 484 120 508 173 508 225 c 0xf0
 508 274 482 313 436 332 c 0
 414 341 368 347 320 347 c 2
 257 347 l 1
EndSplineSet
KernsSLIF: 89 -21 0 0 87 -37 0 0 86 -26 0 0 233 -13 0 0 288 -12 0 0 286 -12 0 0 289 -12 0 0 287 -12 0 0 234 -13 0 0 79 -12 0 0 261 -3 0 0 262 -3 0 0 256 -3 0 0 259 -3 0 0 257 -3 0 0 225 1 0 0 65 -3 0 0
EndChar
StartChar: C
Encoding: 67 67 36
Width: 722
Flags: W
HStem: -15 49<327 361> 694 43<439 457>
VStem: 40 125<240 280>
Fore
617 657 m 1
 677 715 l 1
 713 715 l 1
 657 435 l 1
 616 435 l 1
 613 512 606 556 590 593 c 0
 563 660 516 694 450 694 c 0
 381 694 314 654 268 583 c 0
 205 486 165 354 165 240 c 0
 165 183 181 130 211 93 c 0
 241 54 289 34 351 34 c 0
 426 34 486 63 536 125 c 0
 554 146 568 170 593 223 c 1
 634 205 l 1
 608 144 585 107 554 75 c 0
 497 16 422 -15 334 -15 c 0
 156 -15 40 102 40 280 c 0
 40 391 78 495 152 585 c 1
 232 685 332 737 442 737 c 0
 518 737 569 714 617 657 c 1
EndSplineSet
KernsSLIF: 286 -12 0 0 287 -12 0 0 79 -12 0 0 75 -20 0 0 72 -21 0 0 262 -18 0 0 256 -18 0 0 257 -18 0 0 225 -13 0 0 65 -18 0 0
EndChar
StartChar: D
Encoding: 68 68 37
Width: 778
Flags: W
HStem: 0 47<-34 283> 675 47<115 171 116 443>
VStem: 614 121<435 489>
DStem: 206 599 320 610 78 123 187 110
Fore
-38 0 m 1
 -33 47 l 1
 -28 47 l 2
 21 47 44 51 55 61 c 0
 63 69 64 69 78 123 c 1
 206 599 l 1
 211 619 215 640 215 648 c 0
 215 670 201 675 136 675 c 2
 110 675 l 1
 116 722 l 1
 406 722 l 2
 518 722 581 708 631 670 c 0
 698 620 735 537 735 435 c 0
 735 301 667 162 560 77 c 0
 490 22 405 0 264 0 c 2
 -38 0 l 1
227 47 m 2
 259 47 l 2
 356 47 420 65 465 104 c 0
 546 176 614 352 614 489 c 0
 614 547 595 602 566 631 c 0
 537 659 486 675 426 675 c 2
 396 675 l 2
 343 675 336 669 320 610 c 1
 187 110 l 1
 183 98 181 84 181 76 c 0
 181 56 196 47 227 47 c 2
EndSplineSet
KernsSLIF: 89 -36 0 0 88 -47 0 0 87 -48 0 0 86 -41 0 0 74 -7 0 0 261 -42 0 0 262 -42 0 0 258 -42 0 0 256 -42 0 0 259 -42 0 0 257 -42 0 0 65 -42 0 0
EndChar
StartChar: E
Encoding: 69 69 38
Width: 722
Flags: W
HStem: 0 47<-33 564> 481 241<117 662> 675 47<116 172 117 496>
DStem: 207 599 320 606 79 123 265 401 207 599 511 520 79 123 422 186 207 599 253 354 79 123 194 134
Fore
701 722 m 1xa0
 662 481 l 1
 617 481 l 1xc0
 617 516 l 2
 617 585 608 617 580 642 c 0
 555 664 521 675 478 675 c 2
 420 675 l 2
 345 675 337 670 320 606 c 2
 265 401 l 1
 288 401 l 2
 385 401 437 438 466 526 c 1
 511 520 l 1
 422 186 l 1
 377 194 l 1
 384 226 386 241 386 263 c 0
 386 324 349 354 275 354 c 2
 253 354 l 1
 194 134 l 2
 184 96 183 91 183 79 c 0
 183 55 201 47 253 47 c 2
 307 47 l 2
 388 47 446 65 494 106 c 0
 533 138 552 165 596 245 c 2
 601 253 l 1
 642 245 l 1
 564 0 l 1
 -37 0 l 1
 -32 47 l 1
 -27 47 l 2
 22 47 45 51 56 61 c 0
 64 69 65 70 79 123 c 2
 207 599 l 1
 212 619 216 640 216 648 c 0
 216 670 202 675 137 675 c 2
 111 675 l 1xa0
 117 722 l 1xc0
 701 722 l 1xa0
EndSplineSet
EndChar
StartChar: F
Encoding: 70 70 39
Width: 667
Flags: W
HStem: 0 47<-30 284> 481 241<120 659> 675 47<119 175 120 495>
DStem: 210 599 323 606 82 123 268 401 210 599 514 520 82 123 425 186 210 599 256 354 82 123 194 123
Fore
698 722 m 1xa0
 659 481 l 1
 614 481 l 1xc0
 614 516 l 2
 614 585 605 617 577 642 c 0
 552 664 518 675 475 675 c 2
 423 675 l 2
 348 675 340 670 323 606 c 2
 268 401 l 1
 291 401 l 2
 388 401 440 438 469 526 c 1
 514 520 l 1
 425 186 l 1
 380 194 l 1
 387 226 389 241 389 263 c 0
 389 324 352 354 278 354 c 2
 256 354 l 1
 194 123 l 1
 184 82 184 82 184 74 c 0
 184 52 198 47 263 47 c 2
 289 47 l 1
 284 0 l 1
 -34 0 l 1
 -29 47 l 1
 -24 47 l 2
 25 47 48 51 59 61 c 0
 67 69 68 70 82 123 c 2
 210 599 l 1
 215 619 219 640 219 648 c 0
 219 670 205 675 140 675 c 2
 114 675 l 1xa0
 120 722 l 1xc0
 698 722 l 1xa0
EndSplineSet
KernsSLIF: 117 3 0 0 114 -1 0 0 46 -93 0 0 249 -55 0 0 250 -51 0 0 351 -33 0 0 352 -54 0 0 111 -54 0 0 106 -18 0 0 45 -50 0 0 335 -52 0 0 101 -52 0 0 44 -92 0 0 328 -49 0 0 241 -35 0 0 322 -48 0 0 323 -49 0 0 97 -49 0 0 286 -1 0 0 79 -1 0 0 74 -72 0 0 261 -73 0 0 262 -73 0 0 258 -73 0 0 256 -73 0 0 259 -73 0 0 257 -73 0 0 65 -73 0 0
EndChar
StartChar: G
Encoding: 71 71 40
Width: 778
Flags: W
HStem: -15 43<314 344> 285 47<437 504 438 757> 694 43<453 472>
VStem: 39 122<222 273>
Fore
739 715 m 1
 684 434 l 1
 642 441 l 1
 641 510 635 550 618 588 c 0
 589 655 532 694 463 694 c 0
 373 694 297 637 238 525 c 0
 191 435 161 318 161 222 c 0
 161 101 228 28 339 28 c 0
 435 28 501 80 527 178 c 1
 536 209 l 1
 541 229 545 250 545 258 c 0
 545 280 531 285 466 285 c 2
 433 285 l 1
 438 332 l 1
 763 332 l 1
 757 285 l 1
 753 285 l 2
 704 285 681 281 670 271 c 0
 661 264 661 263 647 209 c 1
 587 -14 l 1
 543 -14 l 1
 531 67 l 1
 469 8 409 -15 314 -15 c 0
 142 -15 39 92 39 273 c 0
 39 399 92 522 188 618 c 0
 267 697 357 737 455 737 c 0
 536 737 591 712 643 653 c 1
 705 715 l 1
 739 715 l 1
EndSplineSet
KernsSLIF: 89 2 0 0 87 -7 0 0 86 1 0 0 84 -22 0 0 261 -7 0 0 262 -7 0 0 258 -7 0 0 256 -7 0 0 259 -7 0 0 257 -7 0 0 225 -2 0 0 65 -7 0 0
EndChar
StartChar: H
Encoding: 72 72 41
Width: 833
Flags: W
HStem: 0 47<-34 280 400 713> 354 47<264 573> 675 47<115 171 116 428 548 603 549 862>
DStem: 206 599 318 599 78 123 264 401 206 599 252 354 78 123 190 123 573 354 751 599 512 123 623 123 639 599 751 599 586 401 623 123
Fore
573 354 m 1
 252 354 l 1
 190 123 l 1
 180 82 180 82 180 74 c 0
 180 52 194 47 259 47 c 2
 285 47 l 1
 280 0 l 1
 -38 0 l 1
 -33 47 l 1
 -28 47 l 2
 21 47 44 51 55 61 c 0
 63 69 64 70 78 123 c 2
 206 599 l 1
 211 619 215 640 215 648 c 0
 215 670 201 675 136 675 c 2
 110 675 l 1
 116 722 l 1
 433 722 l 1
 428 675 l 1
 424 675 l 2
 375 675 351 671 341 661 c 1
 332 654 332 654 318 599 c 1
 264 401 l 1
 586 401 l 1
 639 599 l 1
 646 623 649 640 649 648 c 0
 649 670 635 675 570 675 c 2
 544 675 l 1
 549 722 l 1
 867 722 l 1
 862 675 l 1
 858 675 l 2
 808 675 785 671 774 661 c 0
 766 654 766 654 751 599 c 2
 623 123 l 2
 618 104 614 81 614 74 c 0
 614 52 628 47 693 47 c 2
 719 47 l 1
 713 0 l 1
 396 0 l 1
 401 47 l 1
 405 47 l 2
 454 47 478 51 489 61 c 0
 497 69 497 70 512 123 c 1
 573 354 l 1
EndSplineSet
EndChar
StartChar: I
Encoding: 73 73 42
Width: 407
Flags: W
HStem: 0 47<-28 7.40404 222 277> 675 47<120 176 121 426>
DStem: 207 599 319 599 79 123 191 123
Fore
283 47 m 1
 277 0 l 1
 -33 0 l 1
 -28 47 l 1
 31 48 44 50 56 61 c 0
 65 70 66 73 79 123 c 1
 207 599 l 2
 214 626 217 640 217 648 c 0
 217 670 203 675 137 675 c 2
 115 675 l 1
 121 722 l 1
 431 722 l 1
 426 675 l 1
 368 674 354 672 342 661 c 0
 333 652 333 651 319 599 c 2
 191 123 l 2
 182 89 181 84 181 75 c 0
 181 52 195 47 261 47 c 2
 283 47 l 1
EndSplineSet
EndChar
StartChar: J
Encoding: 74 74 43
Width: 611
Flags: W
HStem: -15 43<155 178> 147 141<106 123> 675 47<331 388 332 641>
VStem: -13 48<128 143>
DStem: 425 599 537 599 323 219 428 192
Fore
326 675 m 1
 332 722 l 1
 646 722 l 1
 641 675 l 1
 637 675 l 2
 595 675 570 671 560 661 c 0
 552 653 552 653 537 599 c 1
 428 192 l 2
 390 50 312 -15 178 -15 c 0
 58 -15 -13 43 -13 143 c 0
 -13 224 40 288 108 288 c 0
 155 288 187 259 187 217 c 0
 187 176 160 147 121 147 c 0
 103 147 95 149 75 161 c 0
 71 163 66 164 61 164 c 0
 46 164 35 150 35 132 c 0
 35 73 88 28 157 28 c 0
 241 28 286 80 323 219 c 2
 425 599 l 1
 431 623 435 640 435 648 c 0
 435 670 421 675 356 675 c 2
 326 675 l 1
EndSplineSet
KernsSLIF: 262 -47 0 0 256 -47 0 0 225 -42 0 0 65 -47 0 0
EndChar
StartChar: K
Encoding: 75 75 44
Width: 741
Flags: W
HStem: 0 47<-36 278 368 691> 675 47<113 169 114 426 513 553>
DStem: 204 599 315 599 76 123 247 342 204 599 224 257 76 123 188 123 337 350 420 420 454 104 572 105 535 582 608 577 247 342 420 420 535 582 337 350 247 342 224 257
Fore
247 342 m 1
 535 582 l 2
 573 613 589 633 589 650 c 0
 589 669 575 675 530 675 c 2
 508 675 l 1
 514 722 l 1
 814 722 l 1
 809 675 l 1
 729 669 687 649 608 577 c 1
 420 420 l 1
 572 105 l 2
 600 47 600 47 666 47 c 2
 697 47 l 1
 691 0 l 1
 364 0 l 1
 369 47 l 1
 402 47 l 2
 455 47 470 51 470 65 c 0
 470 71 470 71 454 104 c 2
 337 350 l 1
 224 257 l 1
 188 123 l 1
 178 82 178 82 178 74 c 0
 178 52 192 47 257 47 c 2
 283 47 l 1
 278 0 l 1
 -40 0 l 1
 -35 47 l 1
 -30 47 l 2
 19 47 42 51 53 61 c 0
 61 68 62 69 76 123 c 1
 204 599 l 1
 209 619 213 640 213 648 c 0
 213 670 199 675 134 675 c 2
 108 675 l 1
 114 722 l 1
 431 722 l 1
 426 675 l 1
 422 675 l 2
 373 675 349 671 339 661 c 1
 330 654 330 654 315 599 c 1
 247 342 l 1
EndSplineSet
KernsSLIF: 121 -83 0 0 362 -12 0 0 117 -12 0 0 351 -8 0 0 352 -8 0 0 111 -8 0 0 45 -51 0 0 241 18 0 0 84 20 0 0 83 17 0 0 286 -36 0 0 287 -36 0 0 234 -39 0 0 79 -36 0 0 71 -36 0 0 67 -34 0 0
EndChar
StartChar: L
Encoding: 76 76 45
Width: 667
Flags: W
HStem: 0 47<-33 552> 675 47<116 172 117 447>
DStem: 207 599 319 599 79 123 194 134
Fore
589 253 m 1
 630 245 l 1
 552 0 l 1
 -37 0 l 1
 -32 47 l 1
 -27 47 l 2
 22 47 45 51 56 61 c 0
 64 69 65 70 79 123 c 2
 207 599 l 1
 212 619 216 640 216 648 c 0
 216 670 202 675 137 675 c 2
 111 675 l 1
 117 722 l 1
 453 722 l 1
 447 675 l 1
 425 675 l 2
 376 675 352 671 342 661 c 0
 333 653 333 653 319 599 c 1
 194 134 l 2
 184 97 183 92 183 79 c 0
 183 55 201 47 253 47 c 2
 295 47 l 2
 437 47 501 92 589 253 c 1
EndSplineSet
KernsSLIF: 121 -1 0 0 362 -7 0 0 117 -7 0 0 39 -41 0 0 186 -48 0 0 45 38 0 0 89 -52 0 0 87 -67 0 0 86 -72 0 0 298 -26 0 0 85 -26 0 0 84 -49 0 0 290 2 0 0 288 2 0 0 286 2 0 0 289 2 0 0 287 2 0 0 79 2 0 0 71 3 0 0 264 2 0 0 67 2 0 0 262 31 0 0 256 31 0 0 257 31 0 0 225 36 0 0 65 31 0 0
EndChar
StartChar: M
Encoding: 77 77 46
Width: 944
Flags: W
HStem: 0 47<209 229 506 819> 675 47<120 167 757 968>
DStem: 211 599 266 602 109 217 163 217 266 602 363 722 328 0 416 182 750 616 857 599 618 123 730 123 757 722 750 616 416 182 364 0
Fore
363 722 m 1
 416 182 l 1
 757 722 l 1
 973 722 l 1
 968 675 l 1
 964 675 l 2
 914 675 891 671 880 661 c 0
 872 654 872 654 857 599 c 1
 730 123 l 1
 724 103 720 81 720 74 c 0
 720 52 734 47 799 47 c 2
 825 47 l 1
 819 0 l 1
 502 0 l 1
 507 47 l 1
 511 47 l 2
 560 47 584 51 595 61 c 0
 603 69 603 69 618 123 c 1
 750 616 l 1
 364 0 l 1
 328 0 l 1
 266 602 l 1
 163 217 l 1
 141 128 140 124 140 102 c 0
 140 65 169 47 229 47 c 1
 224 0 l 1
 -26 0 l 1
 -21 47 l 1
 51 49 71 75 109 217 c 2
 211 599 l 2
 217 622 221 640 221 648 c 0
 221 670 207 675 142 675 c 2
 116 675 l 1
 121 722 l 1
 363 722 l 1
EndSplineSet
EndChar
StartChar: N
Encoding: 78 78 47
Width: 815
Flags: W
HStem: 0 47<-43 -22.1069 207 228> 675 47<103 177 597 614.679>
DStem: 216 643 256 587 102 217 157 217 256 587 315 722 534 -14 568 170 658 505 712 505 568 170 573 -14
Fore
315 722 m 1
 568 170 l 1
 658 505 l 1
 680 594 681 598 681 620 c 0
 681 657 652 675 591 675 c 1
 597 722 l 1
 859 722 l 1
 854 675 l 1
 770 672 750 649 712 505 c 1
 573 -14 l 1
 534 -14 l 1
 256 587 l 1
 157 217 l 1
 134 128 133 124 133 102 c 0
 133 65 162 47 223 47 c 2
 234 47 l 1
 228 0 l 1
 -48 0 l 1
 -43 47 l 1
 44 49 63 71 102 217 c 2
 216 643 l 1
 208 670 199 675 151 675 c 2
 99 675 l 1
 104 722 l 1
 315 722 l 1
EndSplineSet
KernsSLIF: 362 -42 0 0 117 -42 0 0 46 -38 0 0 249 -33 0 0 351 -37 0 0 352 -37 0 0 111 -37 0 0 335 -32 0 0 101 -32 0 0 44 -36 0 0 328 -34 0 0 241 -39 0 0 322 -34 0 0 323 -34 0 0 97 -34 0 0 286 -28 0 0 287 -28 0 0 79 -28 0 0 71 -29 0 0 264 -27 0 0 67 -28 0 0 262 -32 0 0 256 -32 0 0 257 -32 0 0 225 -27 0 0 65 -32 0 0
EndChar
StartChar: O
Encoding: 79 79 48
Width: 778
Flags: W
HStem: -15 43<295 329> 694 43<439 473>
VStem: 40 118<207 275> 618 117<450 496>
Fore
457 737 m 0
 533 737 604 708 655 658 c 0
 709 605 735 537 735 450 c 0
 735 322 682 196 590 104 c 0
 510 25 417 -15 312 -15 c 0
 146 -15 40 98 40 275 c 0
 40 397 86 514 169 602 c 0
 253 692 349 737 457 737 c 0
460 694 m 0
 391 694 334 662 281 594 c 0
 216 510 158 328 158 207 c 0
 158 97 218 28 314 28 c 0
 392 28 465 71 510 144 c 0
 572 244 618 393 618 496 c 0
 618 543 603 603 584 634 c 0
 563 670 512 694 460 694 c 0
EndSplineSet
KernsSLIF: 89 -30 0 0 88 -47 0 0 87 -47 0 0 86 -35 0 0 262 -42 0 0 256 -42 0 0 257 -42 0 0 225 -37 0 0 65 -42 0 0
EndChar
StartChar: P
Encoding: 80 80 49
Width: 667
Flags: W
HStem: 0 47<-29 285> 318 47<260 368> 675 47<120 176 121 432>
VStem: 551 112<539 561>
DStem: 211 599 330 627 83 123 260 365 211 599 247 318 83 123 195 123
Fore
247 318 m 1
 195 123 l 1
 185 82 185 82 185 74 c 0
 185 52 199 47 264 47 c 2
 290 47 l 1
 285 0 l 1
 -33 0 l 1
 -28 47 l 1
 -23 47 l 2
 26 47 49 51 60 61 c 0
 68 69 69 69 83 123 c 1
 211 599 l 1
 216 619 220 640 220 648 c 0
 220 670 206 675 141 675 c 2
 115 675 l 1
 121 722 l 1
 416 722 l 2
 499 722 552 711 589 686 c 0
 637 653 663 603 663 541 c 0
 663 462 624 397 554 359 c 0
 486 323 451 318 265 318 c 2
 247 318 l 1
260 365 m 1
 279 365 l 2
 377 365 377 365 391 367 c 0
 446 372 482 390 508 422 c 0
 535 456 551 503 551 552 c 0
 551 641 511 675 406 675 c 2
 394 675 l 2
 353 675 340 665 330 627 c 2
 260 365 l 1
EndSplineSet
KernsSLIF: 46 -112 0 0 249 -35 0 0 250 -32 0 0 351 -36 0 0 352 -36 0 0 111 -36 0 0 45 -55 0 0 335 -33 0 0 101 -33 0 0 44 -111 0 0 328 -32 0 0 241 -23 0 0 322 -32 0 0 323 -32 0 0 97 -32 0 0 74 -78 0 0 262 -80 0 0 256 -80 0 0 257 -80 0 0 225 -69 0 0 65 -80 0 0
EndChar
StartChar: Q
Encoding: 81 81 50
Width: 778
Flags: W
HStem: -188 77<500 548> -15 44<311 335> 218 49<316 333> 693 44<439 473>
VStem: 40 117<200 278> 186 37<114 133> 385 113<-51 5> 615 120<447 505>
Fore
498 27 m 1
 498 5 l 1
 499 -61 504 -82 524 -102 c 0
 530 -107 539 -111 548 -111 c 0
 574 -111 601 -84 623 -38 c 1
 658 -60 l 1
 639 -95 623 -119 605 -139 c 0
 578 -169 537 -188 500 -188 c 0
 433 -188 385 -131 385 -51 c 0
 385 -42 386 -25 389 -8 c 1
 364 -13 347 -15 323 -15 c 0
 147 -15 40 96 40 278 c 0
 40 520 234 737 452 737 c 0
 529 737 599 711 651 663 c 0
 708 611 735 542 735 447 c 0
 735 350 704 254 644 167 c 0
 609 116 569 78 498 27 c 1
485 116 m 1
 565 226 615 375 615 505 c 0
 615 564 603 612 580 640 c 0
 555 672 506 693 455 693 c 0
 382 693 311 646 260 564 c 0
 198 464 157 319 157 200 c 0
 157 141 167 107 195 72 c 1
 188 95 186 106 186 123 c 0
 186 207 247 267 333 267 c 0
 420 267 475 213 485 116 c 1
396 45 m 1
 404 89 405 94 405 117 c 0
 405 178 371 218 318 218 c 0
 264 218 223 175 223 118 c 0
 223 62 259 29 321 29 c 0
 346 29 366 33 396 45 c 1
EndSplineSet
EndChar
StartChar: R
Encoding: 82 82 51
Width: 741
Flags: W
HStem: 0 47<-37 277> 350 47<260 344> 675 47<112 168 113 456>
VStem: 424 113<96 134> 433 106<202 260> 571 120<556 567>
DStem: 203 599 319 615 75 123 260 397 203 599 248 350 75 123 187 123
Fore
248 350 m 1xec
 187 123 l 1
 177 82 177 82 177 74 c 0
 177 52 191 47 256 47 c 2
 282 47 l 1
 277 0 l 1
 -41 0 l 1
 -36 47 l 1
 -31 47 l 2
 18 47 41 51 52 61 c 0
 60 69 61 70 75 123 c 2
 203 599 l 1
 208 619 212 640 212 648 c 0
 212 670 198 675 133 675 c 2
 107 675 l 1
 113 722 l 1
 433 722 l 2
 517 722 566 714 605 694 c 0
 660 666 691 617 691 558 c 0
 691 493 651 432 589 400 c 0
 553 382 514 373 436 364 c 1
 509 337 539 289 539 202 c 0xec
 539 191 539 179 538 166 c 1
 537 115 l 1
 537 73 546 54 567 54 c 0
 595 54 612 76 637 147 c 1
 673 132 l 1
 634 26 594 -15 530 -15 c 0
 467 -15 424 34 424 106 c 0xf4
 424 125 424 130 430 206 c 0
 432 227 433 248 433 260 c 0
 433 325 401 350 317 350 c 2
 248 350 l 1xec
260 397 m 1
 338 397 l 2
 422 397 452 402 489 424 c 0
 543 456 571 504 571 565 c 0
 571 635 523 675 439 675 c 2
 390 675 l 2
 343 675 333 666 319 615 c 2
 260 397 l 1
EndSplineSet
KernsSLIF: 121 -45 0 0 362 -22 0 0 363 -22 0 0 117 -22 0 0 250 -2 0 0 351 -4 0 0 352 -4 0 0 111 -4 0 0 335 1 0 0 101 1 0 0 328 -1 0 0 241 5 0 0 322 -1 0 0 323 -1 0 0 97 -1 0 0 89 -17 0 0 87 -33 0 0 86 -22 0 0 298 -33 0 0 85 -33 0 0 84 -14 0 0 286 -14 0 0 287 -14 0 0 234 -14 0 0 79 -14 0 0 71 -14 0 0 264 -14 0 0 67 -15 0 0
EndChar
StartChar: S
Encoding: 83 83 52
Width: 667
Flags: W
HStem: -15 43<287 323> 694 43<349 369>
VStem: 118 91<513 563> 473 96<171 214>
Fore
632 715 m 1
 578 454 l 1
 536 461 l 1
 537 470 537 478 537 481 c 0
 537 613 471 694 365 694 c 0
 276 694 209 637 209 563 c 0
 209 512 244 475 323 444 c 2
 408 410 l 2
 527 363 569 312 569 214 c 0
 569 82 456 -15 300 -15 c 0
 219 -15 150 11 94 63 c 1
 35 0 l 1
 0 0 l 1
 55 285 l 1
 95 278 l 1
 94 267 94 254 94 250 c 0
 94 183 110 134 147 92 c 0
 186 48 234 28 299 28 c 0
 402 28 473 86 473 171 c 0
 473 208 458 237 429 258 c 0
 417 266 405 272 351 294 c 2
 265 330 l 2
 213 352 185 369 165 391 c 0
 135 424 118 468 118 513 c 0
 118 639 223 737 358 737 c 0
 431 737 488 714 540 663 c 1
 594 715 l 1
 632 715 l 1
EndSplineSet
KernsSLIF: 116 -19 0 0 89 4 0 0 87 -5 0 0 86 3 0 0 84 -21 0 0 262 -5 0 0 256 -5 0 0 257 -5 0 0 65 -5 0 0
EndChar
StartChar: T
Encoding: 84 84 53
Width: 685
Flags: W
HStem: 0 47<84 426> 675 47<128 537>
DStem: 350 633 458 619 214 123 325 123
Fore
726 722 m 1
 684 447 l 1
 642 452 l 1
 644 493 644 504 644 522 c 0
 644 580 630 628 607 650 c 0
 589 666 560 675 522 675 c 2
 508 675 l 2
 477 675 472 670 458 619 c 1
 325 123 l 2
 320 104 316 81 316 74 c 0
 316 52 330 47 395 47 c 2
 432 47 l 1
 426 0 l 1
 80 0 l 1
 85 47 l 1
 107 47 l 2
 156 47 180 51 191 61 c 0
 199 69 200 70 214 123 c 2
 350 633 l 2
 353 644 355 653 355 658 c 0
 355 670 345 675 322 675 c 2
 308 675 l 2
 254 675 207 650 167 598 c 0
 140 564 130 547 81 458 c 1
 40 464 l 1
 128 722 l 1
 726 722 l 1
EndSplineSet
KernsSLIF: 121 2 0 0 119 16 0 0 118 17 0 0 117 13 0 0 59 -30 0 0 115 -21 0 0 114 13 0 0 46 -93 0 0 249 -37 0 0 111 -35 0 0 106 -3 0 0 105 15 0 0 45 -99 0 0 172 -130 0 0 171 -102 0 0 103 -35 0 0 101 -33 0 0 44 -92 0 0 58 -26 0 0 99 -35 0 0 241 -14 0 0 97 -28 0 0 89 43 0 0 87 34 0 0 86 41 0 0 83 -10 0 0 290 7 0 0 233 6 0 0 288 7 0 0 286 7 0 0 289 7 0 0 287 7 0 0 234 8 0 0 79 7 0 0 74 -80 0 0 71 6 0 0 67 8 0 0 261 -46 0 0 262 -46 0 0 258 -46 0 0 256 -46 0 0 259 -46 0 0 257 -46 0 0 225 -41 0 0 65 -46 0 0
EndChar
StartChar: U
Encoding: 85 85 54
Width: 815
Flags: W
HStem: -15 43<341 366> 675 47<104 158 105 417 597 620>
VStem: 93 110<155 178>
DStem: 195 599 307 599 113 294 217 266 661 505 715 505 603 290 659 294
Fore
100 675 m 1
 105 722 l 1
 423 722 l 1
 417 675 l 1
 413 675 l 2
 364 675 340 671 330 661 c 0
 321 653 321 653 307 599 c 1
 217 266 l 1
 210 238 203 189 203 163 c 0
 203 78 262 28 364 28 c 0
 441 28 499 56 538 112 c 0
 562 146 574 179 603 290 c 1
 661 505 l 1
 683 594 684 598 684 620 c 0
 684 658 655 676 591 675 c 1
 597 722 l 1
 860 722 l 1
 855 675 l 1
 767 671 758 660 715 505 c 1
 659 294 l 2
 632 192 632 192 618 157 c 0
 587 76 548 33 483 8 c 0
 444 -7 394 -15 343 -15 c 0
 180 -15 93 52 93 176 c 0
 93 210 97 236 113 294 c 1
 195 599 l 1
 200 619 204 640 204 648 c 0
 204 670 190 675 125 675 c 2
 100 675 l 1
EndSplineSet
KernsSLIF: 114 -43 0 0 46 -48 0 0 112 -47 0 0 110 -44 0 0 109 -44 0 0 44 -47 0 0 261 -50 0 0 262 -50 0 0 256 -50 0 0 259 -50 0 0 257 -50 0 0 225 -45 0 0 65 -50 0 0
EndChar
StartChar: V
Encoding: 86 86 55
Width: 704
Flags: W
HStem: -15 21G<259 296> 675 47<42 69 43 333 499 533>
DStem: 142 577 247 591 259 -15 334 155 557 556 593 513 334 155 296 -15
Fore
334 155 m 1
 557 556 l 1
 580 596 588 617 588 634 c 0
 588 663 566 675 513 675 c 2
 495 675 l 1
 500 722 l 1
 772 722 l 1
 767 675 l 1
 696 668 671 645 593 513 c 1
 296 -15 l 1
 259 -15 l 1
 142 577 l 2
 126 657 112 675 64 675 c 2
 36 675 l 1
 43 722 l 1
 338 722 l 1
 333 675 l 1
 299 675 l 2
 250 675 239 669 239 643 c 0
 239 634 242 614 247 591 c 1
 334 155 l 1
EndSplineSet
KernsSLIF: 121 -68 0 0 117 -55 0 0 59 -103 0 0 114 -56 0 0 46 -102 0 0 249 -79 0 0 111 -83 0 0 105 -13 0 0 45 -68 0 0 172 -98 0 0 171 -70 0 0 103 -88 0 0 101 -78 0 0 44 -101 0 0 58 -99 0 0 241 -84 0 0 97 -79 0 0 84 17 0 0 83 -15 0 0 290 -43 0 0 233 -46 0 0 288 -43 0 0 286 -43 0 0 289 -43 0 0 287 -43 0 0 79 -43 0 0 71 -45 0 0 67 -41 0 0 261 -95 0 0 262 -95 0 0 258 -95 0 0 256 -95 0 0 259 -95 0 0 257 -95 0 0 225 -42 0 0 65 -95 0 0
EndChar
StartChar: W
Encoding: 87 87 56
Width: 926
Flags: W
HStem: -15 21G<225 260 557 595> 675 47<57 86 58 319 380 422 381 654 739 774>
DStem: 146 587 249 599 225 -15 303 196 471 579 487 490 303 196 260 -15 487 490 576 621 557 -15 630 196 793 572 833 532 630 196 595 -15
Fore
630 196 m 1
 793 572 l 2
 809 610 816 631 816 644 c 0
 816 665 795 675 752 675 c 2
 735 675 l 1
 740 722 l 1
 973 722 l 1
 968 675 l 1
 900 660 880 638 833 532 c 1
 595 -15 l 1
 557 -15 l 1
 487 490 l 1
 260 -15 l 1
 225 -15 l 1
 146 587 l 1
 141 624 134 652 127 659 c 0
 118 670 101 675 79 675 c 2
 53 675 l 1
 58 722 l 1
 325 722 l 1
 319 675 l 1
 301 675 l 2
 259 675 244 667 244 645 c 0
 244 639 244 634 249 599 c 1
 303 196 l 1
 471 579 l 1
 464 629 l 2
 458 672 452 675 389 675 c 2
 376 675 l 1
 381 722 l 1
 659 722 l 1
 654 675 l 1
 635 675 l 2
 586 675 574 669 574 648 c 0
 574 639 575 631 576 621 c 1
 630 196 l 1
EndSplineSet
KernsSLIF: 121 -56 0 0 117 -48 0 0 59 -93 0 0 114 -49 0 0 46 -72 0 0 249 -57 0 0 111 -61 0 0 105 -24 0 0 45 -46 0 0 172 -77 0 0 171 -49 0 0 103 -66 0 0 101 -57 0 0 44 -71 0 0 58 -92 0 0 241 -64 0 0 97 -58 0 0 84 6 0 0 83 -26 0 0 290 -44 0 0 233 -43 0 0 288 -44 0 0 286 -44 0 0 289 -44 0 0 287 -44 0 0 79 -44 0 0 71 -44 0 0 67 -44 0 0 261 -71 0 0 262 -71 0 0 258 -71 0 0 256 -71 0 0 259 -71 0 0 257 -71 0 0 225 -53 0 0 65 -71 0 0
EndChar
StartChar: X
Encoding: 88 88 57
Width: 704
Flags: W
HStem: 0 47<197 213 329 645> 675 47<76 120 77 388 486 520>
DStem: 199 605 312 615 303 360 384 443 303 360 326 309 106 153 175 150 326 309 406 392 416 95 522 120 506 568 588 578 384 443 406 392
Fore
406 392 m 1
 522 120 l 1
 552 51 558 47 624 47 c 2
 650 47 l 1
 645 0 l 1
 324 0 l 1
 330 47 l 1
 361 47 l 2
 409 47 422 52 422 70 c 0
 422 76 420 86 416 95 c 2
 326 309 l 1
 175 150 l 2
 150 124 136 100 136 82 c 0
 136 59 160 47 204 47 c 2
 219 47 l 1
 213 0 l 1
 -73 0 l 1
 -68 47 l 1
 1 56 31 74 106 153 c 2
 303 360 l 1
 199 605 l 2
 172 668 161 675 96 675 c 2
 72 675 l 1
 77 722 l 1
 392 722 l 1
 387 675 l 1
 369 675 l 2
 323 675 302 666 302 647 c 0
 302 640 303 637 312 615 c 2
 384 443 l 1
 506 568 l 2
 541 605 554 626 554 646 c 0
 554 666 537 675 502 675 c 2
 482 675 l 1
 487 722 l 1
 770 722 l 1
 765 675 l 1
 695 673 665 656 588 578 c 2
 406 392 l 1
EndSplineSet
KernsSLIF: 121 -88 0 0 117 -17 0 0 111 -13 0 0 45 -50 0 0 101 -5 0 0 97 -5 0 0 81 -41 0 0 286 -39 0 0 79 -39 0 0 67 -37 0 0
EndChar
StartChar: Y
Encoding: 89 89 58
Width: 685
Flags: W
HStem: 0 47<91 433> 675 47<36 65 37 340 475 496>
DStem: 150 606 262 613 270 308 362 364 270 308 382 308 220 123 332 123 532 582 582 564 362 364 382 308
Fore
362 364 m 1
 532 582 l 1
 548 601 558 623 558 636 c 0
 558 660 534 675 494 675 c 2
 471 675 l 1
 476 722 l 1
 758 722 l 1
 753 675 l 1
 681 671 652 652 582 564 c 1
 382 308 l 1
 332 123 l 1
 322 82 322 82 322 74 c 0
 322 52 336 47 402 47 c 2
 438 47 l 1
 433 0 l 1
 86 0 l 1
 92 47 l 1
 114 47 l 2
 163 47 187 51 197 61 c 0
 206 69 206 70 220 123 c 2
 270 308 l 1
 150 606 l 2
 127 662 108 675 49 675 c 2
 32 675 l 1
 37 722 l 1
 345 722 l 1
 340 675 l 1
 312 675 l 2
 268 675 251 668 251 651 c 0
 251 643 255 630 262 613 c 2
 362 364 l 1
EndSplineSet
KernsSLIF: 118 -69 0 0 117 -72 0 0 59 -102 0 0 46 -90 0 0 112 -80 0 0 249 -91 0 0 111 -95 0 0 105 -10 0 0 45 -95 0 0 172 -123 0 0 171 -95 0 0 103 -87 0 0 101 -91 0 0 44 -89 0 0 58 -103 0 0 241 -83 0 0 97 -92 0 0 84 21 0 0 83 -8 0 0 290 -35 0 0 233 -38 0 0 288 -35 0 0 286 -35 0 0 289 -35 0 0 287 -35 0 0 79 -35 0 0 71 -37 0 0 67 -33 0 0 261 -43 0 0 262 -43 0 0 258 -43 0 0 256 -43 0 0 259 -43 0 0 257 -43 0 0 225 -38 0 0 65 -43 0 0
EndChar
StartChar: Z
Encoding: 90 90 59
Width: 667
Flags: W
HStem: 0 47<127 529> 675 47<164 514>
DStem: 514 675 661 683 -19 38 127 47
Fore
667 722 m 1
 661 683 l 1
 127 47 l 1
 262 47 l 2
 360 47 421 68 473 120 c 0
 507 154 526 183 569 268 c 1
 611 256 l 1
 529 0 l 1
 -25 0 l 1
 -19 38 l 1
 514 675 l 1
 418 675 l 2
 335 675 279 662 241 633 c 0
 204 606 194 592 135 492 c 0
 131 484 127 477 124 472 c 1
 83 483 l 1
 164 722 l 1
 667 722 l 1
EndSplineSet
KernsSLIF: 121 -8 0 0 118 -15 0 0
EndChar
StartChar: bracketleft
Encoding: 91 91 60
Width: 333
Flags: W
HStem: -108 32<61 198> 689 33<190 401>
DStem: 190 722 266 689 -33 -108 61 -76
Fore
61 -76 m 1
 207 -76 l 1
 198 -108 l 1
 -33 -108 l 1
 190 722 l 1
 410 722 l 1
 401 689 l 1
 266 689 l 1
 61 -76 l 1
EndSplineSet
EndChar
StartChar: backslash
Encoding: 92 92 61
Width: 606
Flags: W
HStem: 0 21G<468 522> 688 20G<89 143>
DStem: 89 708 143 708 468 0 522 0
Fore
143 708 m 1
 522 0 l 1
 468 0 l 1
 89 708 l 1
 143 708 l 1
EndSplineSet
EndChar
StartChar: bracketright
Encoding: 93 93 62
Width: 333
Flags: W
HStem: -108 33<-75 136> 690 32<127 265>
DStem: 265 690 359 722 60 -75 136 -108
Fore
265 690 m 1
 119 690 l 1
 128 722 l 1
 359 722 l 1
 136 -108 l 1
 -83 -108 l 1
 -74 -75 l 1
 60 -75 l 1
 265 690 l 1
EndSplineSet
EndChar
StartChar: asciicircum
Encoding: 94 94 63
Width: 606
Flags: W
HStem: 702 20G<261 346>
DStem: 261 722 304 629 52 318 139 318 304 629 346 722 467 318 554 318
Fore
554 318 m 1
 467 318 l 1
 304 629 l 1
 139 318 l 1
 52 318 l 1
 261 722 l 1
 346 722 l 1
 554 318 l 1
EndSplineSet
EndChar
StartChar: underscore
Encoding: 95 95 64
Width: 500
Flags: W
HStem: -123 42<0 500>
Fore
0 -81 m 1
 500 -81 l 1
 500 -123 l 1
 0 -123 l 1
 0 -81 l 1
EndSplineSet
EndChar
StartChar: quoteleft
Encoding: 96 8216 65
Width: 204
Flags: W
HStem: 461 21G<111 149.5>
Fore
239 737 m 1
 252 706 l 1
 178 672 134 626 125 576 c 1
 142 576 l 2
 176 576 198 555 198 523 c 0
 198 488 168 461 131 461 c 0
 91 461 61 495 61 541 c 0
 61 618 131 695 239 737 c 1
EndSplineSet
KernsSLIF: 89 47 1 0 87 38 1 0 86 45 1 0 84 35 1 0 262 -61 1 0 256 -61 1 0 257 -61 1 0 225 -49 1 0 65 -61 1 0
EndChar
StartChar: a
Encoding: 97 97 66
Width: 574
Flags: W
HStem: -15 51<149 172> 415 55<247 264>
VStem: 1 91<126 160> 296 76<50 65>
DStem: 396 455 483 455 369 365 383 119
Fore
396 455 m 1
 483 455 l 1
 383 119 l 1
 376 94 372 75 372 65 c 0
 372 51 382 40 393 40 c 0
 419 40 454 82 492 158 c 1
 523 141 l 1
 511 114 494 86 474 58 c 0
 439 9 401 -15 357 -15 c 0
 321 -15 296 11 296 50 c 0
 296 60 297 67 301 82 c 1
 251 10 211 -15 149 -15 c 0
 60 -15 1 50 1 148 c 0
 1 228 31 312 82 378 c 0
 129 438 186 470 247 470 c 0
 312 470 362 427 369 365 c 1
 396 455 l 1
264 415 m 0
 234 415 206 403 184 380 c 0
 131 326 92 222 92 134 c 0
 92 73 122 36 172 36 c 0
 222 36 258 64 289 126 c 0
 320 189 340 269 340 326 c 0
 340 381 311 415 264 415 c 0
EndSplineSet
KernsSLIF: 121 -37 0 0 119 -18 0 0 118 -21 0 0 39 -7 0 0 106 -45 0 0
EndChar
StartChar: b
Encoding: 98 98 67
Width: 556
Flags: W
HStem: -15 38<191 209> 409 61<308 341>
VStem: 32 85<112 130> 389 99<288 322>
DStem: 166 611 290 737 46 207 184 379
Fore
290 737 m 1
 184 379 l 1
 240 445 283 470 341 470 c 0
 430 470 488 403 488 300 c 0
 488 209 452 125 387 62 c 0
 332 9 273 -15 195 -15 c 0
 96 -15 32 41 32 128 c 0
 32 148 37 176 46 207 c 2
 166 611 l 1
 172 633 175 646 175 654 c 0
 175 677 159 686 118 686 c 2
 94 686 l 1
 98 722 l 1
 290 737 l 1
308 409 m 0
 258 409 214 378 176 318 c 0
 141 260 117 181 117 120 c 0
 117 59 149 23 203 23 c 0
 255 23 297 52 335 115 c 0
 369 172 389 241 389 305 c 0
 389 370 359 409 308 409 c 0
EndSplineSet
KernsSLIF: 121 -4 0 0 119 -26 0 0 118 -27 0 0
EndChar
StartChar: c
Encoding: 99 99 68
Width: 444
Flags: W
HStem: -15 48<175 192> 287 183<271 338> 432 38<260 287>
VStem: 5 92<144 178> 285 116<336 362>
Fore
341 132 m 1xb8
 370 110 l 1
 317 27 252 -15 177 -15 c 0
 73 -15 5 56 5 166 c 0
 5 326 131 470 271 470 c 0
 343 470 401 422 401 362 c 0
 401 319 374 287 338 287 c 0xd8
 307 287 285 307 285 336 c 0
 285 360 295 372 322 384 c 0
 333 388 338 393 338 399 c 0
 338 416 306 432 274 432 c 0
 230 432 194 408 159 358 c 0
 120 302 97 223 97 152 c 0
 97 77 131 33 190 33 c 0
 238 33 291 67 341 132 c 1xb8
EndSplineSet
KernsSLIF: 107 -21 0 0 104 -23 0 0
EndChar
StartChar: d
Encoding: 100 100 69
Width: 611
Flags: W
HStem: -15 47<160 189> 425 45<274 292>
VStem: 3 97<129 162> 321 72<55 78>
DStem: 462 611 586 737 396 388 408 137
Fore
534 158 m 1
 564 140 l 1
 508 34 452 -15 389 -15 c 0
 345 -15 321 10 321 56 c 0
 321 60 321 70 322 78 c 1
 278 14 228 -15 160 -15 c 0
 67 -15 3 52 3 150 c 0
 3 316 137 470 281 470 c 0
 316 470 350 456 371 434 c 0
 382 422 388 412 396 388 c 1
 462 611 l 2
 468 631 471 645 471 655 c 0
 471 677 455 686 414 686 c 2
 383 686 l 1
 387 722 l 1
 586 737 l 1
 408 137 l 1
 398 102 393 79 393 65 c 0
 393 48 402 38 418 38 c 0
 451 38 476 64 534 158 c 1
284 425 m 0
 235 425 191 392 153 326 c 0
 121 270 100 197 100 140 c 0
 100 75 136 32 189 32 c 0
 237 32 279 65 312 129 c 0
 344 190 369 281 369 334 c 0
 369 387 333 425 284 425 c 0
EndSplineSet
EndChar
StartChar: e
Encoding: 101 101 70
Width: 444
Flags: W
HStem: -15 47<167 186> 430 40<251 272>
VStem: -6 93<135 158> 307 84<365 375>
Fore
339 116 m 1
 363 89 l 1
 309 19 244 -15 167 -15 c 0
 59 -15 -6 50 -6 158 c 0
 -6 321 126 470 272 470 c 0
 342 470 391 428 391 367 c 0
 391 309 348 258 271 224 c 0
 226 204 206 198 89 170 c 1
 88 157 87 143 87 136 c 0
 87 72 124 32 184 32 c 0
 236 32 280 55 339 116 c 1
94 209 m 1
 150 221 167 226 196 239 c 0
 268 271 307 318 307 373 c 0
 307 407 285 430 252 430 c 0
 178 430 117 344 94 209 c 1
EndSplineSet
KernsSLIF: 121 -4 0 0 120 -1 0 0 119 -22 0 0 118 -22 0 0 116 -13 0 0 39 20 0 0
EndChar
StartChar: f
Encoding: 102 102 71
Width: 333
Flags: W
HStem: 408 47<44 121 219 334> 701 35<346 364>
VStem: 364 106<635 648>
DStem: 121 408 208 408 80 234 146 161
Fore
219 455 m 1
 348 455 l 1
 334 408 l 1
 208 408 l 1
 146 161 l 2
 123 69 65 -122 42 -184 c 1
 -68 -202 l 1
 -6 -64 45 87 80 234 c 2
 121 408 l 1
 32 408 l 1
 45 455 l 1
 132 455 l 1
 157 547 173 589 202 636 c 0
 241 701 296 736 359 736 c 0
 423 736 470 698 470 646 c 0
 470 616 447 593 416 593 c 0
 387 593 364 613 364 638 c 0
 364 647 366 655 373 666 c 0
 379 676 380 680 380 684 c 0
 380 694 369 701 356 701 c 0
 319 701 292 674 268 615 c 0
 248 568 243 550 219 455 c 1
EndSplineSet
KernsSLIF: 116 18 0 0 115 -12 0 0 39 57 0 0 249 -18 0 0 250 -15 0 0 351 18 0 0 352 -18 0 0 111 -18 0 0 108 42 0 0 106 -2 0 0 105 16 0 0 102 14 0 0 335 -15 0 0 101 -15 0 0 328 -14 0 0 241 -7 0 0 322 3 0 0 323 -14 0 0 97 -14 0 0
EndChar
StartChar: g
Encoding: 103 103 72
Width: 537
Flags: W
HStem: -202 42<112 171> 152 37<224 243> 409 96<460 483> 432 38<256 274>
VStem: -79 81<-92 -81> -6 74<95 122> 55 91<279 301> 322 77<-69 -40> 352 89<321 352>
Fore
382 432 m 1xd2
 421 404 441 367 441 321 c 0
 441 276 415 225 376 194 c 0
 341 166 297 152 241 152 c 0
 216 152 210 153 169 159 c 0
 155 161 141 162 128 162 c 0
 93 162 68 145 68 122 c 0xd480
 68 105 81 93 105 87 c 0
 119 84 127 83 215 78 c 0
 283 74 315 67 347 50 c 0
 380 32 399 -1 399 -40 c 0
 399 -87 374 -130 331 -158 c 0
 282 -190 225 -202 126 -202 c 0
 43 -202 -3 -191 -43 -163 c 1
 -65 -146 -79 -118 -79 -90 c 0xd9
 -79 -57 -60 -25 -30 -7 c 0
 -9 6 7 12 49 21 c 1
 10 40 -6 61 -6 95 c 0xd4
 -6 119 7 146 27 162 c 0
 50 182 71 189 117 195 c 1
 74 218 55 251 55 299 c 0
 55 391 150 470 260 470 c 0xd2
 292 470 314 465 346 451 c 1
 398 492 425 505 460 505 c 0
 495 505 523 481 523 453 c 0
 523 428 505 409 483 409 c 0xe2
 467 409 461 413 445 435 c 0
 437 446 429 451 419 451 c 0
 407 451 398 446 382 432 c 1xd2
267 432 m 0
 195 432 146 369 146 279 c 0xd280
 146 223 180 189 234 189 c 0
 265 189 293 202 311 223 c 0
 336 254 352 305 352 352 c 0
 352 401 319 432 267 432 c 0
145 3 m 0
 55 3 2 -29 2 -83 c 0
 2 -135 48 -160 144 -160 c 0
 258 -160 322 -128 322 -69 c 0xc9
 322 -44 310 -27 285 -17 c 0
 262 -7 190 3 145 3 c 0
EndSplineSet
KernsSLIF: 351 -32 0 0 352 -32 0 0 108 -37 0 0 335 -29 0 0 101 -29 0 0 328 -32 0 0 241 -22 0 0 322 -32 0 0 97 -32 0 0
EndChar
StartChar: h
Encoding: 104 104 73
Width: 611
Flags: W
HStem: -15 51<373 403> 410 60<345 374>
VStem: 303 82<48 66> 389 86<367 374>
DStem: 181 611 305 737 0 0 186 335 181 611 128 139 0 0 87 0 374 299 451 260 321 143 404 122
Fore
305 737 m 1
 186 335 l 1
 254 429 312 470 374 470 c 0
 431 470 475 428 475 372 c 0
 475 344 467 305 451 260 c 1
 404 122 l 1
 388 77 385 66 385 55 c 0
 385 44 393 36 403 36 c 0
 434 36 475 75 526 154 c 1
 555 133 l 1
 501 38 435 -15 373 -15 c 0
 333 -15 303 17 303 60 c 0
 303 81 308 103 321 143 c 1
 374 299 l 1
 384 330 389 352 389 369 c 0
 389 393 371 410 345 410 c 0
 298 410 248 374 202 307 c 0
 166 255 154 226 128 139 c 2
 87 0 l 1
 0 0 l 1
 181 611 l 2
 187 632 190 646 190 655 c 0
 190 677 174 686 133 686 c 2
 102 686 l 1
 106 722 l 1
 305 737 l 1
EndSplineSet
KernsSLIF: 121 -43 0 0 39 -22 0 0
EndChar
StartChar: i
Encoding: 105 105 74
Width: 333
Flags: W
HStem: -14 50<96 130> 606 108<202 222>
VStem: 27 86<48 59>
DStem: 107 344 231 470 49 149 125 113
Fore
231 470 m 1
 125 113 l 2
 117 85 113 67 113 57 c 0
 113 45 120 36 130 36 c 0
 157 36 201 80 251 157 c 1
 282 140 l 1
 254 97 238 75 220 55 c 0
 180 9 139 -14 96 -14 c 0
 57 -14 27 13 27 48 c 0
 27 70 31 86 49 149 c 1
 107 344 l 1
 113 366 116 379 116 388 c 0
 116 410 100 419 59 419 c 2
 35 419 l 1
 39 455 l 1
 231 470 l 1
213 714 m 0
 243 714 267 690 267 660 c 0
 267 630 243 606 212 606 c 0
 183 606 159 631 159 660 c 0
 159 690 183 714 213 714 c 0
EndSplineSet
KernsSLIF: 106 -44 0 0 84 -38 0 0
EndChar
StartChar: j
Encoding: 106 106 75
Width: 315
Flags: W
HStem: -202 34<-64 -52> 606 108<260 267>
VStem: -166 104<-122 -109> 209 108<649.76 663>
DStem: 155 344 279 470 79 87 160 70
Fore
279 470 m 1
 160 70 l 2
 117 -75 109 -95 79 -132 c 1
 40 -177 -11 -202 -64 -202 c 0
 -126 -202 -166 -171 -166 -122 c 0
 -166 -87 -143 -62 -110 -62 c 0
 -82 -62 -62 -81 -62 -109 c 0
 -62 -119 -63 -123 -70 -136 c 0
 -73 -141 -75 -146 -75 -150 c 0
 -75 -159 -65 -168 -54 -168 c 0
 -10 -168 26 -114 54 -5 c 0
 64 36 74 73 79 87 c 1
 155 344 l 2
 162 367 164 379 164 387 c 0
 164 410 148 419 107 419 c 2
 72 419 l 1
 76 455 l 1
 279 470 l 1
263 714 m 0
 293 714 317 690 317 660 c 0
 317 630 293 606 262 606 c 0
 233 606 209 631 209 660 c 0
 209 690 233 714 263 714 c 0
EndSplineSet
EndChar
StartChar: k
Encoding: 107 107 76
Width: 556
Flags: W
HStem: -15 56<325 357> 195 49<200 216> 198 38<236 251> 410 60<344 373>
VStem: 390 81<359 379>
DStem: 176 611 300 737 -5 0 176 319 176 611 120 130 -5 0 82 0
Fore
300 737 m 1xb8
 176 319 l 1
 244 424 304 470 373 470 c 0
 428 470 471 430 471 379 c 0
 471 312 406 254 288 212 c 1
 320 186 331 160 336 90 c 0
 339 50 343 41 357 41 c 0
 381 41 404 66 461 154 c 1
 492 134 l 1
 430 30 380 -15 325 -15 c 0
 275 -15 251 18 251 85 c 0
 251 89 251 108 252 134 c 1
 252 171 l 2
 252 189 247 198 236 198 c 0xb8
 234 198 234 198 216 196 c 0
 209 195 204 195 202 195 c 0
 190 195 180 205 180 217 c 0
 180 234 191 244 211 244 c 0xd8
 219 244 231 242 238 239 c 0
 244 237 249 236 251 236 c 0
 258 236 271 241 293 252 c 0
 361 286 390 318 390 359 c 0
 390 388 370 410 344 410 c 0
 306 410 254 374 210 318 c 0
 178 277 140 197 120 130 c 2
 82 0 l 1
 -5 0 l 1
 176 611 l 1
 182 633 185 645 185 655 c 0
 185 677 169 686 128 686 c 2
 97 686 l 1
 101 722 l 1
 300 737 l 1xb8
EndSplineSet
KernsSLIF: 362 -27 0 0 117 -27 0 0 115 -6 0 0 46 -1 0 0 351 -8 0 0 352 -8 0 0 111 -8 0 0 45 -9 0 0 103 -7 0 0 335 -2 0 0 101 -2 0 0 328 -5 0 0 322 -5 0 0 323 -5 0 0 97 -5 0 0
EndChar
StartChar: l
Encoding: 108 108 77
Width: 333
Flags: W
HStem: -15 51<81 114>
VStem: 16 80<53 66>
DStem: 170 611 294 737 43 182 109 112
Fore
294 737 m 1
 109 112 l 2
 96 69 96 68 96 57 c 0
 96 45 103 36 114 36 c 0
 142 36 187 80 237 157 c 1
 268 140 l 1
 208 38 144 -15 81 -15 c 0
 41 -15 16 12 16 55 c 0
 16 86 19 102 43 182 c 2
 170 611 l 2
 176 631 179 645 179 655 c 0
 179 677 163 686 122 686 c 2
 91 686 l 1
 95 722 l 1
 294 737 l 1
EndSplineSet
KernsSLIF: 121 -52 0 0 118 -28 0 0
EndChar
StartChar: m
Encoding: 109 109 78
Width: 889
Flags: W
HStem: -15 51<662 691> 410 60<354 380 633 664>
VStem: 396 81<368 381> 584 86<53 66> 672 85<368 381>
DStem: 117 344 143 141 15 0 102 0 376 271 426 145 296 0 383 0 658 309 745 304 612 167 682 110
Fore
230 470 m 1
 201 335 l 1
 271 435 317 470 380 470 c 0
 435 470 477 430 477 377 c 0
 477 365 475 348 471 329 c 1
 529 423 593 470 664 470 c 0
 718 470 757 432 757 379 c 0
 757 358 752 326 745 304 c 2
 682 110 l 1
 673 81 670 70 670 61 c 0
 670 48 680 36 691 36 c 0
 717 36 753 73 806 152 c 1
 837 131 l 1
 795 70 781 53 761 33 c 0
 727 1 695 -15 662 -15 c 0
 616 -15 584 13 584 55 c 0
 584 83 585 89 612 167 c 1
 658 309 l 2
 667 337 672 359 672 373 c 0
 672 396 658 410 633 410 c 0
 595 410 544 376 508 327 c 0
 476 284 451 228 426 145 c 2
 383 0 l 1
 296 0 l 1
 376 271 l 1
 388 309 396 351 396 371 c 0
 396 396 380 410 354 410 c 0
 279 410 188 294 143 141 c 2
 102 0 l 1
 15 0 l 1
 117 344 l 1
 122 362 125 378 125 387 c 0
 125 410 109 419 69 419 c 2
 45 419 l 1
 48 455 l 1
 230 470 l 1
EndSplineSet
KernsSLIF: 121 -42 0 0 119 -18 0 0 118 -22 0 0 112 -27 0 0
EndChar
StartChar: n
Encoding: 110 110 79
Width: 611
Flags: W
HStem: -15 51<379 409> 410 60<355 385>
VStem: 309 82<48 66> 395 86<367 375>
DStem: 116 344 142 139 14 0 101 0 380 299 457 260 327 143 410 122
Fore
229 470 m 1
 200 335 l 1
 267 427 326 470 385 470 c 0
 438 470 481 426 481 373 c 0
 481 344 473 305 457 260 c 1
 410 122 l 1
 394 78 391 66 391 55 c 0
 391 44 399 36 409 36 c 0
 440 36 483 77 533 156 c 1
 562 135 l 1
 506 38 442 -15 379 -15 c 0
 339 -15 309 17 309 59 c 0
 309 81 314 104 327 143 c 2
 380 299 l 1
 390 330 395 352 395 369 c 0
 395 392 378 410 355 410 c 0
 312 410 259 371 216 307 c 0
 180 254 168 226 142 139 c 2
 101 0 l 1
 14 0 l 1
 116 344 l 1
 122 366 125 379 125 388 c 0
 125 410 109 419 68 419 c 2
 44 419 l 1
 48 455 l 1
 229 470 l 1
EndSplineSet
KernsSLIF: 121 -40 0 0 119 -17 0 0 118 -21 0 0 39 -19 0 0 112 -26 0 0 84 -61 0 0
EndChar
StartChar: o
Encoding: 111 111 80
Width: 500
Flags: W
HStem: -15 38<168 198> 432 38<260 278>
VStem: 5 90<128 172> 355 95<281 309>
Fore
273 470 m 0
 370 470 450 385 450 281 c 0
 450 207 418 127 365 67 c 0
 317 13 255 -15 183 -15 c 0
 74 -15 5 58 5 172 c 0
 5 255 34 327 89 384 c 0
 143 440 208 470 273 470 c 0
268 432 m 0
 230 432 198 414 170 378 c 0
 129 323 95 211 95 128 c 0
 95 60 126 23 184 23 c 0
 237 23 274 53 308 122 c 0
 335 177 355 257 355 309 c 0
 355 386 323 432 268 432 c 0
EndSplineSet
KernsSLIF: 121 3 0 0 120 -9 0 0 119 -17 0 0 118 -19 0 0 116 -15 0 0 39 15 0 0 84 -48 0 0
EndChar
StartChar: p
Encoding: 112 112 81
Width: 574
Flags: W
HStem: -202 36<106 139> -15 50<223 252> 417 53<337 368>
VStem: 412 94<305 331>
DStem: 120 344 127 73 -8 -90 78 -90
Fore
234 470 m 1
 219 385 l 1
 264 440 317 470 368 470 c 0
 407 470 447 450 473 418 c 0
 496 389 506 356 506 307 c 0
 506 225 477 142 426 78 c 0
 378 16 316 -15 246 -15 c 0
 180 -15 154 4 127 73 c 1
 78 -90 l 1
 71 -115 67 -132 67 -140 c 0
 67 -160 83 -166 131 -166 c 2
 143 -166 l 1
 139 -202 l 1
 -101 -202 l 1
 -97 -166 l 1
 -29 -163 -28 -162 -8 -90 c 1
 120 344 l 1
 126 363 129 378 129 388 c 0
 129 410 113 419 72 419 c 2
 48 419 l 1
 52 455 l 1
 234 470 l 1
337 417 m 0
 297 417 255 389 222 339 c 0
 184 281 153 185 153 127 c 0
 153 74 188 35 237 35 c 0
 290 35 330 69 365 144 c 0
 395 206 412 274 412 329 c 0
 412 382 382 417 337 417 c 0
EndSplineSet
KernsSLIF: 121 -4 0 0 116 -21 0 0
EndChar
StartChar: q
Encoding: 113 113 82
Width: 556
Flags: W
HStem: -202 36<367 390> -14 48<151 173> 431 39<269 289>
VStem: 0 95<133 155>
DStem: 289 55 499 470 246 -90 333 -90
Fore
499 470 m 1
 333 -90 l 2
 327 -111 322 -132 322 -140 c 0
 322 -160 338 -166 386 -166 c 2
 394 -166 l 1
 390 -202 l 1
 144 -202 l 1
 148 -166 l 1
 225 -164 226 -163 246 -90 c 1
 289 55 l 1
 244 7 202 -14 151 -14 c 0
 112 -14 67 3 42 29 c 1
 16 54 0 99 0 145 c 0
 0 314 130 470 271 470 c 0
 323 470 366 446 399 401 c 1
 460 470 l 1
 499 470 l 1
276 431 m 0
 228 431 178 390 141 319 c 0
 114 268 95 192 95 138 c 0
 95 76 127 34 173 34 c 0
 226 34 277 77 312 153 c 0
 336 205 356 287 356 336 c 0
 356 392 323 431 276 431 c 0
EndSplineSet
KernsSLIF: 117 -23 0 0 99 -26 0 0
EndChar
StartChar: r
Encoding: 114 114 83
Width: 444
Flags: W
HStem: 0 21G<9 96> 332 138<354 374>
VStem: 327 106<383 396>
DStem: 111 344 143 158 9 0 96 0
Fore
224 470 m 1
 201 354 l 1
 254 436 298 470 354 470 c 0
 400 470 433 439 433 396 c 0
 433 359 408 332 374 332 c 0
 355 332 339 340 331 354 c 0
 327 360 327 363 327 386 c 0
 327 401 321 409 309 409 c 0
 263 409 180 283 143 158 c 2
 96 0 l 1
 9 0 l 1
 111 344 l 1
 116 362 121 384 121 391 c 0
 121 410 103 419 63 419 c 2
 39 419 l 1
 43 455 l 1
 224 470 l 1
EndSplineSet
KernsSLIF: 122 2 0 0 121 10 0 0 120 2 0 0 119 1 0 0 118 2 0 0 117 -1 0 0 116 9 0 0 59 -39 0 0 115 -14 0 0 114 1 0 0 39 36 0 0 113 -15 0 0 46 -109 0 0 112 -3 0 0 249 -8 0 0 353 -10 0 0 250 -6 0 0 351 -10 0 0 354 -10 0 0 352 -10 0 0 111 -10 0 0 110 -3 0 0 109 -3 0 0 108 -28 0 0 107 -30 0 0 106 -14 0 0 105 4 0 0 45 -75 0 0 104 -33 0 0 103 -15 0 0 102 5 0 0 336 -8 0 0 337 -8 0 0 335 -8 0 0 101 -8 0 0 100 -15 0 0 44 -108 0 0 58 -36 0 0 332 -9 0 0 99 -11 0 0 328 -10 0 0 324 -10 0 0 241 -11 0 0 322 -10 0 0 325 -10 0 0 323 -10 0 0 97 -10 0 0
EndChar
StartChar: s
Encoding: 115 115 84
Width: 444
Flags: W
HStem: -15 38<158 176> 305 165<244 335> 432 38<222 256>
VStem: -1 109<98 115> 63 74<319 352> 281 75<111 139> 283 109<351 366>
Fore
244 470 m 0xcc
 330 470 392 427 392 366 c 0
 392 330 369 305 335 305 c 0xca
 305 305 283 324 283 351 c 0
 283 366 285 371 299 391 c 0
 302 396 304 401 304 405 c 0
 304 421 277 432 239 432 c 0
 181 432 137 398 137 352 c 0xaa
 137 313 154 297 219 274 c 0
 274 254 284 249 306 235 c 0
 338 213 356 178 356 139 c 0
 356 48 277 -15 162 -15 c 0
 62 -15 -1 28 -1 98 c 0
 -1 137 24 165 57 165 c 0
 86 165 108 143 108 115 c 0xb4
 108 97 105 92 87 72 c 1
 83 69 80 62 80 57 c 0
 80 37 116 23 167 23 c 0
 236 23 281 58 281 111 c 0
 281 145 267 160 210 183 c 0
 169 199 148 209 132 217 c 0
 88 240 63 277 63 319 c 0
 63 406 139 470 244 470 c 0xcc
EndSplineSet
KernsSLIF: 116 -14 0 0 39 19 0 0
EndChar
StartChar: t
Encoding: 116 116 85
Width: 352
Flags: W
HStem: -15 53<97 131> 408 47<38 119 220 315>
VStem: 25 83<59 68>
DStem: 119 408 206 408 44 156 111 89 182 621 269 621 133 455 220 455
Fore
269 621 m 1
 220 455 l 1
 329 455 l 1
 315 408 l 1
 206 408 l 1
 111 89 l 1
 109 81 108 74 108 66 c 0
 108 49 117 38 131 38 c 0
 164 38 193 66 255 160 c 1
 285 140 l 1
 259 98 249 82 235 63 c 0
 200 16 144 -15 97 -15 c 0
 57 -15 25 19 25 61 c 0
 25 83 30 106 44 156 c 1
 119 408 l 1
 25 408 l 1
 39 455 l 1
 133 455 l 1
 182 621 l 1
 269 621 l 1
EndSplineSet
KernsSLIF: 59 -37 0 0 39 4 0 0 351 -9 0 0 352 -9 0 0 111 -9 0 0 104 -24 0 0 335 -3 0 0 101 -3 0 0 58 -40 0 0 328 -6 0 0 241 -1 0 0 322 -6 0 0 323 -6 0 0 97 -6 0 0 83 -11 0 0
EndChar
StartChar: u
Encoding: 117 117 86
Width: 611
Flags: W
HStem: -14 56<137 171> 435 20G<422 509>
VStem: 42 86<76 98> 311 87<51 66>
DStem: 113 344 237 470 73 209 139 142 422 455 509 455 375 295 410 123
Fore
509 455 m 1
 410 123 l 1
 402 94 398 75 398 64 c 0
 398 51 407 40 417 40 c 0
 437 40 477 81 526 153 c 1
 556 135 l 1
 485 25 436 -15 375 -15 c 0
 338 -15 311 13 311 51 c 0
 311 70 313 84 323 119 c 1
 264 27 207 -14 137 -14 c 0
 81 -14 42 23 42 78 c 0
 42 109 42 109 73 209 c 1
 113 344 l 1
 118 362 121 378 121 387 c 0
 121 410 106 419 65 419 c 2
 41 419 l 1
 44 455 l 1
 237 470 l 1
 139 142 l 2
 131 115 128 97 128 85 c 0
 128 61 147 42 171 42 c 0
 242 42 334 156 375 295 c 2
 422 455 l 1
 509 455 l 1
EndSplineSet
KernsSLIF: 39 -12 0 0
EndChar
StartChar: v
Encoding: 118 118 87
Width: 519
Flags: W
HStem: -16 53<172 196> 450 20G<370.5 400.5>
VStem: 45 85<115 129> 338 107<391 420>
DStem: 98 344 222 470 64 229 154 239
Fore
222 470 m 1
 154 239 l 2
 136 179 130 147 130 115 c 0
 130 71 159 37 196 37 c 0
 248 37 304 87 343 168 c 0
 369 221 387 283 387 317 c 0
 387 339 383 347 359 374 c 0
 344 391 338 404 338 420 c 0
 338 447 358 470 383 470 c 0
 418 470 445 435 445 391 c 0
 445 313 408 195 358 114 c 0
 304 28 242 -16 172 -16 c 0
 100 -16 45 41 45 115 c 0
 45 146 52 188 64 229 c 2
 98 344 l 1
 104 362 108 383 108 390 c 0
 108 410 90 419 51 419 c 2
 34 419 l 1
 37 455 l 1
 222 470 l 1
EndSplineSet
KernsSLIF: 59 -65 0 0 115 -31 0 0 46 -44 0 0 249 -19 0 0 353 -23 0 0 351 -23 0 0 352 -23 0 0 111 -23 0 0 108 -33 0 0 45 -9 0 0 103 -31 0 0 336 -19 0 0 337 -19 0 0 335 -19 0 0 101 -19 0 0 44 -43 0 0 58 -67 0 0 99 -23 0 0 327 -20 0 0 328 -20 0 0 324 -20 0 0 241 -28 0 0 322 -20 0 0 325 -20 0 0 323 -20 0 0 97 -20 0 0
EndChar
StartChar: w
Encoding: 119 119 88
Width: 778
Flags: W
HStem: -15 53<139 170 439 465> 435 20G<411 498>
VStem: 32 86<80 98> 331 79<93 115> 600 108<391 420>
DStem: 101 344 225 470 49 167 138 177 411 455 498 455 361 288 433 239
Fore
225 470 m 1
 138 177 l 2
 118 110 118 108 118 86 c 0
 118 59 141 38 170 38 c 0
 204 38 238 62 274 113 c 0
 314 168 343 227 361 288 c 2
 411 455 l 1
 498 455 l 1
 433 239 l 1
 417 183 410 145 410 109 c 0
 410 65 431 38 465 38 c 0
 512 38 559 82 604 166 c 0
 630 216 649 280 649 318 c 0
 649 339 645 347 621 374 c 0
 605 392 600 403 600 420 c 0
 600 448 620 470 646 470 c 0
 681 470 708 435 708 391 c 0
 708 309 667 186 613 102 c 0
 560 21 507 -15 439 -15 c 0
 373 -15 331 27 331 93 c 0
 331 104 332 118 333 134 c 1
 297 80 282 62 257 37 c 0
 224 3 182 -15 139 -15 c 0
 74 -15 32 23 32 82 c 0
 32 102 37 128 49 167 c 1
 101 344 l 2
 106 360 109 378 109 387 c 0
 109 410 94 419 53 419 c 2
 36 419 l 1
 40 455 l 1
 225 470 l 1
EndSplineSet
KernsSLIF: 59 -63 0 0 115 -29 0 0 46 -41 0 0 249 -17 0 0 353 -21 0 0 351 -21 0 0 352 -21 0 0 111 -21 0 0 108 -31 0 0 45 -8 0 0 103 -29 0 0 336 -17 0 0 337 -17 0 0 335 -17 0 0 101 -17 0 0 44 -40 0 0 58 -65 0 0 99 -21 0 0 327 -18 0 0 328 -18 0 0 324 -18 0 0 241 -26 0 0 322 -18 0 0 325 -18 0 0 323 -18 0 0 97 -18 0 0
EndChar
StartChar: x
Encoding: 120 120 89
Width: 500
Flags: W
HStem: -15 61<308 333> -15 120<18 33> 355 115<409 425>
DStem: 190 205 201 155 145 125 171 101 281 348 307 326 252 296 263 245
Fore
201 155 m 1xa0
 171 101 l 2
 128 25 81 -15 33 -15 c 0
 -7 -15 -33 10 -33 47 c 0
 -33 81 -12 105 18 105 c 0x60
 43 105 56 93 61 66 c 0
 63 53 69 46 76 46 c 0
 92 46 117 74 145 125 c 2
 190 205 l 1
 178 263 l 2
 158 362 158 362 149 378 c 0
 145 386 135 393 128 393 c 0
 111 393 97 378 46 305 c 1
 17 326 l 1
 62 391 76 411 92 429 c 0
 117 457 139 470 161 470 c 0
 202 470 224 437 241 351 c 2
 252 296 l 1
 281 348 l 2
 315 411 316 411 336 433 c 0
 357 456 387 470 414 470 c 0
 447 470 471 444 471 409 c 0
 471 376 452 355 421 355 c 0
 403 355 396 360 387 380 c 0
 383 389 378 393 370 393 c 0
 352 393 331 371 307 326 c 2
 263 245 l 1
 282 150 l 1
 300 68 310 46 333 46 c 0
 351 46 368 61 397 100 c 0
 412 121 415 126 425 142 c 1
 456 125 l 1
 430 79 427 74 409 53 c 0
 363 -3 345 -15 308 -15 c 0
 259 -15 233 13 216 88 c 2
 201 155 l 1xa0
EndSplineSet
KernsSLIF: 113 3 0 0 335 5 0 0 101 5 0 0 97 3 0 0
EndChar
StartChar: y
Encoding: 121 121 90
Width: 500
Flags: W
HStem: -202 42<13 38> 389 81<92 126>
VStem: -79 98<-144 -121> 360 94<416 422>
Fore
220 315 m 2
 264 104 l 1
 329 207 368 301 368 351 c 0
 368 366 368 369 362 403 c 0
 361 409 360 415 360 420 c 0
 360 447 382 470 409 470 c 0
 436 470 454 449 454 418 c 0
 454 385 442 354 385 244 c 0
 310 98 231 -34 184 -94 c 0
 125 -168 71 -202 13 -202 c 0
 -39 -202 -79 -169 -79 -128 c 0
 -79 -98 -56 -74 -27 -74 c 0
 -8 -74 9 -86 16 -105 c 0
 19 -113 19 -113 19 -144 c 0
 19 -154 26 -160 38 -160 c 0
 65 -160 104 -132 144 -83 c 0
 161 -61 168 -51 201 1 c 1
 179 127 161 211 130 325 c 0
 119 368 106 389 92 389 c 0
 75 389 64 373 27 293 c 1
 -4 307 l 1
 37 415 82 470 126 470 c 0
 169 470 197 424 220 315 c 2
EndSplineSet
KernsSLIF: 59 -57 0 0 115 -31 0 0 46 -49 0 0 249 -20 0 0 353 -24 0 0 351 -24 0 0 352 -24 0 0 111 -24 0 0 108 -33 0 0 45 -15 0 0 103 -31 0 0 336 -20 0 0 337 -20 0 0 335 -20 0 0 101 -20 0 0 44 -48 0 0 58 -53 0 0 99 -24 0 0 327 -21 0 0 328 -21 0 0 324 -21 0 0 241 -28 0 0 322 -21 0 0 325 -21 0 0 323 -21 0 0 97 -21 0 0
EndChar
StartChar: z
Encoding: 122 122 91
Width: 463
Flags: W
HStem: -15 76<226 267> 394 76<137 187>
VStem: -33 54<9 31>
Fore
353 151 m 1
 388 139 l 1
 357 45 294 -15 226 -15 c 0
 191 -15 155 -5 107 17 c 0
 42 48 42 48 30 48 c 0
 22 48 21 47 21 31 c 0
 21 2 10 -15 -9 -15 c 0
 -24 -15 -33 -6 -33 9 c 0
 -33 39 -7 86 39 137 c 0
 96 199 119 217 266 308 c 0
 304 332 315 342 340 368 c 1
 315 362 303 360 289 360 c 0
 259 360 252 361 197 380 c 0
 171 388 147 394 137 394 c 0
 112 394 86 369 55 314 c 1
 22 331 l 1
 70 425 123 470 187 470 c 0
 209 470 226 464 271 442 c 0
 301 427 326 419 343 419 c 0
 357 419 363 424 369 445 c 0
 374 462 382 470 393 470 c 0
 407 470 417 460 417 447 c 0
 417 421 385 366 338 313 c 0
 289 257 248 225 171 181 c 0
 92 135 73 121 50 92 c 1
 74 99 86 101 99 101 c 0
 127 101 139 98 200 77 c 0
 228 67 253 61 267 61 c 0
 300 61 326 89 353 151 c 1
EndSplineSet
EndChar
StartChar: braceleft
Encoding: 123 123 92
Width: 333
Flags: W
HStem: 702 20G<371 381>
VStem: 52 67<-29 -11> 105 71<227 244>
DStem: 92 162 163 175 69 74 134 64 202 572 267 560 170 454 232 432
Fore
56 293 m 1xa0
 63 321 l 1
 128 340 150 367 170 454 c 1
 202 572 l 2
 220 638 239 674 270 695 c 0
 293 711 335 722 371 722 c 2
 381 722 l 1
 373 693 l 1
 318 687 292 655 267 560 c 1
 232 432 l 1
 210 354 184 323 124 307 c 1
 160 293 176 273 176 242 c 0xa0
 176 228 173 210 163 175 c 1
 134 64 l 1
 124 28 119 0 119 -20 c 0
 119 -55 137 -77 169 -79 c 1
 161 -108 l 1
 140 -108 l 2
 85 -108 52 -76 52 -21 c 0xc0
 52 4 56 28 69 74 c 1
 92 162 l 1
 104 206 105 212 105 231 c 0
 105 261 89 282 56 293 c 1xa0
EndSplineSet
EndChar
StartChar: bar
Encoding: 124 124 93
Width: 606
Flags: W
HStem: 0 21G<269 337> 702 20G<269 337>
VStem: 269 68<0 722>
Fore
337 722 m 1
 337 0 l 1
 269 0 l 1
 269 722 l 1
 337 722 l 1
EndSplineSet
EndChar
StartChar: braceright
Encoding: 125 125 94
Width: 333
Flags: W
HStem: 702 20G<121 142>
VStem: 106 71<371 385> 163 68<627 645>
DStem: 50 182 111 160 15 54 80 42 148 550 213 540 118 439 190 452
Fore
227 321 m 1xc0
 219 293 l 1
 155 275 132 247 111 160 c 1
 80 42 l 1
 62 -24 42 -60 11 -81 c 0
 -11 -97 -53 -108 -90 -108 c 2
 -98 -108 l 1
 -90 -79 l 1
 -36 -73 -10 -41 15 54 c 1
 50 182 l 2
 71 260 98 291 157 307 c 1
 122 321 106 341 106 372 c 0xc0
 106 387 109 405 118 439 c 2
 148 550 l 2
 158 586 163 615 163 635 c 0
 163 669 144 691 113 693 c 1
 121 722 l 1
 142 722 l 2
 195 722 231 689 231 639 c 0xa0
 231 617 225 585 213 540 c 2
 190 452 l 1
 178 408 177 402 177 383 c 0
 177 353 195 330 227 321 c 1xc0
EndSplineSet
EndChar
StartChar: asciitilde
Encoding: 126 126 95
Width: 606
Flags: W
Fore
94 182 m 1
 41 220 l 1
 78 285 133 327 181 327 c 0
 206 327 228 320 280 295 c 2
 326 273 l 2
 379 247 386 245 406 245 c 0
 434 245 465 269 492 310 c 1
 545 272 l 1
 508 207 453 165 405 165 c 0
 380 165 356 173 306 196 c 2
 260 219 l 2
 202 246 200 247 180 247 c 0
 152 247 121 223 94 182 c 1
EndSplineSet
EndChar
StartChar: exclamdown
Encoding: 161 161 96
Width: 333
Flags: W
HStem: 425 124<216 221>
Fore
169 352 m 1
 205 342 l 1
 156 158 135 40 126 -92 c 0
 121 -162 93 -203 53 -203 c 0
 17 -203 -7 -179 -7 -145 c 0
 -7 -116 -6 -113 43 -9 c 0
 91 96 124 190 169 352 c 1
219 549 m 0
 252 549 280 521 280 487 c 0
 280 453 252 425 218 425 c 0
 184 425 156 453 156 487 c 0
 156 522 184 549 219 549 c 0
EndSplineSet
EndChar
StartChar: cent
Encoding: 162 162 97
Width: 556
Flags: W
HStem: 432 37<316 344>
VStem: 61 95<152 169> 393 64<363 400>
DStem: 182 -8 222 -14 125 -135 168 -135 344 357 361 298 205 46 244 35 443 581 486 581 388 457 422 436
Fore
222 -14 m 1
 168 -135 l 1
 125 -135 l 1
 182 -8 l 1
 107 14 61 81 61 167 c 0
 61 328 188 469 332 469 c 0
 351 469 366 466 388 457 c 1
 443 581 l 1
 486 581 l 1
 422 436 l 1
 446 415 457 392 457 363 c 0
 457 320 429 289 391 289 c 0
 378 289 370 291 361 298 c 1
 244 35 l 1
 308 42 340 63 397 135 c 1
 428 113 l 1
 370 27 297 -18 222 -14 c 1
205 46 m 1
 344 357 l 1
 352 376 360 383 378 387 c 0
 391 390 393 391 393 400 c 0
 393 417 362 432 328 432 c 0
 278 432 237 398 201 326 c 0
 171 266 156 210 156 156 c 0
 156 103 173 66 205 46 c 1
EndSplineSet
EndChar
StartChar: sterling
Encoding: 163 163 98
Width: 556
Flags: W
HStem: -15 37<71 89> -15 84<332 352> 109 41<71 89> 325 43<54 176 273 405> 666 38<398 420>
VStem: -8 39<55.0281 75> 170 103<400 450> 418 127<550 585>
Fore
410 368 m 1xbf
 405 325 l 1
 273 325 l 1
 274 256 256 177 222 105 c 1
 270 80 309 69 350 69 c 0
 409 69 450 93 487 150 c 1
 522 136 l 1
 480 32 421 -15 334 -15 c 0x7f
 283 -15 250 -2 186 45 c 1
 145 0 119 -15 76 -15 c 0
 27 -15 -8 19 -8 65 c 0
 -8 112 30 150 79 150 c 0
 104 150 133 143 169 129 c 1
 180 164 184 185 184 222 c 0
 184 252 182 275 176 325 c 1
 50 325 l 1
 55 368 l 1
 172 368 l 1
 170 403 170 410 170 424 c 0
 170 501 187 563 220 610 c 0
 262 669 329 704 400 704 c 0
 484 704 545 654 545 585 c 0
 545 533 516 497 474 497 c 0
 441 497 418 519 418 550 c 0
 418 571 427 588 448 603 c 0
 468 618 470 620 470 630 c 0
 470 652 446 666 410 666 c 0
 351 666 304 623 286 553 c 0
 278 523 273 469 273 414 c 0
 273 404 273 388 274 368 c 1
 410 368 l 1xbf
149 75 m 1
 119 100 100 109 76 109 c 0
 51 109 31 90 31 65 c 0
 31 39 50 22 78 22 c 0xbf
 109 22 132 39 149 75 c 1
EndSplineSet
EndChar
StartChar: fraction
Encoding: 164 8260 99
Width: 167
Flags: W
HStem: 0 21G<-104 -50> 688 20G<279 333>
DStem: 279 708 333 708 -104 0 -50 0
Fore
279 708 m 1
 333 708 l 1
 -50 0 l 1
 -104 0 l 1
 279 708 l 1
EndSplineSet
EndChar
StartChar: yen
Encoding: 165 165 100
Width: 556
Flags: W
HStem: 0 47<46 359> 0 245<45 359> 202 43<44 188 300 441> 325 43<77 219 353 468> 657 47<45 57.4822 45 296 391 409>
DStem: 124 588 231 594 204 368 307 379 435 564 479 545 307 379 353 368
Fore
353 368 m 1x58
 473 368 l 1
 468 325 l 1
 322 325 l 1
 321 323 l 1
 300 245 l 1x58
 446 245 l 1
 441 202 l 1
 289 202 l 1
 267 123 l 1
 258 82 258 82 258 74 c 0
 258 52 273 47 337 47 c 2
 364 47 l 1
 359 0 l 1xb8
 42 0 l 1x58
 47 47 l 1
 60 47 l 2
 108 47 133 51 143 61 c 0
 152 69 152 70 166 123 c 1
 188 202 l 1
 40 202 l 1xb8
 45 245 l 1
 199 245 l 1
 220 323 l 1
 219 325 l 1
 73 325 l 1
 78 368 l 1
 204 368 l 1
 124 588 l 1
 108 635 82 657 44 657 c 2
 40 657 l 1
 45 704 l 1
 301 704 l 1
 296 657 l 1
 282 657 l 2
 237 657 220 650 220 633 c 0
 220 624 220 623 231 594 c 1
 307 379 l 1
 435 564 l 1
 456 593 461 604 461 619 c 0
 461 642 436 657 396 657 c 2
 387 657 l 1
 392 704 l 1
 623 704 l 1
 618 657 l 1
 557 644 541 631 479 545 c 2
 353 368 l 1x58
EndSplineSet
EndChar
StartChar: florin
Encoding: 166 402 101
Width: 556
Flags: W
HStem: -202 40<34 53> 390 43<113 229 327 458> 697 39<451 471>
VStem: -57 110<-126 -108> 453 110<639 660>
DStem: 229 390 320 390 176 105 272 137
Fore
463 433 m 1
 458 390 l 1
 320 390 l 1
 272 137 l 2
 247 5 228 -53 190 -109 c 0
 148 -170 94 -202 34 -202 c 0
 -20 -202 -57 -171 -57 -126 c 0
 -57 -90 -31 -63 5 -63 c 0
 33 -63 53 -82 53 -108 c 0
 53 -122 50 -127 36 -143 c 0
 33 -146 32 -149 32 -152 c 0
 32 -158 38 -162 46 -162 c 0
 76 -162 107 -137 124 -100 c 0
 143 -58 152 -25 176 105 c 2
 229 390 l 1
 109 390 l 1
 114 433 l 1
 236 433 l 1
 246 476 l 1
 260 544 291 619 321 658 c 0
 359 708 412 736 471 736 c 0
 527 736 563 706 563 660 c 0
 563 623 538 596 502 596 c 0
 474 596 453 614 453 639 c 0
 453 652 456 659 468 675 c 0
 472 681 474 684 474 687 c 0
 474 693 467 697 458 697 c 0
 429 697 399 672 381 633 c 0
 364 597 354 560 336 475 c 2
 327 433 l 1
 463 433 l 1
EndSplineSet
EndChar
StartChar: section
Encoding: 167 167 102
Width: 500
Flags: W
HStem: -150 32<132 149> 124 33<277 301> 430 33<169 186> 705 32<320 342>
VStem: -11 113<-35 -21> 31 77<331 358> 163 81<593 620> 220 84<-33 -7> 360 76<230 258> 366 114<609 622>
Fore
325 463 m 2xf640
 382 388 l 2
 419 340 436 299 436 258 c 0
 436 182 377 124 301 124 c 0
 285 124 274 126 253 131 c 1
 292 66 304 33 304 -7 c 0
 304 -90 236 -150 143 -150 c 0
 55 -150 -11 -99 -11 -32 c 0
 -11 5 14 31 47 31 c 0
 79 31 102 9 102 -23 c 0
 102 -41 96 -54 80 -69 c 0
 72 -76 71 -79 71 -84 c 0
 71 -102 104 -118 138 -118 c 0
 187 -118 220 -84 220 -33 c 0xf980
 220 10 205 40 147 117 c 1
 86 195 l 2
 47 246 31 286 31 331 c 0
 31 406 91 463 169 463 c 0
 186 463 197 461 218 454 c 1
 176 515 163 548 163 593 c 0
 163 681 228 737 329 737 c 0
 416 737 480 687 480 620 c 0
 480 583 457 556 423 556 c 0
 391 556 366 580 366 611 c 0
 366 633 372 643 397 664 c 0
 401 667 403 670 403 673 c 0
 403 690 370 705 334 705 c 0
 279 705 244 672 244 620 c 0
 244 581 263 543 325 463 c 2xf640
134 290 m 1
 182 223 l 2
 221 170 239 157 277 157 c 0
 322 157 360 190 360 230 c 0
 360 256 347 288 322 320 c 1
 280 377 l 2
 255 410 219 430 184 430 c 0
 139 430 108 400 108 358 c 0xf480
 108 338 117 312 134 290 c 1
EndSplineSet
EndChar
StartChar: currency
Encoding: 168 164 103
Width: 556
Flags: W
HStem: 94 82<264 283> 515 82<264 284>
VStem: 26 83<332 351> 447 82<332 352>
DStem: 479 598 530 547 425 545 477 494
Fore
425 545 m 1
 479 598 l 1
 530 547 l 1
 477 494 l 1
 511 450 529 397 529 342 c 0
 529 289 512 239 479 195 c 1
 530 145 l 1
 479 93 l 1
 428 144 l 1
 384 111 333 94 281 94 c 0
 228 94 174 112 130 146 c 1
 77 93 l 1
 25 145 l 1
 78 198 l 1
 44 243 26 295 26 349 c 0
 26 401 44 455 76 496 c 1
 25 547 l 1
 77 598 l 1
 127 547 l 1
 171 580 221 597 274 597 c 0
 328 597 380 579 425 545 c 1
278 515 m 0
 185 515 109 439 109 346 c 0
 109 253 185 176 276 176 c 0
 371 176 447 251 447 346 c 0
 447 439 371 515 278 515 c 0
EndSplineSet
EndChar
StartChar: quotesingle
Encoding: 169 39 104
Width: 278
Flags: W
HStem: 712 20G<204 227.5>
Fore
114 520 m 1
 172 695 l 1
 180 721 193 732 215 732 c 0
 240 732 262 712 262 691 c 0
 262 681 257 669 248 657 c 2
 134 510 l 1
 114 520 l 1
EndSplineSet
EndChar
StartChar: quotedblleft
Encoding: 170 8220 105
Width: 389
Flags: W
HStem: 461 21G<113 151.5 291 329.5>
VStem: 63 137<523 541> 241 137<523 541>
Fore
419 737 m 1
 432 706 l 1
 358 672 314 627 305 576 c 1
 322 576 l 2
 356 576 378 555 378 523 c 0
 378 488 348 461 311 461 c 0
 271 461 241 495 241 541 c 0
 241 618 311 695 419 737 c 1
241 737 m 1
 254 706 l 1
 180 672 136 626 127 576 c 1
 144 576 l 2
 178 576 200 555 200 523 c 0
 200 488 170 461 133 461 c 0
 93 461 63 495 63 541 c 0
 63 618 133 695 241 737 c 1
EndSplineSet
KernsSLIF: 89 44 1 0 87 35 1 0 86 43 1 0 84 33 1 0 262 -63 1 0 256 -63 1 0 257 -63 1 0 225 -51 1 0 65 -63 1 0
EndChar
StartChar: guillemotleft
Encoding: 171 171 106
Width: 426
Flags: W
Fore
263 233 m 1
 324 114 l 1
 325 110 326 107 326 102 c 0
 326 92 319 85 310 85 c 0
 305 85 300 89 292 100 c 2
 183 243 l 1
 369 387 l 2
 383 398 389 402 393 402 c 0
 398 402 402 396 402 389 c 0
 402 380 402 380 341 317 c 1
 263 233 l 1
65 233 m 1
 126 114 l 1
 127 110 128 107 128 102 c 0
 128 92 121 85 112 85 c 0
 107 85 102 89 94 100 c 2
 52 157 l 1
 -15 243 l 1
 62 302 l 1
 123 349 l 2
 142 364 159 377 171 387 c 0
 185 398 191 402 195 402 c 0
 200 402 204 396 204 389 c 0
 204 380 204 380 143 317 c 1
 65 233 l 1
EndSplineSet
EndChar
StartChar: guilsinglleft
Encoding: 172 8249 107
Width: 333
Flags: W
Fore
122 233 m 1
 183 114 l 1
 184 110 185 107 185 102 c 0
 185 92 178 85 169 85 c 0
 164 85 159 89 151 100 c 2
 109 157 l 1
 63 216 l 2
 59 221 55 228 42 243 c 1
 59 256 74 268 88 278 c 2
 228 387 l 2
 242 398 248 402 252 402 c 0
 257 402 261 396 261 389 c 0
 261 380 261 380 200 317 c 1
 122 233 l 1
EndSplineSet
EndChar
StartChar: guilsinglright
Encoding: 173 8250 108
Width: 333
Flags: W
Fore
179 254 m 1
 118 373 l 1
 117 376 116 380 116 385 c 0
 116 395 123 402 132 402 c 0
 137 402 142 398 150 387 c 0
 159 374 167 364 192 330 c 1
 259 243 l 1
 73 100 l 2
 59 89 53 85 49 85 c 0
 44 85 40 91 40 98 c 0
 40 107 40 107 100 170 c 2
 179 254 l 1
EndSplineSet
KernsSLIF: 89 -104 1 0 87 -77 1 0 86 -86 1 0 84 -105 1 0 262 -38 1 0 256 -38 1 0 257 -38 1 0 225 -25 1 0 65 -38 1 0
EndChar
StartChar: fi
Encoding: 174 64257 109
Width: 611
Flags: W
HStem: -14 50<377 412> 408 47<52 129 227 357> 702 34<393 421>
VStem: 309 86<49 59> 430 109<638 650>
DStem: 129 408 216 408 88 234 154 161 386 333 513 469 332 149 407 113
Fore
227 455 m 1
 317 455 l 2
 381 455 423 458 513 469 c 1
 407 113 l 1
 398 80 395 68 395 57 c 0
 395 45 402 36 412 36 c 0
 439 36 486 83 534 158 c 1
 564 140 l 1
 505 40 440 -14 377 -14 c 0
 339 -14 309 13 309 49 c 0
 309 71 311 81 332 149 c 1
 386 333 l 1
 398 376 398 376 398 385 c 0
 398 402 384 408 342 408 c 2
 216 408 l 1
 154 161 l 1
 133 76 73 -123 50 -184 c 1
 -60 -202 l 1
 -6 -88 48 71 88 234 c 1
 129 408 l 1
 40 408 l 1
 53 455 l 1
 140 455 l 1
 176 575 183 589 217 636 c 0
 266 703 331 736 415 736 c 0
 488 736 539 701 539 650 c 0
 539 618 515 593 483 593 c 0
 453 593 430 613 430 638 c 0
 430 648 432 653 439 666 c 0
 444 675 446 680 446 684 c 0
 446 695 433 702 410 702 c 0
 354 702 313 674 283 615 c 0
 262 575 251 543 227 455 c 1
EndSplineSet
Ligature: 0 0 'liga' f i
EndChar
StartChar: fl
Encoding: 175 64258 110
Width: 611
Flags: W
HStem: -15 51<381 414> 408 47<52 129 227 357> 701 35<403 437>
VStem: 316 80<53 58>
DStem: 129 408 216 408 88 234 154 161 467 601 594 736 343 183 409 113
Fore
485 729 m 1
 594 736 l 1
 409 113 l 2
 396 69 396 68 396 56 c 0
 396 45 403 36 414 36 c 0
 442 36 489 83 537 158 c 1
 568 140 l 1
 508 38 444 -15 381 -15 c 0
 341 -15 316 12 316 55 c 0
 316 85 320 106 343 183 c 2
 467 601 l 1
 452 609 444 623 444 638 c 0
 444 647 446 655 453 666 c 0
 459 677 460 680 460 685 c 0
 460 696 446 701 417 701 c 0
 355 701 314 674 283 615 c 0
 263 575 251 542 227 455 c 1
 370 455 l 1
 357 408 l 1
 216 408 l 1
 154 161 l 1
 133 76 73 -123 50 -184 c 1
 -60 -202 l 1
 -5 -85 48 72 88 234 c 1
 129 408 l 1
 40 408 l 1
 53 455 l 1
 140 455 l 1
 177 576 182 588 218 636 c 0
 269 706 330 736 420 736 c 0
 446 736 462 734 485 729 c 1
EndSplineSet
Ligature: 0 0 'liga' f l
EndChar
StartChar: endash
Encoding: 177 8211 111
Width: 500
Flags: W
HStem: 206 61<-3 502>
Fore
-2 267 m 1
 518 267 l 1
 502 206 l 1
 -18 206 l 1
 -2 267 l 1
EndSplineSet
EndChar
StartChar: dagger
Encoding: 178 8224 112
Width: 500
Flags: W
HStem: 436 107<119 131 450.998 466> 476 261<299 342>
VStem: 286 110<671 686>
DStem: 129 -56 158 -65 105 -144 135 -144
Fore
105 -144 m 1x60
 129 -56 l 1
 161 59 177 153 177 221 c 0
 177 238 176 263 173 296 c 1
 217 347 253 414 271 476 c 1x60
 236 476 207 468 158 447 c 0
 138 438 132 436 119 436 c 0
 86 436 64 458 64 490 c 0
 64 521 86 543 119 543 c 0xa0
 132 543 138 541 158 532 c 0
 198 513 246 500 272 501 c 0
 273 501 275 501 278 502 c 1
 289 544 294 577 294 600 c 0
 294 608 294 608 288 648 c 0
 287 657 286 665 286 673 c 0
 286 711 308 737 342 737 c 0x60
 372 737 396 715 396 686 c 0
 396 663 392 655 365 620 c 0
 340 589 322 554 307 502 c 1
 353 504 369 508 424 532 c 0
 445 541 450 543 463 543 c 0
 496 543 518 521 518 490 c 0
 518 458 496 436 463 436 c 0xa0
 450 436 444 438 424 447 c 0
 368 470 348 475 299 476 c 1
 292 447 288 415 288 387 c 0
 288 359 291 335 300 296 c 1
 251 224 201 97 158 -65 c 1
 135 -144 l 1
 105 -144 l 1x60
EndSplineSet
EndChar
StartChar: daggerdbl
Encoding: 179 8225 113
Width: 500
Flags: W
HStem: -144 261<144 186> 50 107<25 35 365 377> 436 107<133 146 473 483> 476 261<312 354>
VStem: 90 110<-94 -78> 298 110<671 686>
Fore
312 296 m 1x1c
 270 247 232 178 214 117 c 1x9c
 247 117 279 126 326 146 c 0
 346 155 352 157 365 157 c 0
 398 157 420 135 420 103 c 0
 420 72 398 50 365 50 c 0x4c
 352 50 346 52 326 61 c 0
 287 80 237 93 213 92 c 0
 212 92 211 92 208 91 c 1
 198 51 192 16 192 -7 c 0
 192 -15 192 -15 198 -55 c 0
 199 -63 200 -72 200 -80 c 0
 200 -118 178 -144 144 -144 c 0x8c
 114 -144 90 -122 90 -93 c 0
 90 -71 94 -62 121 -27 c 0
 147 5 163 38 179 91 c 1
 140 90 116 84 64 61 c 0
 43 52 38 50 25 50 c 0
 -8 50 -30 72 -30 103 c 0
 -30 135 -8 157 25 157 c 0x4c
 38 157 44 155 64 146 c 0
 118 123 140 118 186 117 c 1
 193 143 198 179 198 206 c 0
 198 234 195 258 186 296 c 1
 233 355 266 416 284 476 c 1x9c
 251 476 219 467 172 447 c 0
 152 438 146 436 133 436 c 0
 100 436 78 458 78 490 c 0
 78 521 100 543 133 543 c 0x2c
 146 543 152 541 172 532 c 0
 211 513 260 500 285 501 c 0
 286 501 287 501 290 502 c 1
 301 544 306 576 306 600 c 0
 306 609 306 609 300 648 c 0
 299 657 298 665 298 673 c 0
 298 711 320 737 354 737 c 0x1c
 385 737 408 715 408 686 c 0
 408 663 404 655 377 620 c 0
 351 587 336 557 319 502 c 1
 358 503 382 509 434 532 c 0
 455 541 460 543 473 543 c 0
 505 543 528 521 528 490 c 0
 528 458 506 436 473 436 c 0x2c
 460 436 454 437 434 447 c 1
 379 470 358 475 312 476 c 1
 304 446 300 415 300 388 c 0
 300 359 303 335 312 296 c 1x1c
EndSplineSet
EndChar
StartChar: periodcentered
Encoding: 180 183 114
Width: 278
Flags: W
Fore
139 307 m 0
 173 307 201 279 201 245 c 0
 201 210 173 183 138 183 c 0
 105 183 77 211 77 245 c 0
 77 279 105 307 139 307 c 0
EndSplineSet
EndChar
StartChar: paragraph
Encoding: 182 182 115
Width: 650
Flags: W
HStem: -144 36<90 427> 324 33<263 279> 686 36<359 391 391 512>
VStem: 95 124<416 455>
DStem: 279 324 441 686 187 -21 229 -107 376 686 441 686 288 357 229 -107 512 686 554 599 300 -107 388 -21
Fore
279 324 m 1
 246 324 l 2
 145 324 95 367 95 455 c 0
 95 535 135 624 193 672 c 0
 225 699 264 714 315 720 c 0
 330 722 330 722 391 722 c 2
 645 722 l 1
 642 686 l 1
 602 684 590 681 580 672 c 0
 574 667 571 661 567 646 c 1
 564 638 l 1
 561 625 558 612 554 599 c 1
 388 -21 l 2
 373 -78 373 -78 373 -86 c 0
 373 -101 383 -105 430 -108 c 1
 427 -144 l 1
 88 -144 l 1
 91 -108 l 1
 96 -108 l 2
 126 -108 152 -102 161 -94 c 0
 169 -86 169 -86 187 -21 c 1
 279 324 l 1
288 357 m 1
 376 686 l 1
 309 687 275 654 251 563 c 2
 229 481 l 2
 223 458 219 432 219 416 c 0
 219 379 237 357 268 357 c 2
 288 357 l 1
512 686 m 1
 441 686 l 1
 229 -107 l 1
 300 -107 l 1
 512 686 l 1
EndSplineSet
EndChar
StartChar: bullet
Encoding: 183 8226 116
Width: 606
Flags: W
Fore
283 554 m 0
 376 554 451 479 451 386 c 0
 451 291 376 217 281 217 c 0
 190 217 114 294 114 386 c 0
 114 479 190 554 283 554 c 0
EndSplineSet
EndChar
StartChar: quotesinglbase
Encoding: 184 8218 117
Width: 204
Flags: W
HStem: -6 21G<14 33>
Fore
-66 -167 m 1
 -79 -136 l 1
 -5 -102 39 -56 48 -5 c 1
 41 -6 35 -6 31 -6 c 0
 -3 -6 -25 15 -25 47 c 0
 -25 82 5 109 42 109 c 0
 82 109 112 75 112 29 c 0
 112 -48 42 -125 -66 -167 c 1
EndSplineSet
EndChar
StartChar: quotedblbase
Encoding: 185 8222 118
Width: 389
Flags: W
HStem: -6 21G<14 33 191 210>
VStem: -25 137<29 47> 152 137<29 47>
Fore
-66 -167 m 1
 -79 -136 l 1
 -5 -102 39 -56 48 -5 c 1
 41 -6 35 -6 31 -6 c 0
 -3 -6 -25 15 -25 47 c 0
 -25 82 5 109 42 109 c 0
 82 109 112 75 112 29 c 0
 112 -48 42 -125 -66 -167 c 1
111 -167 m 1
 98 -136 l 1
 172 -102 216 -56 225 -5 c 1
 218 -6 212 -6 208 -6 c 0
 174 -6 152 15 152 47 c 0
 152 82 182 109 219 109 c 0
 259 109 289 75 289 29 c 0
 289 -48 219 -125 111 -167 c 1
EndSplineSet
KernsSLIF: 89 -53 1 0 87 -64 1 0 86 -76 1 0 84 -50 1 0 225 50 1 0 65 37 1 0
EndChar
StartChar: quotedblright
Encoding: 186 8221 119
Width: 389
Flags: W
HStem: 717 20G<140.5 179 318 357>
VStem: 92 137<657 675> 270 137<657 675>
Fore
51 461 m 1
 38 492 l 1
 113 527 156 571 165 623 c 1
 158 622 152 622 148 622 c 0
 114 622 92 643 92 675 c 0
 92 710 122 737 159 737 c 0
 199 737 229 703 229 657 c 0
 229 580 160 504 51 461 c 1
229 461 m 1
 216 492 l 1
 291 527 333 571 343 623 c 1
 336 622 330 622 326 622 c 0
 292 622 270 643 270 675 c 0
 270 710 299 737 337 737 c 0
 377 737 407 703 407 657 c 0
 407 580 337 503 229 461 c 1
EndSplineSet
KernsSLIF: 89 35 1 0 87 25 1 0 86 33 1 0 84 29 1 0 262 -69 1 0 256 -69 1 0 257 -69 1 0 225 -57 1 0 65 -69 1 0
EndChar
StartChar: guillemotright
Encoding: 187 187 120
Width: 426
Flags: W
Fore
122 254 m 1
 61 373 l 1
 60 376 59 380 59 385 c 0
 59 395 66 402 75 402 c 0
 80 402 85 398 93 387 c 2
 202 243 l 1
 16 100 l 2
 2 89 -4 85 -8 85 c 0
 -13 85 -17 91 -17 98 c 0
 -17 107 -17 107 43 170 c 2
 122 254 l 1
320 254 m 1
 259 373 l 1
 258 376 257 380 257 385 c 0
 257 395 264 402 273 402 c 0
 278 402 283 398 291 387 c 2
 333 330 l 1
 369 283 392 254 400 243 c 1
 214 100 l 2
 200 89 194 85 190 85 c 0
 185 85 181 91 181 98 c 0
 181 107 181 107 241 170 c 2
 320 254 l 1
EndSplineSet
KernsSLIF: 89 -80 1 0 87 -53 1 0 86 -61 1 0 84 -81 1 0 262 -14 1 0 256 -14 1 0 257 -14 1 0 225 -1 1 0 65 -14 1 0
EndChar
StartChar: ellipsis
Encoding: 188 8230 121
Width: 1000
Flags: W
HStem: -15 21G<99.5 133.5 432.5 466.5 765.5 799.5>
VStem: 55 124<35.9421 50> 388 124<35.9421 50> 721 124<35.9421 50>
CounterMasks: 1 00
Fore
117 109 m 0
 151 109 179 81 179 47 c 0
 179 12 151 -15 116 -15 c 0
 83 -15 55 13 55 47 c 0
 55 81 83 109 117 109 c 0
450 109 m 0
 484 109 512 81 512 47 c 0
 512 12 484 -15 449 -15 c 0
 416 -15 388 13 388 47 c 0
 388 81 416 109 450 109 c 0
783 109 m 0
 817 109 845 81 845 47 c 0
 845 12 817 -15 782 -15 c 0
 749 -15 721 13 721 47 c 0
 721 81 749 109 783 109 c 0
EndSplineSet
Ligature: 0 1 'liga' period period period
EndChar
StartChar: perthousand
Encoding: 189 8240 122
Width: 1000
Flags: W
HStem: -2 33<441 459 805 823> 312 35<535 551 899 915> 328 33<111 129> 586 29<345 379> 642 35<204 221> 680 20G<511 550>
VStem: -6 76<423 442> 278 31<557 575> 324 76<93 112> 608 31<221 255> 688 76<93 112> 972 31<221 255>
DStem: 451 615 550 700 99 0 149 0
Fore
99 0 m 1xbff0
 451 615 l 1
 417 593 394 586 356 586 c 0
 337 586 326 588 306 595 c 1
 308 583 309 577 309 569 c 0
 309 508 283 443 238 392 c 0
 201 350 158 328 111 328 c 0
 45 328 -6 377 -6 442 c 0
 -6 511 42 598 106 644 c 0
 134 664 172 677 204 677 c 0
 242 677 269 663 291 633 c 1
 314 620 333 615 358 615 c 0
 416 615 459 638 511 700 c 1
 550 700 l 1
 149 0 l 1
 99 0 l 1xbff0
221 642 m 0
 188 642 162 620 129 564 c 0
 97 510 70 445 70 423 c 0
 70 385 90 361 122 361 c 0
 197 361 278 471 278 571 c 0
 278 610 252 642 221 642 c 0
899 347 m 0xdff0
 960 347 1003 302 1003 238 c 0
 1003 178 977 113 932 62 c 0
 895 20 852 -2 805 -2 c 0
 739 -2 688 47 688 112 c 0
 688 181 737 269 800 314 c 0
 830 335 866 347 899 347 c 0xdff0
915 312 m 0
 882 312 856 290 823 234 c 0
 791 180 764 115 764 93 c 0
 764 55 784 31 816 31 c 0
 891 31 972 141 972 241 c 0
 972 280 946 312 915 312 c 0
535 347 m 0
 596 347 639 302 639 238 c 0
 639 178 613 113 568 62 c 0
 531 20 488 -2 441 -2 c 0
 375 -2 324 47 324 112 c 0
 324 181 373 269 436 314 c 0
 466 335 502 347 535 347 c 0
551 312 m 0
 518 312 492 290 459 234 c 0
 427 180 400 115 400 93 c 0
 400 55 420 31 452 31 c 0
 527 31 608 141 608 241 c 0
 608 280 582 312 551 312 c 0
EndSplineSet
EndChar
StartChar: questiondown
Encoding: 191 191 123
Width: 444
Flags: W
HStem: -203 40<132 155> 296 38<199 215> 425 124<254 272>
VStem: 7 63<-97 -64> 199 124<487 489> 272 39<-28 7>
Fore
134 223 m 1xf4
 98 229 l 1
 110 292 156 334 213 334 c 0
 269 334 307 294 307 234 c 0
 307 163 265 105 148 16 c 0
 91 -28 70 -58 70 -97 c 0
 70 -134 102 -163 145 -163 c 0
 192 -163 233 -137 256 -93 c 0
 268 -69 272 -44 272 7 c 1
 310 7 l 1
 311 -4 311 -11 311 -17 c 0
 311 -125 241 -203 143 -203 c 0
 63 -203 7 -146 7 -64 c 0
 7 -7 32 39 90 88 c 0
 117 112 117 112 190 159 c 0
 238 190 257 215 257 247 c 0
 257 277 240 296 212 296 c 0
 188 296 165 284 152 266 c 0
 145 256 142 248 134 223 c 1xf4
262 549 m 0
 295 549 323 521 323 487 c 0
 323 453 295 425 261 425 c 0
 227 425 199 453 199 487 c 0xf8
 199 522 227 549 262 549 c 0
EndSplineSet
EndChar
StartChar: grave
Encoding: 193 96 124
Width: 333
Flags: W
HStem: 671 20G<102 119>
Fore
263 519 m 1
 222 519 l 1
 88 626 l 2
 79 633 73 643 73 652 c 0
 73 672 92 691 112 691 c 0
 126 691 132 687 150 663 c 2
 263 519 l 1
EndSplineSet
EndChar
StartChar: acute
Encoding: 194 180 125
Width: 333
Flags: W
HStem: 669 20G<312.5 329.5>
Fore
132 519 m 1
 270 659 l 1
 294 682 305 689 320 689 c 0
 339 689 355 673 355 654 c 0
 355 640 345 625 330 615 c 2
 171 519 l 1
 132 519 l 1
EndSplineSet
Ligature: 0 1 'liga' space acutecomb
EndChar
StartChar: circumflex
Encoding: 195 710 126
Width: 333
Flags: W
HStem: 668 20G<190 240>
Fore
240 688 m 1
 331 519 l 1
 295 519 l 1
 209 623 l 1
 73 519 l 1
 37 519 l 1
 190 688 l 1
 240 688 l 1
EndSplineSet
EndChar
StartChar: tilde
Encoding: 196 732 127
Width: 333
Flags: W
Fore
350 650 m 1
 380 650 l 1
 373 592 331 545 287 545 c 0
 265 545 256 547 201 568 c 0
 157 584 141 589 127 589 c 0
 105 589 90 574 82 544 c 1
 52 544 l 1
 64 610 97 649 142 649 c 0
 159 649 183 643 242 623 c 0
 278 610 287 608 301 608 c 0
 323 608 338 620 350 650 c 1
EndSplineSet
Ligature: 0 1 'liga' space tildecomb
EndChar
StartChar: macron
Encoding: 197 175 128
Width: 333
Flags: W
HStem: 559 51<61 352>
Fore
62 610 m 1
 363 610 l 1
 352 559 l 1
 51 559 l 1
 62 610 l 1
EndSplineSet
Ligature: 0 1 'liga' space uni0304
EndChar
StartChar: breve
Encoding: 198 728 129
Width: 333
Flags: W
HStem: 518 63<196 214>
Fore
70 677 m 1
 100 677 l 1
 103 617 144 581 207 581 c 0
 267 581 314 615 339 677 c 1
 370 677 l 1
 352 580 287 518 203 518 c 0
 124 518 69 574 69 653 c 0
 69 658 69 667 70 677 c 1
EndSplineSet
Ligature: 0 1 'liga' space uni0306
EndChar
StartChar: dotaccent
Encoding: 199 729 130
Width: 333
Flags: W
Fore
167 644 m 0
 194 644 216 622 216 595 c 0
 216 568 194 546 167 546 c 0
 140 546 118 568 118 595 c 0
 118 622 140 644 167 644 c 0
EndSplineSet
Ligature: 0 1 'liga' space uni0307
EndChar
StartChar: dieresis
Encoding: 200 168 131
Width: 333
Flags: W
VStem: 59 98<585.089 598> 261 98<585.089 598>
Fore
108 644 m 0
 135 644 157 622 157 595 c 0
 157 568 135 546 108 546 c 0
 81 546 59 568 59 595 c 0
 59 622 81 644 108 644 c 0
310 644 m 0
 337 644 359 622 359 595 c 0
 359 568 337 546 310 546 c 0
 283 546 261 568 261 595 c 0
 261 622 283 644 310 644 c 0
EndSplineSet
Ligature: 0 1 'liga' space uni0308
EndChar
StartChar: ring
Encoding: 202 730 132
Width: 333
Flags: W
HStem: 513 36<325 333> 676 36<330 332>
VStem: 230 36<613 615> 393 36<613 615>
Fore
330 712 m 0
 384 712 429 667 429 613 c 0
 429 557 384 513 328 513 c 0
 275 513 230 559 230 613 c 0
 230 667 275 712 330 712 c 0
330 676 m 0
 295 676 266 647 266 613 c 0
 266 578 295 549 329 549 c 0
 365 549 393 577 393 613 c 0
 393 647 364 676 330 676 c 0
EndSplineSet
Ligature: 0 1 'liga' space uni030A
EndChar
StartChar: cedilla
Encoding: 203 184 133
Width: 333
Flags: W
HStem: -216 38<81 93> -99 38<91 134> -20 20G<107 142>
VStem: 139 76<-140 -129>
DStem: 107 0 142 0 49 -99 104 -64
Fore
142 0 m 1
 104 -64 l 1
 118 -62 125 -61 134 -61 c 0
 182 -61 215 -89 215 -129 c 0
 215 -181 166 -216 91 -216 c 0
 59 -216 31 -211 3 -199 c 1
 21 -166 l 1
 45 -174 64 -178 83 -178 c 0
 117 -178 139 -162 139 -138 c 0
 139 -114 120 -99 91 -99 c 0
 81 -99 71 -101 58 -105 c 1
 49 -99 l 1
 107 0 l 1
 142 0 l 1
EndSplineSet
Ligature: 0 1 'liga' space uni0327
EndChar
StartChar: hungarumlaut
Encoding: 205 733 134
Width: 333
Flags: W
HStem: 668 20G<316.5 333.5 477.5 494.5>
Fore
134 519 m 1
 274 658 l 2
 299 682 309 688 324 688 c 0
 343 688 359 672 359 653 c 0
 359 640 348 623 334 614 c 2
 175 519 l 1
 134 519 l 1
295 519 m 1
 435 658 l 2
 460 682 470 688 485 688 c 0
 504 688 520 672 520 653 c 0
 520 639 510 623 495 614 c 2
 336 519 l 1
 295 519 l 1
EndSplineSet
Ligature: 0 1 'liga' space uni030B
EndChar
StartChar: ogonek
Encoding: 206 731 135
Width: 333
Flags: W
HStem: -155 41<137 158> -20 20G<119 155>
VStem: 68 49<-87 -72>
Fore
119 0 m 1
 155 0 l 1
 128 -32 117 -53 117 -74 c 0
 117 -95 137 -114 158 -114 c 0
 179 -114 201 -103 229 -77 c 1
 245 -99 l 1
 205 -139 174 -155 137 -155 c 0
 97 -155 68 -127 68 -87 c 0
 68 -54 82 -30 119 0 c 1
EndSplineSet
Ligature: 0 1 'liga' space uni0328
EndChar
StartChar: caron
Encoding: 207 711 136
Width: 333
Flags: W
Fore
168 520 m 1
 73 683 l 1
 110 683 l 1
 199 585 l 1
 341 683 l 1
 378 683 l 1
 219 520 l 1
 168 520 l 1
EndSplineSet
EndChar
StartChar: emdash
Encoding: 208 8212 137
Width: 1000
Flags: W
HStem: 206 61<-3 1002>
Fore
-2 267 m 1
 1018 267 l 1
 1002 206 l 1
 -18 206 l 1
 -2 267 l 1
EndSplineSet
EndChar
StartChar: uniFFFD
Encoding: 209 65533 138
Width: 333
Flags: W
HStem: -155 41<155 176> -20 20G<158 194>
VStem: 196 49<-87 -72>
Fore
194 0 m 1
 158 0 l 1
 185 -32 196 -53 196 -74 c 0
 196 -95 176 -114 155 -114 c 0
 134 -114 112 -103 84 -77 c 1
 68 -99 l 1
 108 -139 139 -155 176 -155 c 0
 216 -155 245 -127 245 -87 c 0
 245 -54 231 -30 194 0 c 1
EndSplineSet
EndChar
StartChar: AE
Encoding: 225 198 138
Width: 870
Flags: W
HStem: 0 47<-87 -75.8043 99 131 212 739> 278 47<205 365> 354 47<504 519> 675 47<236 277 237 461 237 676>
DStem: 302 553 436 654 -18 93 205 325 302 553 174 278 -18 93 79 141 365 278 497 354 323 123 438 134 460 635 565 606 377 325 510 401 460 635 720 520 377 325 630 186
Fore
831 481 m 1
 786 481 l 1
 786 501 l 1
 787 524 787 542 787 552 c 0
 787 634 748 675 669 675 c 2
 642 675 l 2
 590 675 581 667 565 606 c 1
 510 401 l 1
 517 401 l 2
 599 401 645 437 674 526 c 1
 720 520 l 1
 630 186 l 1
 585 194 l 1
 592 223 594 241 594 264 c 0
 594 324 564 354 504 354 c 2
 497 354 l 1
 438 134 l 2
 436 127 434 120 433 114 c 0
 428 101 426 87 426 78 c 0
 426 57 446 47 490 47 c 2
 512 47 l 2
 627 47 693 92 755 214 c 0
 768 239 770 242 777 253 c 1
 817 245 l 1
 739 0 l 1
 207 0 l 1
 213 47 l 1
 217 47 l 2
 266 47 290 51 300 61 c 0
 309 69 309 69 323 123 c 1
 365 278 l 1
 174 278 l 1
 79 141 l 2
 64 119 54 96 54 83 c 0
 54 69 64 58 81 52 c 0
 91 48 101 47 131 47 c 1
 125 0 l 1
 -92 0 l 1
 -87 47 l 1
 -62 47 -42 61 -18 93 c 1
 302 553 l 2
 329 592 339 614 339 633 c 0
 339 664 318 675 259 675 c 2
 232 675 l 1
 237 722 l 1
 870 722 l 1
 831 481 l 1
377 325 m 1
 460 635 l 1
 466 660 466 660 466 663 c 0
 466 668 461 674 457 674 c 0
 451 674 446 670 436 654 c 1
 205 325 l 1
 377 325 l 1
EndSplineSet
EndChar
StartChar: ordfeminine
Encoding: 227 170 139
Width: 422
Flags: W
HStem: 330 40<83 366> 442 30<179 196> 475 21G<334 346> 698 33<241 256>
VStem: 83 59<523 547> 275 49<481 490>
DStem: 340 722 396 722 322 668 331 522
Fore
83 370 m 1
 366 370 l 1
 366 330 l 1
 83 330 l 1
 83 370 l 1
340 722 m 1
 396 722 l 1
 331 522 l 2
 326 506 324 496 324 490 c 0
 324 482 330 475 338 475 c 0
 354 475 373 495 403 545 c 1
 422 535 l 1
 392 475 354 442 315 442 c 0
 291 442 275 458 275 481 c 0
 275 486 276 490 278 500 c 1
 245 457 220 442 179 442 c 0
 121 442 83 481 83 539 c 0
 83 637 160 731 241 731 c 0
 285 731 317 706 322 668 c 1
 340 722 l 1
254 698 m 0
 234 698 216 691 202 677 c 0
 167 645 142 583 142 531 c 0
 142 494 162 472 194 472 c 0
 226 472 250 489 270 526 c 0
 289 562 303 611 303 645 c 0
 303 678 284 698 254 698 c 0
EndSplineSet
EndChar
StartChar: Lslash
Encoding: 232 321 140
Width: 667
Flags: W
HStem: 0 47<-33 552> 675 47<116 172 117 447>
DStem: 116 258 244 321 79 123 194 134 133 322 116 258 14 254 -4 189 207 599 319 599 133 322 261 385 459 499 440 435 261 385 244 321
Fore
116 258 m 1
 -4 189 l 1
 14 254 l 1
 133 322 l 1
 207 599 l 1
 212 619 216 640 216 648 c 0
 216 670 202 675 137 675 c 2
 111 675 l 1
 117 722 l 1
 453 722 l 1
 447 675 l 1
 425 675 l 2
 376 675 352 671 342 661 c 0
 333 653 333 653 319 599 c 1
 261 385 l 1
 459 499 l 1
 440 435 l 1
 244 321 l 1
 194 134 l 2
 184 97 183 92 183 79 c 0
 183 55 201 47 253 47 c 2
 295 47 l 2
 376 47 434 65 482 106 c 0
 521 138 540 164 584 245 c 1
 589 253 l 1
 630 245 l 1
 552 0 l 1
 -37 0 l 1
 -32 47 l 1
 -27 47 l 2
 22 47 45 51 56 61 c 0
 64 69 65 70 79 123 c 1
 116 258 l 1
EndSplineSet
EndChar
StartChar: Oslash
Encoding: 233 216 141
Width: 778
Flags: W
HStem: -15 44<304 322> 693 44<448 466>
VStem: 40 118<209 276> 615 120<451 509>
DStem: 119 58 153 29 1 -87 59 -87 584 634 604 588 172 125 195 82 677 750 735 750 624 684 658 655
Fore
624 684 m 1
 677 750 l 1
 735 750 l 1
 658 655 l 1
 710 601 735 535 735 451 c 0
 735 322 682 196 590 104 c 0
 510 25 417 -15 313 -15 c 0
 250 -15 197 0 153 29 c 1
 59 -87 l 1
 1 -87 l 1
 119 58 l 1
 67 109 40 185 40 276 c 0
 40 521 234 737 453 737 c 0
 517 737 576 719 624 684 c 1
172 125 m 1
 584 634 l 1
 559 672 513 693 457 693 c 0
 391 693 332 660 281 594 c 0
 216 509 158 328 158 209 c 0
 158 182 163 149 172 125 c 1
604 588 m 1
 195 82 l 1
 222 47 263 29 315 29 c 0
 391 29 463 72 510 144 c 0
 574 245 615 385 615 509 c 0
 615 538 611 565 604 588 c 1
EndSplineSet
KernsSLIF: 65 -41 0 0
EndChar
StartChar: OE
Encoding: 234 338 142
Width: 981
Flags: W
HStem: 0 46<307 324 563 831> 354 47<596 613> 481 241<502 924> 677 45<447 502 502 773>
VStem: 36 123<223 284>
DStem: 528 543 657 606 427 165 602 401 528 543 811 520 427 165 722 186 528 543 589 354 427 165 530 134
Fore
924 481 m 1xe8
 879 481 l 1
 879 501 l 1
 880 526 880 546 880 552 c 0
 880 635 841 675 762 675 c 2
 734 675 l 2
 682 675 673 667 657 606 c 1
 602 401 l 1
 609 401 l 2
 691 401 737 437 766 526 c 1
 811 520 l 1
 722 186 l 1
 677 194 l 1
 684 224 686 243 686 265 c 0
 686 324 656 354 596 354 c 2
 589 354 l 1
 530 134 l 1
 520 94 519 90 519 78 c 0
 519 57 539 47 582 47 c 2
 604 47 l 2
 644 47 688 56 718 69 c 0
 769 93 806 134 847 214 c 1
 868 253 l 1
 909 245 l 1
 831 0 l 1
 322 0 l 2
 236 0 174 18 127 58 c 0
 69 107 36 188 36 284 c 0
 36 441 121 593 250 670 c 0
 314 708 383 722 502 722 c 2xe8
 963 722 l 1xd8
 924 481 l 1xe8
427 165 m 2
 528 543 l 1
 539 586 541 594 541 612 c 0
 541 654 508 677 447 677 c 0xd8
 367 677 300 629 243 534 c 0
 194 451 159 321 159 223 c 0
 159 118 222 46 313 46 c 0
 349 46 381 61 397 85 c 0
 407 100 416 124 427 165 c 2
EndSplineSet
EndChar
StartChar: ordmasculine
Encoding: 235 186 143
Width: 372
Flags: W
HStem: 329 40<83 367> 442 23<189 212> 708 23<242 259>
VStem: 83 59<528 555> 310 62<618 638>
Fore
83 369 m 1
 367 369 l 1
 367 329 l 1
 83 329 l 1
 83 369 l 1
257 731 m 0
 320 731 372 680 372 619 c 0
 372 574 351 525 317 491 c 0
 284 458 246 442 196 442 c 0
 125 442 83 484 83 555 c 0
 83 648 165 731 257 731 c 0
254 708 m 0
 230 708 209 697 191 676 c 0
 164 644 142 577 142 528 c 0
 142 487 162 465 200 465 c 0
 238 465 265 488 287 539 c 0
 302 571 310 608 310 638 c 0
 310 682 289 708 254 708 c 0
EndSplineSet
EndChar
StartChar: ae
Encoding: 241 230 144
Width: 722
Flags: W
HStem: -15 50<100 136 430 456> 427 43<530 552>
VStem: -18 93<83 99> 65 107<346 360> 581 86<360 377>
Fore
610 117 m 1xd8
 638 91 l 1
 576 18 512 -15 430 -15 c 0
 349 -15 302 21 288 91 c 1
 236 14 184 -15 100 -15 c 0
 27 -15 -18 23 -18 84 c 0xe8
 -18 150 29 195 130 227 c 0
 184 243 204 247 303 260 c 1
 316 311 318 326 318 348 c 0
 318 398 278 431 218 431 c 0
 180 431 147 417 147 400 c 0
 147 397 148 395 155 390 c 0
 166 381 172 366 172 349 c 0
 172 319 151 299 119 299 c 0
 86 299 65 321 65 355 c 0
 65 419 136 470 226 470 c 0
 290 470 340 446 379 397 c 1
 431 445 489 470 552 470 c 0
 622 470 667 430 667 369 c 0
 667 309 623 261 541 231 c 0
 507 218 459 207 370 192 c 1
 363 167 361 155 361 137 c 0
 361 72 396 33 456 33 c 0
 511 33 564 62 610 117 c 1xd8
378 232 m 1
 384 233 384 233 392 234 c 0
 428 239 475 252 501 263 c 0
 551 286 581 328 581 375 c 0
 581 407 561 427 530 427 c 0
 492 427 456 403 430 360 c 0
 409 325 398 299 378 232 c 1
293 220 m 1
 230 211 218 209 185 199 c 0
 116 180 75 141 75 95 c 0
 75 60 100 35 136 35 c 0
 176 35 220 59 245 96 c 0
 266 127 276 152 293 220 c 1
EndSplineSet
KernsSLIF: 121 -6 0 0 119 -22 0 0 118 -21 0 0
EndChar
StartChar: dotlessi
Encoding: 245 305 145
Width: 333
Flags: W
HStem: -14 50<96 130>
VStem: 27 86<48 59>
DStem: 107 344 231 470 49 149 125 113
Fore
231 470 m 1
 125 113 l 2
 117 85 113 67 113 57 c 0
 113 45 120 36 130 36 c 0
 157 36 201 80 251 157 c 1
 282 140 l 1
 254 97 238 75 220 55 c 0
 180 9 139 -14 96 -14 c 0
 57 -14 27 13 27 48 c 0
 27 70 31 86 49 149 c 1
 107 344 l 1
 113 366 116 379 116 388 c 0
 116 410 100 419 59 419 c 2
 35 419 l 1
 39 455 l 1
 231 470 l 1
EndSplineSet
EndChar
StartChar: lslash
Encoding: 248 322 146
Width: 333
Flags: W
HStem: -10 51<109 142> 671 20G<119 151>
VStem: 44 80<58 71>
DStem: 119 347 213 372 72 188 138 117 199 616 323 742 135 402 229 427
Fore
229 427 m 1
 342 475 l 1
 326 420 l 1
 213 372 l 1
 138 117 l 1
 124 74 124 73 124 62 c 0
 124 50 131 41 142 41 c 0
 170 41 214 84 266 162 c 1
 296 145 l 1
 236 43 172 -10 109 -10 c 0
 69 -10 44 17 44 60 c 0
 44 92 45 98 72 188 c 2
 119 347 l 1
 16 302 l 1
 32 357 l 1
 135 402 l 1
 199 616 l 1
 210 656 210 656 210 663 c 0
 210 682 190 691 151 691 c 2
 119 691 l 1
 123 727 l 1
 323 742 l 1
 229 427 l 1
EndSplineSet
EndChar
StartChar: oslash
Encoding: 249 248 147
Width: 500
Flags: W
HStem: -15 38<159 188> 432 38<250 268>
VStem: -5 90<129 173> 345 95<282 312>
DStem: 72 9 107 -7 0 -120 43 -120 304 418 330 388 101 59 129 33 378 548 421 548 326 458 359 440
Fore
326 458 m 1
 378 548 l 1
 421 548 l 1
 359 440 l 1
 410 402 440 344 440 282 c 0
 440 207 408 127 355 67 c 0
 306 12 245 -15 171 -15 c 0
 148 -15 128 -12 107 -7 c 1
 43 -120 l 1
 0 -120 l 1
 72 9 l 1
 22 41 -5 98 -5 173 c 0
 -5 256 22 325 79 384 c 0
 132 439 197 470 263 470 c 0
 285 470 306 466 326 458 c 1
101 59 m 1
 304 418 l 1
 289 428 275 432 257 432 c 0
 221 432 188 413 161 378 c 0
 120 325 85 209 85 129 c 0
 85 104 91 79 101 59 c 1
330 388 m 1
 129 33 l 1
 144 26 157 23 174 23 c 0
 227 23 264 53 298 122 c 0
 326 179 345 256 345 312 c 0
 345 340 340 366 330 388 c 1
EndSplineSet
EndChar
StartChar: oe
Encoding: 250 339 148
Width: 778
Flags: W
HStem: -15 36<164 193> -15 47<494 515> 428 42<582 602>
VStem: 0 91<128 177> 350 66<136 321> 636 84<365 382>
Fore
668 116 m 1x7c
 692 89 l 1
 636 16 576 -15 494 -15 c 0x7c
 425 -15 384 6 351 56 c 1
 305 9 246 -15 174 -15 c 0xbc
 65 -15 0 57 0 177 c 0
 0 256 28 326 85 384 c 0
 138 439 203 470 268 470 c 0
 317 470 366 448 395 414 c 0
 401 406 406 398 416 382 c 1
 431 398 437 404 446 411 c 0
 488 447 549 470 602 470 c 0
 671 470 720 427 720 367 c 0
 720 309 677 258 600 224 c 0
 554 204 534 198 418 170 c 1
 417 157 416 143 416 136 c 0
 416 72 453 32 513 32 c 0
 566 32 609 55 668 116 c 1x7c
264 430 m 0
 226 430 194 412 166 376 c 0
 125 322 91 211 91 128 c 0
 91 59 122 21 180 21 c 0xbc
 233 21 270 51 304 121 c 0
 334 183 350 252 350 321 c 0
 350 388 317 430 264 430 c 0
424 209 m 1
 498 226 514 232 550 252 c 0
 605 282 636 326 636 373 c 0
 636 406 614 428 582 428 c 0
 507 428 442 338 424 209 c 1
EndSplineSet
EndChar
StartChar: germandbls
Encoding: 251 223 149
Width: 556
Flags: W
HStem: -14 37<263 277> 701 35<355 373>
VStem: 162 102<72 88> 381 88<247 298> 441 84<589 611>
DStem: 97 351 179 344 53 176 144 201
Fore
53 176 m 1xe8
 97 351 l 2
 140 521 167 594 208 651 c 0
 251 709 301 736 366 736 c 0
 462 736 525 680 525 593 c 0xe8
 525 531 497 477 448 441 c 0
 428 427 412 419 377 407 c 1
 441 364 469 315 469 247 c 0
 469 182 447 112 409 61 c 0
 375 14 322 -14 268 -14 c 0
 206 -14 162 22 162 72 c 0
 162 106 184 130 215 130 c 0
 242 130 264 111 264 88 c 0
 264 78 261 67 255 54 c 0
 252 47 250 41 250 37 c 0
 250 30 260 23 271 23 c 0
 293 23 314 46 337 97 c 0
 362 153 381 238 381 298 c 0xf0
 381 339 365 371 337 387 c 0
 324 395 321 395 285 402 c 0
 265 405 256 412 256 424 c 0
 256 434 265 443 275 443 c 0
 278 443 278 443 306 438 c 0
 321 436 332 435 338 435 c 0
 393 435 441 517 441 611 c 0
 441 668 411 701 361 701 c 0
 311 701 276 667 247 591 c 0
 235 561 232 549 179 344 c 1
 144 201 l 1
 111 56 75 -65 30 -184 c 1
 -76 -202 l 1
 -45 -152 -4 -34 53 176 c 1xe8
EndSplineSet
EndChar
StartChar: Adieresis
Encoding: 256 196 150
Width: 704
Flags: W
HStem: 0 47<-77 -61.2657 157 187 366 663> 238 47<200 428> 717 20G<401 442> 812 98<317 322 519 527>
VStem: 271 98<851.126 864> 473 98<851.126 864>
DStem: 363 572 442 737 420 285 567 108 401 737 363 572 71 168 200 285 401 737 173 238 71 168 118 142 428 238 442 737 451 115 567 108
Fore
442 737 m 1
 567 108 l 1
 577 56 588 47 643 47 c 2
 668 47 l 1
 663 0 l 1
 362 0 l 1
 367 47 l 1
 383 47 l 2
 440 47 455 54 455 83 c 0
 455 90 453 103 451 115 c 1
 428 238 l 1
 173 238 l 1
 118 142 l 2
 106 122 100 102 100 87 c 0
 100 57 117 47 169 47 c 2
 193 47 l 1
 187 0 l 1
 -82 0 l 1
 -77 47 l 1
 -23 47 18 80 71 168 c 1
 401 737 l 1
 442 737 l 1
420 285 m 1
 363 572 l 1
 200 285 l 1
 420 285 l 1
320 910 m 0
 347 910 369 888 369 861 c 0
 369 834 347 812 319 812 c 0
 293 812 271 834 271 861 c 0
 271 888 293 910 320 910 c 0
522 910 m 0
 549 910 571 888 571 861 c 0
 571 834 549 812 521 812 c 0
 495 812 473 834 473 861 c 0
 473 888 495 910 522 910 c 0
EndSplineSet
KernsSLIF: 121 -51 0 0 119 -1 0 0 118 -13 0 0 117 -8 0 0 116 3 0 0 39 -58 0 0 186 -59 0 0 113 3 0 0 46 17 0 0 111 -4 0 0 45 -16 0 0 172 -47 0 0 171 -19 0 0 103 17 0 0 100 1 0 0 44 16 0 0 99 -3 0 0 98 -11 0 0 97 3 0 0 89 -21 0 0 87 -85 0 0 86 -91 0 0 85 -43 0 0 84 -18 0 0 81 -32 0 0 79 -34 0 0 71 -32 0 0 67 -37 0 0
Ligature: 0 0 'liga' A uni0308
EndChar
StartChar: Aacute
Encoding: 257 193 151
Width: 704
Flags: W
HStem: 0 47<-77 -61.2657 157 187 366 663> 238 47<200 428> 717 20G<401 442>
DStem: 363 572 442 737 420 285 567 108 401 737 363 572 71 168 200 285 401 737 173 238 71 168 118 142 428 238 442 737 451 115 567 108
Fore
442 737 m 1
 567 108 l 1
 577 56 588 47 643 47 c 2
 668 47 l 1
 663 0 l 1
 362 0 l 1
 367 47 l 1
 383 47 l 2
 440 47 455 54 455 83 c 0
 455 90 453 103 451 115 c 1
 428 238 l 1
 173 238 l 1
 118 142 l 2
 106 122 100 102 100 87 c 0
 100 57 117 47 169 47 c 2
 193 47 l 1
 187 0 l 1
 -82 0 l 1
 -77 47 l 1
 -23 47 18 80 71 168 c 1
 401 737 l 1
 442 737 l 1
420 285 m 1
 363 572 l 1
 200 285 l 1
 420 285 l 1
381 774 m 1
 519 917 l 2
 540 939 554 947 569 947 c 0
 588 947 604 931 604 913 c 0
 604 898 594 884 579 874 c 2
 420 774 l 1
 381 774 l 1
EndSplineSet
KernsSLIF: 121 -51 0 0 119 -1 0 0 118 -13 0 0 117 -8 0 0 116 3 0 0 39 -58 0 0 113 3 0 0 46 17 0 0 111 -4 0 0 45 -16 0 0 172 -47 0 0 171 -19 0 0 103 17 0 0 101 3 0 0 100 1 0 0 44 16 0 0 99 -3 0 0 98 -11 0 0 97 3 0 0 89 -21 0 0 87 -85 0 0 86 -91 0 0 85 -43 0 0 84 -18 0 0 81 -32 0 0 79 -34 0 0 71 -32 0 0 67 -37 0 0
Ligature: 0 0 'liga' A acutecomb
EndChar
StartChar: Agrave
Encoding: 258 192 152
Width: 704
Flags: W
HStem: 0 47<-77 -61.2657 157 187 366 663> 238 47<200 428> 717 20G<401 442>
DStem: 363 572 442 737 420 285 567 108 401 737 363 572 71 168 200 285 401 737 173 238 71 168 118 142 428 238 442 737 451 115 567 108
Fore
442 737 m 1
 567 108 l 1
 577 56 588 47 643 47 c 2
 668 47 l 1
 663 0 l 1
 362 0 l 1
 367 47 l 1
 383 47 l 2
 440 47 455 54 455 83 c 0
 455 90 453 103 451 115 c 1
 428 238 l 1
 173 238 l 1
 118 142 l 2
 106 122 100 102 100 87 c 0
 100 57 117 47 169 47 c 2
 193 47 l 1
 187 0 l 1
 -82 0 l 1
 -77 47 l 1
 -23 47 18 80 71 168 c 1
 401 737 l 1
 442 737 l 1
420 285 m 1
 363 572 l 1
 200 285 l 1
 420 285 l 1
462 774 m 1
 421 774 l 1
 287 881 l 2
 278 889 272 898 272 907 c 0
 272 927 291 946 311 946 c 0
 326 946 331 942 349 918 c 2
 462 774 l 1
EndSplineSet
KernsSLIF: 46 17 0 0 44 16 0 0 89 -21 0 0 87 -85 0 0 86 -91 0 0 85 -43 0 0 84 -18 0 0 81 -32 0 0 79 -34 0 0 71 -32 0 0 67 -37 0 0
Ligature: 0 0 'liga' A gravecomb
EndChar
StartChar: Acircumflex
Encoding: 259 194 153
Width: 704
Flags: W
HStem: 0 47<-77 -61.2657 157 187 366 663> 238 47<200 428> 717 20G<401 442>
DStem: 363 572 442 737 420 285 567 108 401 737 363 572 71 168 200 285 401 737 173 238 71 168 118 142 428 238 442 737 451 115 567 108
Fore
442 737 m 1
 567 108 l 1
 577 56 588 47 643 47 c 2
 668 47 l 1
 663 0 l 1
 362 0 l 1
 367 47 l 1
 383 47 l 2
 440 47 455 54 455 83 c 0
 455 90 453 103 451 115 c 1
 428 238 l 1
 173 238 l 1
 118 142 l 2
 106 122 100 102 100 87 c 0
 100 57 117 47 169 47 c 2
 193 47 l 1
 187 0 l 1
 -82 0 l 1
 -77 47 l 1
 -23 47 18 80 71 168 c 1
 401 737 l 1
 442 737 l 1
420 285 m 1
 363 572 l 1
 200 285 l 1
 420 285 l 1
475 940 m 1
 566 774 l 1
 530 774 l 1
 444 875 l 1
 308 774 l 1
 272 774 l 1
 425 940 l 1
 475 940 l 1
EndSplineSet
KernsSLIF: 46 17 0 0 44 16 0 0 89 -21 0 0 87 -85 0 0 86 -91 0 0 85 -43 0 0 84 -18 0 0 81 -32 0 0 79 -34 0 0 71 -32 0 0 67 -37 0 0
Ligature: 0 0 'liga' A uni0302
EndChar
StartChar: Abreve
Encoding: 260 258 154
Width: 704
Flags: W
HStem: 0 47<-77 -61.2657 157 187 366 663> 238 47<200 428> 717 20G<401 442> 774 63<413 442>
DStem: 363 572 442 737 420 285 567 108 401 737 363 572 71 168 200 285 401 737 173 238 71 168 118 142 428 238 442 737 451 115 567 108
Fore
442 737 m 1
 567 108 l 1
 577 56 588 47 643 47 c 2
 668 47 l 1
 663 0 l 1
 362 0 l 1
 367 47 l 1
 383 47 l 2
 440 47 455 54 455 83 c 0
 455 90 453 103 451 115 c 1
 428 238 l 1
 173 238 l 1
 118 142 l 2
 106 122 100 102 100 87 c 0
 100 57 117 47 169 47 c 2
 193 47 l 1
 187 0 l 1
 -82 0 l 1
 -77 47 l 1
 -23 47 18 80 71 168 c 1
 401 737 l 1
 442 737 l 1
420 285 m 1
 363 572 l 1
 200 285 l 1
 420 285 l 1
291 935 m 1
 320 935 l 1
 324 874 364 837 427 837 c 0
 488 837 535 872 560 935 c 1
 591 935 l 1
 573 837 508 774 423 774 c 0
 343 774 290 830 290 914 c 0
 290 918 290 926 291 935 c 1
EndSplineSet
Ligature: 0 0 'liga' A uni0306
EndChar
StartChar: Atilde
Encoding: 261 195 155
Width: 704
Flags: W
HStem: 0 47<-77 -61.2657 157 187 366 663> 238 47<200 428> 717 20G<401 442> 813 62<505 519> 856 60<345 360>
DStem: 363 572 442 737 420 285 567 108 401 737 363 572 71 168 200 285 401 737 173 238 71 168 118 142 428 238 442 737 451 115 567 108
Fore
442 737 m 1xe0
 567 108 l 1
 577 56 588 47 643 47 c 2
 668 47 l 1
 663 0 l 1
 362 0 l 1
 367 47 l 1
 383 47 l 2
 440 47 455 54 455 83 c 0
 455 90 453 103 451 115 c 1
 428 238 l 1
 173 238 l 1
 118 142 l 2
 106 122 100 102 100 87 c 0
 100 57 117 47 169 47 c 2
 193 47 l 1
 187 0 l 1
 -82 0 l 1
 -77 47 l 1
 -23 47 18 80 71 168 c 1
 401 737 l 1
 442 737 l 1xe0
420 285 m 1
 363 572 l 1
 200 285 l 1
 420 285 l 1
568 917 m 1
 598 917 l 1
 592 861 549 813 505 813 c 0xf0
 483 813 472 816 419 836 c 0
 375 852 359 856 345 856 c 0
 323 856 309 842 300 812 c 1
 270 812 l 1
 282 877 315 916 360 916 c 0xe8
 378 916 400 910 460 890 c 0
 495 877 505 875 519 875 c 0xf0
 541 875 556 887 568 917 c 1
EndSplineSet
KernsSLIF: 46 17 0 0 44 16 0 0 89 -21 0 0 87 -85 0 0 86 -91 0 0 85 -43 0 0 84 -18 0 0 81 -32 0 0 79 -34 0 0 71 -32 0 0 67 -37 0 0
Ligature: 0 0 'liga' A tildecomb
EndChar
StartChar: Aring
Encoding: 262 197 156
Width: 704
Flags: W
HStem: 0 47<-77 -61.2657 157 187 366 663> 238 47<200 428> 717 20G<401 442> 767 36<420 442> 930 36<431 442>
VStem: 332 36<867 869> 495 36<867 869>
DStem: 363 572 442 737 420 285 567 108 401 737 363 572 71 168 200 285 401 737 173 238 71 168 118 142 428 238 442 737 451 115 567 108
Fore
442 737 m 1
 567 108 l 1
 577 56 588 47 643 47 c 2
 668 47 l 1
 663 0 l 1
 362 0 l 1
 367 47 l 1
 383 47 l 2
 440 47 455 54 455 83 c 0
 455 90 453 103 451 115 c 1
 428 238 l 1
 173 238 l 1
 118 142 l 2
 106 122 100 102 100 87 c 0
 100 57 117 47 169 47 c 2
 193 47 l 1
 187 0 l 1
 -82 0 l 1
 -77 47 l 1
 -23 47 18 80 71 168 c 1
 401 737 l 1
 442 737 l 1
420 285 m 1
 363 572 l 1
 200 285 l 1
 420 285 l 1
431 966 m 0
 486 966 531 921 531 867 c 0
 531 811 486 767 430 767 c 0
 377 767 332 813 332 867 c 0
 332 921 377 966 431 966 c 0
431 930 m 0
 397 930 368 901 368 867 c 0
 368 832 397 803 431 803 c 0
 466 803 495 831 495 867 c 0
 495 901 466 930 431 930 c 0
EndSplineSet
KernsSLIF: 121 -51 0 0 119 -1 0 0 118 -13 0 0 117 -8 0 0 116 3 0 0 39 -58 0 0 186 -59 0 0 113 3 0 0 46 17 0 0 111 -4 0 0 45 -16 0 0 172 -47 0 0 171 -19 0 0 103 17 0 0 101 3 0 0 100 1 0 0 44 16 0 0 99 -3 0 0 98 -11 0 0 97 3 0 0 89 -21 0 0 87 -85 0 0 86 -91 0 0 85 -43 0 0 84 -18 0 0 81 -32 0 0 79 -34 0 0 71 -32 0 0 67 -37 0 0
Ligature: 0 0 'liga' A uni030A
EndChar
StartChar: Aogonek
Encoding: 263 260 157
Width: 704
Flags: W
HStem: -155 41<645 665> 0 47<-77 -61.2657 157 187 366 627> 238 47<200 428> 717 20G<401 442>
VStem: 576 49<-87 -72>
DStem: 363 572 442 737 420 285 567 108 401 737 363 572 71 168 200 285 401 737 173 238 71 168 118 142 428 238 442 737 451 115 567 108
Fore
668 47 m 1
 663 0 l 1
 635 -32 625 -53 625 -74 c 0
 625 -95 644 -114 665 -114 c 0
 687 -114 709 -103 736 -77 c 1
 753 -99 l 1
 713 -139 682 -155 645 -155 c 0
 604 -155 576 -127 576 -87 c 0
 576 -54 589 -32 627 0 c 1
 362 0 l 1
 367 47 l 1
 383 47 l 2
 440 47 455 54 455 83 c 0
 455 90 453 103 451 115 c 1
 428 238 l 1
 173 238 l 1
 118 142 l 2
 106 122 100 102 100 87 c 0
 100 57 117 47 169 47 c 2
 193 47 l 1
 187 0 l 1
 -82 0 l 1
 -77 47 l 1
 -23 47 18 80 71 168 c 1
 401 737 l 1
 442 737 l 1
 567 108 l 1
 577 56 588 47 643 47 c 2
 668 47 l 1
420 285 m 1
 363 572 l 1
 200 285 l 1
 420 285 l 1
EndSplineSet
Ligature: 0 0 'liga' A uni0328
EndChar
StartChar: Ccedilla
Encoding: 264 199 158
Width: 722
Flags: W
HStem: -216 38<263 281> -99 38<279 321> -15 49<327 361> 694 43<439 457>
VStem: 40 125<240 280> 327 76<-140 -129>
DStem: 287 -12 321 -15 237 -99 292 -64
Fore
321 -15 m 1
 292 -64 l 1
 306 -62 312 -61 321 -61 c 0
 370 -61 403 -89 403 -129 c 0
 403 -181 353 -216 279 -216 c 0
 246 -216 219 -211 191 -199 c 1
 209 -166 l 1
 233 -174 251 -178 271 -178 c 0
 304 -178 327 -162 327 -138 c 0
 327 -115 308 -99 279 -99 c 0
 269 -99 260 -101 245 -105 c 1
 237 -99 l 1
 287 -12 l 1
 131 10 40 118 40 280 c 0
 40 391 78 495 152 585 c 1
 232 685 332 737 442 737 c 0
 518 737 569 714 617 657 c 1
 677 715 l 1
 713 715 l 1
 657 435 l 1
 616 435 l 1
 613 512 606 556 590 593 c 0
 563 660 516 694 450 694 c 0
 381 694 314 654 268 583 c 0
 205 486 165 354 165 240 c 0
 165 183 181 130 211 93 c 0
 241 54 289 34 351 34 c 0
 426 34 486 63 536 125 c 0
 554 146 568 170 593 223 c 1
 634 205 l 1
 608 144 585 107 554 75 c 0
 499 17 422 -15 338 -15 c 2
 321 -15 l 1
EndSplineSet
KernsSLIF: 65 -23 0 0
Ligature: 0 0 'liga' C uni0327
EndChar
StartChar: Cacute
Encoding: 265 262 159
Width: 722
Flags: W
HStem: -15 49<327 361> 694 43<439 457>
VStem: 40 125<240 280>
Fore
617 657 m 1
 677 715 l 1
 713 715 l 1
 657 435 l 1
 616 435 l 1
 613 512 606 556 590 593 c 0
 563 660 516 694 450 694 c 0
 381 694 314 654 268 583 c 0
 205 486 165 354 165 240 c 0
 165 183 181 130 211 93 c 0
 241 54 289 34 351 34 c 0
 426 34 486 63 536 125 c 0
 554 146 568 170 593 223 c 1
 634 205 l 1
 608 144 585 107 554 75 c 0
 497 16 422 -15 334 -15 c 0
 156 -15 40 102 40 280 c 0
 40 391 78 495 152 585 c 1
 232 685 332 737 442 737 c 0
 518 737 569 714 617 657 c 1
409 774 m 1
 547 917 l 2
 568 939 582 947 597 947 c 0
 616 947 632 931 632 913 c 0
 632 898 622 884 607 874 c 2
 448 774 l 1
 409 774 l 1
EndSplineSet
Ligature: 0 0 'liga' C acutecomb
EndChar
StartChar: Ccaron
Encoding: 266 268 160
Width: 722
Flags: W
HStem: -15 49<327 361> 694 43<437 457>
VStem: 40 125<240 280>
Fore
617 657 m 1
 677 715 l 1
 713 715 l 1
 657 435 l 1
 616 435 l 1
 613 512 606 556 590 593 c 0
 563 660 516 694 450 694 c 0
 381 694 314 654 268 583 c 0
 205 486 165 354 165 240 c 0
 165 183 181 130 211 93 c 0
 241 54 289 34 351 34 c 0
 426 34 486 63 536 125 c 0
 554 146 568 170 593 223 c 1
 634 205 l 1
 608 144 585 107 554 75 c 0
 497 16 422 -15 334 -15 c 0
 156 -15 40 102 40 280 c 0
 40 391 78 495 152 585 c 1
 232 685 332 737 442 737 c 0
 518 737 569 714 617 657 c 1
439 774 m 1
 348 940 l 1
 384 940 l 1
 470 839 l 1
 606 940 l 1
 642 940 l 1
 489 774 l 1
 439 774 l 1
EndSplineSet
Ligature: 0 0 'liga' C uni030C
EndChar
StartChar: Dcaron
Encoding: 267 270 161
Width: 778
Flags: W
HStem: 0 47<-34 283> 675 47<115 171 116 451>
VStem: 614 121<435 489>
DStem: 206 599 320 610 78 123 187 110
Fore
-38 0 m 1
 -33 47 l 1
 -28 47 l 2
 21 47 44 51 55 61 c 0
 63 69 64 69 78 123 c 1
 206 599 l 1
 211 619 215 640 215 648 c 0
 215 670 201 675 136 675 c 2
 110 675 l 1
 116 722 l 1
 406 722 l 2
 518 722 581 708 631 670 c 0
 698 620 735 537 735 435 c 0
 735 301 667 162 560 77 c 0
 490 22 405 0 264 0 c 2
 -38 0 l 1
227 47 m 2
 259 47 l 2
 356 47 420 65 465 104 c 0
 546 176 614 352 614 489 c 0
 614 547 595 602 566 631 c 0
 537 659 486 675 426 675 c 2
 396 675 l 2
 343 675 336 669 320 610 c 1
 187 110 l 1
 183 98 181 84 181 76 c 0
 181 56 196 47 227 47 c 2
420 774 m 1
 329 940 l 1
 365 940 l 1
 451 839 l 1
 587 940 l 1
 623 940 l 1
 470 774 l 1
 420 774 l 1
EndSplineSet
Ligature: 0 0 'liga' D uni030C
EndChar
StartChar: Edieresis
Encoding: 268 203 162
Width: 722
Flags: W
HStem: 0 47<-33 564> 481 241<117 662> 675 47<116 172 117 496> 812 98<346 364 554 566>
VStem: 307 98<851.126 864> 509 98<851.126 864>
DStem: 207 599 320 606 79 123 265 401 207 599 511 520 79 123 422 186 207 599 253 354 79 123 194 134
Fore
701 722 m 1xbc
 662 481 l 1
 617 481 l 1xdc
 617 516 l 2
 617 585 608 617 580 642 c 0
 555 664 521 675 478 675 c 2
 420 675 l 2
 345 675 337 670 320 606 c 2
 265 401 l 1
 288 401 l 2
 385 401 437 438 466 526 c 1
 511 520 l 1
 422 186 l 1
 377 194 l 1
 384 226 386 241 386 263 c 0
 386 324 349 354 275 354 c 2
 253 354 l 1
 194 134 l 2
 184 96 183 91 183 79 c 0
 183 55 201 47 253 47 c 2
 307 47 l 2
 388 47 446 65 494 106 c 0
 533 138 552 165 596 245 c 2
 601 253 l 1
 642 245 l 1
 564 0 l 1
 -37 0 l 1
 -32 47 l 1
 -27 47 l 2
 22 47 45 51 56 61 c 0
 64 69 65 70 79 123 c 2
 207 599 l 1
 212 619 216 640 216 648 c 0
 216 670 202 675 137 675 c 2
 111 675 l 1xbc
 117 722 l 1xdc
 701 722 l 1xbc
356 910 m 0
 383 910 405 888 405 861 c 0
 405 834 383 812 355 812 c 0
 329 812 307 834 307 861 c 0
 307 888 329 910 356 910 c 0
558 910 m 0
 585 910 607 888 607 861 c 0
 607 834 585 812 557 812 c 0
 531 812 509 834 509 861 c 0
 509 888 531 910 558 910 c 0
EndSplineSet
Ligature: 0 0 'liga' E uni0308
EndChar
StartChar: Eacute
Encoding: 269 201 163
Width: 722
Flags: W
HStem: 0 47<-33 564> 481 241<117 662> 675 47<116 172 117 496>
DStem: 207 599 320 606 79 123 265 401 207 599 511 520 79 123 422 186 207 599 253 354 79 123 194 134
Fore
701 722 m 1xa0
 662 481 l 1
 617 481 l 1xc0
 617 516 l 2
 617 585 608 617 580 642 c 0
 555 664 521 675 478 675 c 2
 420 675 l 2
 345 675 337 670 320 606 c 2
 265 401 l 1
 288 401 l 2
 385 401 437 438 466 526 c 1
 511 520 l 1
 422 186 l 1
 377 194 l 1
 384 226 386 241 386 263 c 0
 386 324 349 354 275 354 c 2
 253 354 l 1
 194 134 l 2
 184 96 183 91 183 79 c 0
 183 55 201 47 253 47 c 2
 307 47 l 2
 388 47 446 65 494 106 c 0
 533 138 552 165 596 245 c 2
 601 253 l 1
 642 245 l 1
 564 0 l 1
 -37 0 l 1
 -32 47 l 1
 -27 47 l 2
 22 47 45 51 56 61 c 0
 64 69 65 70 79 123 c 2
 207 599 l 1
 212 619 216 640 216 648 c 0
 216 670 202 675 137 675 c 2
 111 675 l 1xa0
 117 722 l 1xc0
 701 722 l 1xa0
389 774 m 1
 527 917 l 2
 548 939 562 947 577 947 c 0
 596 947 612 931 612 913 c 0
 612 898 602 884 587 874 c 2
 428 774 l 1
 389 774 l 1
EndSplineSet
Ligature: 0 0 'liga' E acutecomb
EndChar
StartChar: Egrave
Encoding: 270 200 164
Width: 722
Flags: W
HStem: 0 47<-33 564> 481 241<117 662> 675 47<116 172 117 496>
DStem: 207 599 320 606 79 123 265 401 207 599 511 520 79 123 422 186 207 599 253 354 79 123 194 134
Fore
701 722 m 1xa0
 662 481 l 1
 617 481 l 1xc0
 617 516 l 2
 617 585 608 617 580 642 c 0
 555 664 521 675 478 675 c 2
 420 675 l 2
 345 675 337 670 320 606 c 2
 265 401 l 1
 288 401 l 2
 385 401 437 438 466 526 c 1
 511 520 l 1
 422 186 l 1
 377 194 l 1
 384 226 386 241 386 263 c 0
 386 324 349 354 275 354 c 2
 253 354 l 1
 194 134 l 2
 184 96 183 91 183 79 c 0
 183 55 201 47 253 47 c 2
 307 47 l 2
 388 47 446 65 494 106 c 0
 533 138 552 165 596 245 c 2
 601 253 l 1
 642 245 l 1
 564 0 l 1
 -37 0 l 1
 -32 47 l 1
 -27 47 l 2
 22 47 45 51 56 61 c 0
 64 69 65 70 79 123 c 2
 207 599 l 1
 212 619 216 640 216 648 c 0
 216 670 202 675 137 675 c 2
 111 675 l 1xa0
 117 722 l 1xc0
 701 722 l 1xa0
507 774 m 1
 466 774 l 1
 332 881 l 2
 323 889 317 898 317 907 c 0
 317 927 336 946 356 946 c 0
 371 946 376 942 394 918 c 2
 507 774 l 1
EndSplineSet
Ligature: 0 0 'liga' E gravecomb
EndChar
StartChar: Ecircumflex
Encoding: 271 202 165
Width: 722
Flags: W
HStem: 0 47<-33 564> 481 241<117 662> 675 47<116 172 117 496>
DStem: 207 599 320 606 79 123 265 401 207 599 511 520 79 123 422 186 207 599 253 354 79 123 194 134
Fore
701 722 m 1xa0
 662 481 l 1
 617 481 l 1xc0
 617 516 l 2
 617 585 608 617 580 642 c 0
 555 664 521 675 478 675 c 2
 420 675 l 2
 345 675 337 670 320 606 c 2
 265 401 l 1
 288 401 l 2
 385 401 437 438 466 526 c 1
 511 520 l 1
 422 186 l 1
 377 194 l 1
 384 226 386 241 386 263 c 0
 386 324 349 354 275 354 c 2
 253 354 l 1
 194 134 l 2
 184 96 183 91 183 79 c 0
 183 55 201 47 253 47 c 2
 307 47 l 2
 388 47 446 65 494 106 c 0
 533 138 552 165 596 245 c 2
 601 253 l 1
 642 245 l 1
 564 0 l 1
 -37 0 l 1
 -32 47 l 1
 -27 47 l 2
 22 47 45 51 56 61 c 0
 64 69 65 70 79 123 c 2
 207 599 l 1
 212 619 216 640 216 648 c 0
 216 670 202 675 137 675 c 2
 111 675 l 1xa0
 117 722 l 1xc0
 701 722 l 1xa0
504 940 m 1
 595 774 l 1
 559 774 l 1
 473 875 l 1
 337 774 l 1
 301 774 l 1
 454 940 l 1
 504 940 l 1
EndSplineSet
Ligature: 0 0 'liga' E uni0302
EndChar
StartChar: Ecaron
Encoding: 272 282 166
Width: 722
Flags: W
HStem: 0 47<-33 564> 481 241<117 662> 675 47<116 172 117 496>
DStem: 207 599 320 606 79 123 265 401 207 599 511 520 79 123 422 186 207 599 253 354 79 123 194 134
Fore
701 722 m 1xa0
 662 481 l 1
 617 481 l 1xc0
 617 516 l 2
 617 585 608 617 580 642 c 0
 555 664 521 675 478 675 c 2
 420 675 l 2
 345 675 337 670 320 606 c 2
 265 401 l 1
 288 401 l 2
 385 401 437 438 466 526 c 1
 511 520 l 1
 422 186 l 1
 377 194 l 1
 384 226 386 241 386 263 c 0
 386 324 349 354 275 354 c 2
 253 354 l 1
 194 134 l 2
 184 96 183 91 183 79 c 0
 183 55 201 47 253 47 c 2
 307 47 l 2
 388 47 446 65 494 106 c 0
 533 138 552 165 596 245 c 2
 601 253 l 1
 642 245 l 1
 564 0 l 1
 -37 0 l 1
 -32 47 l 1
 -27 47 l 2
 22 47 45 51 56 61 c 0
 64 69 65 70 79 123 c 2
 207 599 l 1
 212 619 216 640 216 648 c 0
 216 670 202 675 137 675 c 2
 111 675 l 1xa0
 117 722 l 1xc0
 701 722 l 1xa0
412 774 m 1
 321 940 l 1
 357 940 l 1
 443 839 l 1
 579 940 l 1
 615 940 l 1
 462 774 l 1
 412 774 l 1
EndSplineSet
Ligature: 0 0 'liga' E uni030C
EndChar
StartChar: Edotaccent
Encoding: 273 278 167
Width: 722
Flags: W
HStem: 0 47<-33 564> 481 241<117 662> 675 47<116 172 117 500> 812 98<442 450>
VStem: 399 98<851.126 864>
DStem: 207 599 320 606 79 123 265 401 207 599 511 520 79 123 422 186 207 599 253 354 79 123 194 134
Fore
701 722 m 1xb8
 662 481 l 1
 617 481 l 1xd8
 617 516 l 2
 617 585 608 617 580 642 c 0
 555 664 521 675 478 675 c 2
 420 675 l 2
 345 675 337 670 320 606 c 2
 265 401 l 1
 288 401 l 2
 385 401 437 438 466 526 c 1
 511 520 l 1
 422 186 l 1
 377 194 l 1
 384 226 386 241 386 263 c 0
 386 324 349 354 275 354 c 2
 253 354 l 1
 194 134 l 2
 184 96 183 91 183 79 c 0
 183 55 201 47 253 47 c 2
 307 47 l 2
 388 47 446 65 494 106 c 0
 533 138 552 165 596 245 c 2
 601 253 l 1
 642 245 l 1
 564 0 l 1
 -37 0 l 1
 -32 47 l 1
 -27 47 l 2
 22 47 45 51 56 61 c 0
 64 69 65 70 79 123 c 2
 207 599 l 1
 212 619 216 640 216 648 c 0
 216 670 202 675 137 675 c 2
 111 675 l 1xb8
 117 722 l 1xd8
 701 722 l 1xb8
448 910 m 0
 475 910 497 888 497 861 c 0
 497 834 475 812 447 812 c 0
 421 812 399 834 399 861 c 0
 399 888 421 910 448 910 c 0
EndSplineSet
Ligature: 0 0 'liga' E uni0307
EndChar
StartChar: Eogonek
Encoding: 274 280 168
Width: 722
Flags: W
HStem: -155 41<546 566> 0 47<-33 528> 481 241<117 662> 675 47<116 172 117 496>
VStem: 477 49<-87 -72>
DStem: 207 599 320 606 79 123 265 401 207 599 511 520 79 123 422 186 207 599 253 354 79 123 194 134
Fore
253 354 m 1xd8
 194 134 l 2
 184 96 183 91 183 79 c 0
 183 55 201 47 253 47 c 2
 307 47 l 2
 388 47 446 65 494 106 c 0
 533 138 552 165 596 245 c 2
 601 253 l 1
 642 245 l 1
 564 0 l 1
 536 -32 526 -52 526 -74 c 0
 526 -95 545 -114 566 -114 c 0
 588 -114 609 -103 638 -77 c 1
 654 -99 l 1
 614 -139 583 -155 546 -155 c 0
 506 -155 477 -127 477 -87 c 0
 477 -54 489 -32 528 0 c 1
 -37 0 l 1
 -32 47 l 1
 -27 47 l 2
 22 47 45 51 56 61 c 0
 64 69 65 70 79 123 c 2
 207 599 l 1
 212 619 216 640 216 648 c 0
 216 670 202 675 137 675 c 2
 111 675 l 1xd8
 117 722 l 1xe8
 701 722 l 1xd8
 662 481 l 1
 617 481 l 1xe8
 617 516 l 2
 617 585 608 617 580 642 c 0
 555 664 521 675 478 675 c 2
 420 675 l 2
 345 675 337 670 320 606 c 2
 265 401 l 1
 288 401 l 2
 385 401 437 438 466 526 c 1
 511 520 l 1
 422 186 l 1
 377 194 l 1
 384 226 386 241 386 263 c 0
 386 324 349 354 275 354 c 2
 253 354 l 1xd8
EndSplineSet
Ligature: 0 0 'liga' E uni0328
EndChar
StartChar: Gbreve
Encoding: 275 286 169
Width: 778
Flags: W
HStem: -15 43<314 347> 285 47<437 504 438 757> 694 43<453 482> 774 63<466 488>
VStem: 39 122<222 273>
Fore
739 715 m 1
 684 434 l 1
 642 441 l 1
 641 510 635 550 618 588 c 0
 589 655 532 694 463 694 c 0
 373 694 297 637 238 525 c 0
 191 435 161 318 161 222 c 0
 161 101 228 28 339 28 c 0
 435 28 501 80 527 178 c 1
 536 209 l 1
 541 229 545 250 545 258 c 0
 545 280 531 285 466 285 c 2
 433 285 l 1
 438 332 l 1
 763 332 l 1
 757 285 l 1
 753 285 l 2
 704 285 681 281 670 271 c 0
 661 264 661 263 647 209 c 1
 587 -14 l 1
 543 -14 l 1
 531 67 l 1
 469 8 409 -15 314 -15 c 0
 142 -15 39 92 39 273 c 0
 39 399 92 522 188 618 c 0
 267 697 357 737 455 737 c 0
 536 737 591 712 643 653 c 1
 705 715 l 1
 739 715 l 1
348 935 m 1
 377 935 l 1
 381 874 421 837 484 837 c 0
 545 837 592 872 617 935 c 1
 648 935 l 1
 630 837 565 774 480 774 c 0
 400 774 347 830 347 914 c 0
 347 918 347 926 348 935 c 1
EndSplineSet
Ligature: 0 0 'liga' G uni0306
EndChar
StartChar: Idieresis
Encoding: 276 207 170
Width: 407
Flags: W
HStem: 0 47<-28 7.40404 222 277> 675 47<120 176 121 426> 812 98<189 197 394 399>
VStem: 146 98<851.126 864> 348 98<851.126 864>
DStem: 207 599 319 599 79 123 191 123
Fore
283 47 m 1
 277 0 l 1
 -33 0 l 1
 -28 47 l 1
 31 48 44 50 56 61 c 0
 65 70 66 73 79 123 c 1
 207 599 l 2
 214 626 217 640 217 648 c 0
 217 670 203 675 137 675 c 2
 115 675 l 1
 121 722 l 1
 431 722 l 1
 426 675 l 1
 368 674 354 672 342 661 c 0
 333 652 333 651 319 599 c 2
 191 123 l 2
 182 89 181 84 181 75 c 0
 181 52 195 47 261 47 c 2
 283 47 l 1
195 910 m 0
 222 910 244 888 244 861 c 0
 244 834 222 812 194 812 c 0
 168 812 146 834 146 861 c 0
 146 888 168 910 195 910 c 0
397 910 m 0
 424 910 446 888 446 861 c 0
 446 834 424 812 396 812 c 0
 370 812 348 834 348 861 c 0
 348 888 370 910 397 910 c 0
EndSplineSet
Ligature: 0 0 'liga' I uni0308
EndChar
StartChar: Iacute
Encoding: 277 205 171
Width: 407
Flags: W
HStem: 0 47<-28 7.40404 222 277> 675 47<120 176 121 426>
DStem: 207 599 319 599 79 123 191 123
Fore
283 47 m 1
 277 0 l 1
 -33 0 l 1
 -28 47 l 1
 31 48 44 50 56 61 c 0
 65 70 66 73 79 123 c 1
 207 599 l 2
 214 626 217 640 217 648 c 0
 217 670 203 675 137 675 c 2
 115 675 l 1
 121 722 l 1
 431 722 l 1
 426 675 l 1
 368 674 354 672 342 661 c 0
 333 652 333 651 319 599 c 2
 191 123 l 2
 182 89 181 84 181 75 c 0
 181 52 195 47 261 47 c 2
 283 47 l 1
185 774 m 1
 323 917 l 2
 344 939 358 947 373 947 c 0
 392 947 408 931 408 913 c 0
 408 898 398 884 383 874 c 2
 224 774 l 1
 185 774 l 1
EndSplineSet
Ligature: 0 0 'liga' I acutecomb
EndChar
StartChar: Igrave
Encoding: 278 204 172
Width: 407
Flags: W
HStem: 0 47<-28 7.40404 222 277> 675 47<120 176 121 426>
DStem: 207 599 319 599 79 123 191 123
Fore
283 47 m 1
 277 0 l 1
 -33 0 l 1
 -28 47 l 1
 31 48 44 50 56 61 c 0
 65 70 66 73 79 123 c 1
 207 599 l 2
 214 626 217 640 217 648 c 0
 217 670 203 675 137 675 c 2
 115 675 l 1
 121 722 l 1
 431 722 l 1
 426 675 l 1
 368 674 354 672 342 661 c 0
 333 652 333 651 319 599 c 2
 191 123 l 2
 182 89 181 84 181 75 c 0
 181 52 195 47 261 47 c 2
 283 47 l 1
369 774 m 1
 328 774 l 1
 194 881 l 2
 185 889 179 898 179 907 c 0
 179 927 198 946 218 946 c 0
 233 946 238 942 256 918 c 2
 369 774 l 1
EndSplineSet
Ligature: 0 0 'liga' I gravecomb
EndChar
StartChar: Icircumflex
Encoding: 279 206 173
Width: 407
Flags: W
HStem: 0 47<-28 7.40404 222 277> 675 47<120 175 121 426>
DStem: 207 599 319 599 79 123 191 123
Fore
283 47 m 1
 277 0 l 1
 -33 0 l 1
 -28 47 l 1
 31 48 44 50 56 61 c 0
 65 70 66 73 79 123 c 1
 207 599 l 2
 214 626 217 640 217 648 c 0
 217 670 203 675 137 675 c 2
 115 675 l 1
 121 722 l 1
 431 722 l 1
 426 675 l 1
 368 674 354 672 342 661 c 0
 333 652 333 651 319 599 c 2
 191 123 l 2
 182 89 181 84 181 75 c 0
 181 52 195 47 261 47 c 2
 283 47 l 1
340 940 m 1
 431 774 l 1
 395 774 l 1
 309 875 l 1
 173 774 l 1
 137 774 l 1
 290 940 l 1
 340 940 l 1
EndSplineSet
Ligature: 0 0 'liga' I uni0302
EndChar
StartChar: Idotaccent
Encoding: 280 304 174
Width: 407
Flags: W
HStem: 0 47<-28 7.40404 222 277> 675 47<120 176 121 426> 812 98<302 321>
VStem: 262 98<851.126 864>
DStem: 207 599 319 599 79 123 191 123
Fore
283 47 m 1
 277 0 l 1
 -33 0 l 1
 -28 47 l 1
 31 48 44 50 56 61 c 0
 65 70 66 73 79 123 c 1
 207 599 l 2
 214 626 217 640 217 648 c 0
 217 670 203 675 137 675 c 2
 115 675 l 1
 121 722 l 1
 431 722 l 1
 426 675 l 1
 368 674 354 672 342 661 c 0
 333 652 333 651 319 599 c 2
 191 123 l 2
 182 89 181 84 181 75 c 0
 181 52 195 47 261 47 c 2
 283 47 l 1
311 910 m 0
 338 910 360 888 360 861 c 0
 360 834 338 812 310 812 c 0
 284 812 262 834 262 861 c 0
 262 888 284 910 311 910 c 0
EndSplineSet
Ligature: 0 0 'liga' I uni0307
EndChar
StartChar: Lacute
Encoding: 281 313 175
Width: 667
Flags: W
HStem: 0 47<-33 552> 675 47<116 172 117 447>
DStem: 207 599 319 599 79 123 194 134
Fore
589 253 m 1
 630 245 l 1
 552 0 l 1
 -37 0 l 1
 -32 47 l 1
 -27 47 l 2
 22 47 45 51 56 61 c 0
 64 69 65 70 79 123 c 2
 207 599 l 1
 212 619 216 640 216 648 c 0
 216 670 202 675 137 675 c 2
 111 675 l 1
 117 722 l 1
 453 722 l 1
 447 675 l 1
 425 675 l 2
 376 675 352 671 342 661 c 0
 333 653 333 653 319 599 c 1
 194 134 l 2
 184 97 183 92 183 79 c 0
 183 55 201 47 253 47 c 2
 295 47 l 2
 437 47 501 92 589 253 c 1
315 774 m 1
 453 917 l 2
 474 939 488 947 503 947 c 0
 522 947 538 931 538 913 c 0
 538 898 528 884 513 874 c 2
 354 774 l 1
 315 774 l 1
EndSplineSet
Ligature: 0 0 'liga' L acutecomb
EndChar
StartChar: Lcaron
Encoding: 282 317 176
Width: 667
Flags: W
HStem: 0 47<-33 552> 633 104<632 644> 675 47<116 172 117 447>
VStem: 584 123<665 681>
DStem: 207 599 319 599 79 123 194 134
Fore
589 253 m 1xb0
 630 245 l 1
 552 0 l 1
 -37 0 l 1
 -32 47 l 1
 -27 47 l 2
 22 47 45 51 56 61 c 0
 64 69 65 70 79 123 c 2
 207 599 l 1
 212 619 216 640 216 648 c 0
 216 670 202 675 137 675 c 2
 111 675 l 1
 117 722 l 1
 453 722 l 1
 447 675 l 1
 425 675 l 2
 376 675 352 671 342 661 c 0
 333 653 333 653 319 599 c 1
 194 134 l 2
 184 97 183 92 183 79 c 0
 183 55 201 47 253 47 c 2
 295 47 l 2
 437 47 501 92 589 253 c 1xb0
547 489 m 1
 535 517 l 1
 602 547 642 589 649 634 c 1
 634 633 l 2
 604 633 584 652 584 681 c 0
 584 712 610 737 644 737 c 0xd0
 680 737 707 707 707 665 c 0
 707 596 644 526 547 489 c 1
EndSplineSet
Ligature: 0 0 'liga' L uni030C
EndChar
StartChar: Nacute
Encoding: 283 323 177
Width: 815
Flags: W
HStem: 0 47<-43 -22.1069 207 228> 675 47<103 177 597 614.679>
DStem: 216 643 256 587 102 217 157 217 256 587 315 722 534 -14 568 170 658 505 712 505 568 170 573 -14
Fore
315 722 m 1
 568 170 l 1
 658 505 l 1
 680 594 681 598 681 620 c 0
 681 657 652 675 591 675 c 1
 597 722 l 1
 859 722 l 1
 854 675 l 1
 770 672 750 649 712 505 c 1
 573 -14 l 1
 534 -14 l 1
 256 587 l 1
 157 217 l 1
 134 128 133 124 133 102 c 0
 133 65 162 47 223 47 c 2
 234 47 l 1
 228 0 l 1
 -48 0 l 1
 -43 47 l 1
 44 49 63 71 102 217 c 2
 216 643 l 1
 208 670 199 675 151 675 c 2
 99 675 l 1
 104 722 l 1
 315 722 l 1
469 774 m 1
 607 917 l 2
 628 939 642 947 657 947 c 0
 676 947 692 931 692 913 c 0
 692 898 682 884 667 874 c 2
 508 774 l 1
 469 774 l 1
EndSplineSet
Ligature: 0 0 'liga' N acutecomb
EndChar
StartChar: Ncaron
Encoding: 284 327 178
Width: 815
Flags: W
HStem: 0 47<-43 -22.1069 207 228> 675 47<103 177 597 614.679>
DStem: 216 643 256 587 102 217 157 217 256 587 315 722 534 -14 568 170 658 505 712 505 568 170 573 -14
Fore
315 722 m 1
 568 170 l 1
 658 505 l 1
 680 594 681 598 681 620 c 0
 681 657 652 675 591 675 c 1
 597 722 l 1
 859 722 l 1
 854 675 l 1
 770 672 750 649 712 505 c 1
 573 -14 l 1
 534 -14 l 1
 256 587 l 1
 157 217 l 1
 134 128 133 124 133 102 c 0
 133 65 162 47 223 47 c 2
 234 47 l 1
 228 0 l 1
 -48 0 l 1
 -43 47 l 1
 44 49 63 71 102 217 c 2
 216 643 l 1
 208 670 199 675 151 675 c 2
 99 675 l 1
 104 722 l 1
 315 722 l 1
465 774 m 1
 374 940 l 1
 410 940 l 1
 496 839 l 1
 632 940 l 1
 668 940 l 1
 515 774 l 1
 465 774 l 1
EndSplineSet
Ligature: 0 0 'liga' N uni030C
EndChar
StartChar: Ntilde
Encoding: 285 209 179
Width: 815
Flags: W
HStem: 0 47<-43 -22.1069 207 228> 675 47<103 177 597 614.679> 813 62<584 598> 856 60<424 439>
DStem: 216 643 256 587 102 217 157 217 256 587 315 722 534 -14 568 170 658 505 712 505 568 170 573 -14
Fore
315 722 m 1xc0
 568 170 l 1
 658 505 l 1
 680 594 681 598 681 620 c 0
 681 657 652 675 591 675 c 1
 597 722 l 1
 859 722 l 1
 854 675 l 1
 770 672 750 649 712 505 c 1
 573 -14 l 1
 534 -14 l 1
 256 587 l 1
 157 217 l 1
 134 128 133 124 133 102 c 0
 133 65 162 47 223 47 c 2
 234 47 l 1
 228 0 l 1
 -48 0 l 1
 -43 47 l 1
 44 49 63 71 102 217 c 2
 216 643 l 1
 208 670 199 675 151 675 c 2
 99 675 l 1
 104 722 l 1
 315 722 l 1xc0
647 917 m 1
 677 917 l 1
 671 861 628 813 584 813 c 0xe0
 562 813 551 816 498 836 c 0
 454 852 438 856 424 856 c 0
 402 856 388 842 379 812 c 1
 349 812 l 1
 361 877 394 916 439 916 c 0xd0
 457 916 479 910 539 890 c 0
 574 877 584 875 598 875 c 0xe0
 620 875 635 887 647 917 c 1
EndSplineSet
Ligature: 0 0 'liga' N tildecomb
EndChar
StartChar: Odieresis
Encoding: 286 214 180
Width: 778
Flags: W
HStem: -15 43<295 329> 694 43<439 473> 812 98<401 409 599 608>
VStem: 40 118<207 275> 355 98<851.126 866> 557 98<851.126 866> 618 117<450 496>
Fore
457 737 m 0xfa
 533 737 604 708 655 658 c 0xfc
 709 605 735 537 735 450 c 0
 735 322 682 196 590 104 c 0
 510 25 417 -15 312 -15 c 0
 146 -15 40 98 40 275 c 0
 40 397 86 514 169 602 c 0
 253 692 349 737 457 737 c 0xfa
460 694 m 0
 391 694 334 662 281 594 c 0
 216 510 158 328 158 207 c 0
 158 97 218 28 314 28 c 0
 392 28 465 71 510 144 c 0
 572 244 618 393 618 496 c 0xfa
 618 543 603 603 584 634 c 0
 563 670 512 694 460 694 c 0
404 910 m 0
 431 910 453 888 453 861 c 0
 453 834 431 812 403 812 c 0
 377 812 355 834 355 861 c 0
 355 888 377 910 404 910 c 0
606 910 m 0
 633 910 655 888 655 861 c 0
 655 834 633 812 605 812 c 0
 579 812 557 834 557 861 c 0xfc
 557 888 579 910 606 910 c 0
EndSplineSet
KernsSLIF: 89 -30 0 0 88 -47 0 0 87 -47 0 0 86 -35 0 0 65 -42 0 0
Ligature: 0 0 'liga' O uni0308
EndChar
StartChar: Oacute
Encoding: 287 211 181
Width: 778
Flags: W
HStem: -15 43<295 329> 694 43<439 472>
VStem: 40 118<207 275> 618 117<450 496>
Fore
457 737 m 0
 533 737 604 708 655 658 c 0
 709 605 735 537 735 450 c 0
 735 322 682 196 590 104 c 0
 510 25 417 -15 312 -15 c 0
 146 -15 40 98 40 275 c 0
 40 397 86 514 169 602 c 0
 253 692 349 737 457 737 c 0
460 694 m 0
 391 694 334 662 281 594 c 0
 216 510 158 328 158 207 c 0
 158 97 218 28 314 28 c 0
 392 28 465 71 510 144 c 0
 572 244 618 393 618 496 c 0
 618 543 603 603 584 634 c 0
 563 670 512 694 460 694 c 0
431 774 m 1
 569 917 l 2
 590 939 604 947 619 947 c 0
 638 947 654 931 654 913 c 0
 654 898 644 884 629 874 c 2
 470 774 l 1
 431 774 l 1
EndSplineSet
KernsSLIF: 89 -30 0 0 87 -47 0 0 86 -35 0 0 65 -42 0 0
Ligature: 0 0 'liga' O acutecomb
EndChar
StartChar: Ograve
Encoding: 288 210 182
Width: 778
Flags: W
HStem: -15 43<295 329> 694 43<439 473>
VStem: 40 118<207 275> 618 117<450 496>
Fore
457 737 m 0
 533 737 604 708 655 658 c 0
 709 605 735 537 735 450 c 0
 735 322 682 196 590 104 c 0
 510 25 417 -15 312 -15 c 0
 146 -15 40 98 40 275 c 0
 40 397 86 514 169 602 c 0
 253 692 349 737 457 737 c 0
460 694 m 0
 391 694 334 662 281 594 c 0
 216 510 158 328 158 207 c 0
 158 97 218 28 314 28 c 0
 392 28 465 71 510 144 c 0
 572 244 618 393 618 496 c 0
 618 543 603 603 584 634 c 0
 563 670 512 694 460 694 c 0
555 774 m 1
 514 774 l 1
 380 881 l 2
 371 889 365 898 365 907 c 0
 365 927 384 946 404 946 c 0
 419 946 424 942 442 918 c 2
 555 774 l 1
EndSplineSet
KernsSLIF: 89 -30 0 0 86 -35 0 0
Ligature: 0 0 'liga' O gravecomb
EndChar
StartChar: Ocircumflex
Encoding: 289 212 183
Width: 778
Flags: W
HStem: -15 43<295 329> 694 43<439 473>
VStem: 40 118<207 275> 618 117<450 496>
Fore
457 737 m 0
 533 737 604 708 655 658 c 0
 709 605 735 537 735 450 c 0
 735 322 682 196 590 104 c 0
 510 25 417 -15 312 -15 c 0
 146 -15 40 98 40 275 c 0
 40 397 86 514 169 602 c 0
 253 692 349 737 457 737 c 0
460 694 m 0
 391 694 334 662 281 594 c 0
 216 510 158 328 158 207 c 0
 158 97 218 28 314 28 c 0
 392 28 465 71 510 144 c 0
 572 244 618 393 618 496 c 0
 618 543 603 603 584 634 c 0
 563 670 512 694 460 694 c 0
539 940 m 1
 630 774 l 1
 594 774 l 1
 508 875 l 1
 372 774 l 1
 336 774 l 1
 489 940 l 1
 539 940 l 1
EndSplineSet
KernsSLIF: 89 -30 0 0 86 -35 0 0
Ligature: 0 0 'liga' O uni0302
EndChar
StartChar: Otilde
Encoding: 290 213 184
Width: 778
Flags: W
HStem: -15 43<295 329> 694 43<439 473> 813 62<586 600> 856 60<426 441>
VStem: 40 118<207 275> 618 117<450 496>
Fore
457 737 m 0xcc
 533 737 604 708 655 658 c 0
 709 605 735 537 735 450 c 0
 735 322 682 196 590 104 c 0
 510 25 417 -15 312 -15 c 0
 146 -15 40 98 40 275 c 0
 40 397 86 514 169 602 c 0
 253 692 349 737 457 737 c 0xcc
460 694 m 0
 391 694 334 662 281 594 c 0
 216 510 158 328 158 207 c 0
 158 97 218 28 314 28 c 0
 392 28 465 71 510 144 c 0
 572 244 618 393 618 496 c 0
 618 543 603 603 584 634 c 0
 563 670 512 694 460 694 c 0
649 917 m 1
 679 917 l 1
 673 861 630 813 586 813 c 0xec
 564 813 553 816 500 836 c 0
 456 852 440 856 426 856 c 0
 404 856 390 842 381 812 c 1
 351 812 l 1
 363 877 396 916 441 916 c 0xdc
 459 916 481 910 541 890 c 0
 576 877 586 875 600 875 c 0xec
 622 875 637 887 649 917 c 1
EndSplineSet
KernsSLIF: 89 -30 0 0 86 -35 0 0
Ligature: 0 0 'liga' O tildecomb
EndChar
StartChar: Ohungarumlaut
Encoding: 291 336 185
Width: 778
Flags: W
HStem: -15 43<295 329> 694 43<439 473>
VStem: 40 118<207 275> 618 117<450 496>
Fore
457 737 m 0
 533 737 604 708 655 658 c 0
 709 605 735 537 735 450 c 0
 735 322 682 196 590 104 c 0
 510 25 417 -15 312 -15 c 0
 146 -15 40 98 40 275 c 0
 40 397 86 514 169 602 c 0
 253 692 349 737 457 737 c 0
460 694 m 0
 391 694 334 662 281 594 c 0
 216 510 158 328 158 207 c 0
 158 97 218 28 314 28 c 0
 392 28 465 71 510 144 c 0
 572 244 618 393 618 496 c 0
 618 543 603 603 584 634 c 0
 563 670 512 694 460 694 c 0
372 774 m 1
 512 917 l 2
 534 939 547 947 562 947 c 0
 581 947 597 931 597 913 c 0
 597 899 587 884 572 874 c 2
 413 774 l 1
 372 774 l 1
533 774 m 1
 673 917 l 2
 695 939 708 947 723 947 c 0
 742 947 758 932 758 913 c 0
 758 898 748 884 733 874 c 2
 574 774 l 1
 533 774 l 1
EndSplineSet
Ligature: 0 0 'liga' O uni030B
EndChar
StartChar: Racute
Encoding: 292 340 186
Width: 741
Flags: W
HStem: 0 47<-37 277> 350 47<260 344> 675 47<112 168 113 456>
VStem: 424 113<96 134> 433 106<202 260> 571 120<556 567>
DStem: 203 599 319 615 75 123 260 397 203 599 248 350 75 123 187 123
Fore
248 350 m 1xec
 187 123 l 1
 177 82 177 82 177 74 c 0
 177 52 191 47 256 47 c 2
 282 47 l 1
 277 0 l 1
 -41 0 l 1
 -36 47 l 1
 -31 47 l 2
 18 47 41 51 52 61 c 0
 60 69 61 70 75 123 c 2
 203 599 l 1
 208 619 212 640 212 648 c 0
 212 670 198 675 133 675 c 2
 107 675 l 1
 113 722 l 1
 433 722 l 2
 517 722 566 714 605 694 c 0
 660 666 691 617 691 558 c 0
 691 493 651 432 589 400 c 0
 553 382 514 373 436 364 c 1
 509 337 539 289 539 202 c 0xec
 539 191 539 179 538 166 c 1
 537 115 l 1
 537 73 546 54 567 54 c 0
 595 54 612 76 637 147 c 1
 673 132 l 1
 634 26 594 -15 530 -15 c 0
 467 -15 424 34 424 106 c 0xf4
 424 125 424 130 430 206 c 0
 432 227 433 248 433 260 c 0
 433 325 401 350 317 350 c 2
 248 350 l 1xec
260 397 m 1
 338 397 l 2
 422 397 452 402 489 424 c 0
 543 456 571 504 571 565 c 0
 571 635 523 675 439 675 c 2
 390 675 l 2
 343 675 333 666 319 615 c 2
 260 397 l 1
352 774 m 1
 490 917 l 2
 511 939 525 947 540 947 c 0
 559 947 575 931 575 913 c 0
 575 898 565 884 550 874 c 2
 391 774 l 1
 352 774 l 1
EndSplineSet
Ligature: 0 0 'liga' R acutecomb
EndChar
StartChar: Rcaron
Encoding: 293 344 187
Width: 741
Flags: W
HStem: 0 47<-37 277> 350 47<260 344> 675 47<112 168 113 461>
VStem: 424 113<96 134> 433 106<202 260> 571 120<556 567>
DStem: 203 599 319 615 75 123 260 397 203 599 248 350 75 123 187 123
Fore
248 350 m 1xec
 187 123 l 1
 177 82 177 82 177 74 c 0
 177 52 191 47 256 47 c 2
 282 47 l 1
 277 0 l 1
 -41 0 l 1
 -36 47 l 1
 -31 47 l 2
 18 47 41 51 52 61 c 0
 60 69 61 70 75 123 c 2
 203 599 l 1
 208 619 212 640 212 648 c 0
 212 670 198 675 133 675 c 2
 107 675 l 1
 113 722 l 1
 433 722 l 2
 517 722 566 714 605 694 c 0
 660 666 691 617 691 558 c 0
 691 493 651 432 589 400 c 0
 553 382 514 373 436 364 c 1
 509 337 539 289 539 202 c 0xec
 539 191 539 179 538 166 c 1
 537 115 l 1
 537 73 546 54 567 54 c 0
 595 54 612 76 637 147 c 1
 673 132 l 1
 634 26 594 -15 530 -15 c 0
 467 -15 424 34 424 106 c 0xf4
 424 125 424 130 430 206 c 0
 432 227 433 248 433 260 c 0
 433 325 401 350 317 350 c 2
 248 350 l 1xec
260 397 m 1
 338 397 l 2
 422 397 452 402 489 424 c 0
 543 456 571 504 571 565 c 0
 571 635 523 675 439 675 c 2
 390 675 l 2
 343 675 333 666 319 615 c 2
 260 397 l 1
428 774 m 1
 337 940 l 1
 373 940 l 1
 459 839 l 1
 595 940 l 1
 631 940 l 1
 478 774 l 1
 428 774 l 1
EndSplineSet
Ligature: 0 0 'liga' R uni030C
EndChar
StartChar: Sacute
Encoding: 294 346 188
Width: 667
Flags: W
HStem: -15 43<287 323> 694 43<349 369>
VStem: 118 91<513 563> 473 96<171 214>
Fore
632 715 m 1
 578 454 l 1
 536 461 l 1
 537 470 537 478 537 481 c 0
 537 613 471 694 365 694 c 0
 276 694 209 637 209 563 c 0
 209 512 244 475 323 444 c 2
 408 410 l 2
 527 363 569 312 569 214 c 0
 569 82 456 -15 300 -15 c 0
 219 -15 150 11 94 63 c 1
 35 0 l 1
 0 0 l 1
 55 285 l 1
 95 278 l 1
 94 267 94 254 94 250 c 0
 94 183 110 134 147 92 c 0
 186 48 234 28 299 28 c 0
 402 28 473 86 473 171 c 0
 473 208 458 237 429 258 c 0
 417 266 405 272 351 294 c 2
 265 330 l 2
 213 352 185 369 165 391 c 0
 135 424 118 468 118 513 c 0
 118 639 223 737 358 737 c 0
 431 737 488 714 540 663 c 1
 594 715 l 1
 632 715 l 1
315 774 m 1
 453 917 l 2
 474 939 488 947 503 947 c 0
 522 947 538 931 538 913 c 0
 538 898 528 884 513 874 c 2
 354 774 l 1
 315 774 l 1
EndSplineSet
Ligature: 0 0 'liga' S acutecomb
EndChar
StartChar: Scaron
Encoding: 295 352 189
Width: 667
Flags: W
HStem: -15 43<278 323> 694 43<349 373>
VStem: 118 91<513 563> 473 96<171 214>
Fore
632 715 m 1
 578 454 l 1
 536 461 l 1
 537 470 537 478 537 481 c 0
 537 613 471 694 365 694 c 0
 276 694 209 637 209 563 c 0
 209 512 244 475 323 444 c 2
 408 410 l 2
 527 363 569 312 569 214 c 0
 569 82 456 -15 300 -15 c 0
 219 -15 150 11 94 63 c 1
 35 0 l 1
 0 0 l 1
 55 285 l 1
 95 278 l 1
 94 267 94 254 94 250 c 0
 94 183 110 134 147 92 c 0
 186 48 234 28 299 28 c 0
 402 28 473 86 473 171 c 0
 473 208 458 237 429 258 c 0
 417 266 405 272 351 294 c 2
 265 330 l 2
 213 352 185 369 165 391 c 0
 135 424 118 468 118 513 c 0
 118 639 223 737 358 737 c 0
 431 737 488 714 540 663 c 1
 594 715 l 1
 632 715 l 1
371 774 m 1
 280 940 l 1
 316 940 l 1
 402 839 l 1
 538 940 l 1
 574 940 l 1
 421 774 l 1
 371 774 l 1
EndSplineSet
Ligature: 0 0 'liga' S uni030C
EndChar
StartChar: Scedilla
Encoding: 296 350 190
Width: 667
Flags: W
HStem: -216 38<239 265> -15 43<299 322.013> 694 43<349 384>
VStem: 118 91<513 563> 306 76<-140 -129> 473 96<171 214>
DStem: 266 -13 300 -15 216 -99 271 -64
Fore
300 -15 m 1
 271 -64 l 1
 285 -62 292 -61 301 -61 c 0
 349 -61 382 -89 382 -129 c 0
 382 -182 333 -216 258 -216 c 0
 225 -216 199 -211 170 -199 c 1
 188 -166 l 1
 212 -174 231 -178 250 -178 c 0
 284 -178 306 -162 306 -138 c 0
 306 -114 287 -99 258 -99 c 0
 248 -99 238 -101 225 -105 c 1
 216 -99 l 1
 266 -13 l 1
 204 -8 135 22 94 63 c 1
 35 0 l 1
 0 0 l 1
 55 285 l 1
 95 278 l 1
 94 267 94 254 94 250 c 0
 94 183 110 134 147 92 c 0
 186 48 234 28 299 28 c 0
 402 28 473 86 473 171 c 0
 473 208 458 237 429 258 c 0
 417 266 405 272 351 294 c 2
 265 330 l 2
 213 352 185 369 165 391 c 0
 135 424 118 468 118 513 c 0
 118 639 223 737 358 737 c 0
 431 737 488 714 540 663 c 1
 594 715 l 1
 632 715 l 1
 578 454 l 1
 536 461 l 1
 537 470 537 478 537 481 c 0
 537 613 471 694 365 694 c 0
 276 694 209 637 209 563 c 0
 209 512 244 475 323 444 c 2
 408 410 l 2
 527 363 569 312 569 214 c 0
 569 81 458 -14 300 -15 c 1
EndSplineSet
Ligature: 0 0 'liga' S uni0327
EndChar
StartChar: Tcaron
Encoding: 297 356 191
Width: 685
Flags: W
HStem: 0 47<84 426> 675 47<128 537>
DStem: 350 633 458 619 214 123 325 123
Fore
726 722 m 1
 684 447 l 1
 642 452 l 1
 644 493 644 504 644 522 c 0
 644 580 630 628 607 650 c 0
 589 666 560 675 522 675 c 2
 508 675 l 2
 477 675 472 670 458 619 c 1
 325 123 l 2
 320 104 316 81 316 74 c 0
 316 52 330 47 395 47 c 2
 432 47 l 1
 426 0 l 1
 80 0 l 1
 85 47 l 1
 107 47 l 2
 156 47 180 51 191 61 c 0
 199 69 200 70 214 123 c 2
 350 633 l 2
 353 644 355 653 355 658 c 0
 355 670 345 675 322 675 c 2
 308 675 l 2
 254 675 207 650 167 598 c 0
 140 564 130 547 81 458 c 1
 40 464 l 1
 128 722 l 1
 726 722 l 1
400 774 m 1
 309 940 l 1
 345 940 l 1
 431 839 l 1
 567 940 l 1
 603 940 l 1
 450 774 l 1
 400 774 l 1
EndSplineSet
Ligature: 0 0 'liga' T uni030C
EndChar
StartChar: Udieresis
Encoding: 298 220 192
Width: 815
Flags: W
HStem: -15 43<341 370> 675 47<104 158 105 417 597 620> 812 98<411 425 615 622>
VStem: 93 110<155 178> 367 98<851.126 866> 569 98<851.126 866>
DStem: 195 599 307 599 113 294 217 266 661 505 715 505 603 290 659 294
Fore
100 675 m 1
 105 722 l 1
 423 722 l 1
 417 675 l 1
 413 675 l 2
 364 675 340 671 330 661 c 0
 321 653 321 653 307 599 c 1
 217 266 l 1
 210 238 203 189 203 163 c 0
 203 78 262 28 364 28 c 0
 441 28 499 56 538 112 c 0
 562 146 574 179 603 290 c 1
 661 505 l 1
 683 594 684 598 684 620 c 0
 684 658 655 676 591 675 c 1
 597 722 l 1
 860 722 l 1
 855 675 l 1
 767 671 758 660 715 505 c 1
 659 294 l 2
 632 192 632 192 618 157 c 0
 587 76 548 33 483 8 c 0
 444 -7 394 -15 343 -15 c 0
 180 -15 93 52 93 176 c 0
 93 210 97 236 113 294 c 1
 195 599 l 1
 200 619 204 640 204 648 c 0
 204 670 190 675 125 675 c 2
 100 675 l 1
416 910 m 0
 443 910 465 888 465 861 c 0
 465 834 443 812 415 812 c 0
 389 812 367 834 367 861 c 0
 367 888 389 910 416 910 c 0
618 910 m 0
 645 910 667 888 667 861 c 0
 667 834 645 812 617 812 c 0
 591 812 569 834 569 861 c 0
 569 888 591 910 618 910 c 0
EndSplineSet
KernsSLIF: 114 -43 0 0 46 -48 0 0 112 -47 0 0 110 -44 0 0 109 -44 0 0 44 -47 0 0 98 8 0 0 65 -50 0 0
Ligature: 0 0 'liga' U uni0308
EndChar
StartChar: Uacute
Encoding: 299 218 193
Width: 815
Flags: W
HStem: -15 43<341 366> 675 47<104 158 105 417 597 620>
VStem: 93 110<155 178>
DStem: 195 599 307 599 113 294 217 266 661 505 715 505 603 290 659 294
Fore
100 675 m 1
 105 722 l 1
 423 722 l 1
 417 675 l 1
 413 675 l 2
 364 675 340 671 330 661 c 0
 321 653 321 653 307 599 c 1
 217 266 l 1
 210 238 203 189 203 163 c 0
 203 78 262 28 364 28 c 0
 441 28 499 56 538 112 c 0
 562 146 574 179 603 290 c 1
 661 505 l 1
 683 594 684 598 684 620 c 0
 684 658 655 676 591 675 c 1
 597 722 l 1
 860 722 l 1
 855 675 l 1
 767 671 758 660 715 505 c 1
 659 294 l 2
 632 192 632 192 618 157 c 0
 587 76 548 33 483 8 c 0
 444 -7 394 -15 343 -15 c 0
 180 -15 93 52 93 176 c 0
 93 210 97 236 113 294 c 1
 195 599 l 1
 200 619 204 640 204 648 c 0
 204 670 190 675 125 675 c 2
 100 675 l 1
476 774 m 1
 614 917 l 2
 635 939 649 947 664 947 c 0
 683 947 699 931 699 913 c 0
 699 898 689 884 674 874 c 2
 515 774 l 1
 476 774 l 1
EndSplineSet
KernsSLIF: 114 -43 0 0 46 -48 0 0 112 -47 0 0 110 -44 0 0 109 -44 0 0 44 -47 0 0 65 -50 0 0
Ligature: 0 0 'liga' U acutecomb
EndChar
StartChar: Ugrave
Encoding: 300 217 194
Width: 815
Flags: W
HStem: -15 43<341 368> 675 47<104 158 105 417 597 620>
VStem: 93 110<155 178>
DStem: 195 599 307 599 113 294 217 266 661 505 715 505 603 290 659 294
Fore
100 675 m 1
 105 722 l 1
 423 722 l 1
 417 675 l 1
 413 675 l 2
 364 675 340 671 330 661 c 0
 321 653 321 653 307 599 c 1
 217 266 l 1
 210 238 203 189 203 163 c 0
 203 78 262 28 364 28 c 0
 441 28 499 56 538 112 c 0
 562 146 574 179 603 290 c 1
 661 505 l 1
 683 594 684 598 684 620 c 0
 684 658 655 676 591 675 c 1
 597 722 l 1
 860 722 l 1
 855 675 l 1
 767 671 758 660 715 505 c 1
 659 294 l 2
 632 192 632 192 618 157 c 0
 587 76 548 33 483 8 c 0
 444 -7 394 -15 343 -15 c 0
 180 -15 93 52 93 176 c 0
 93 210 97 236 113 294 c 1
 195 599 l 1
 200 619 204 640 204 648 c 0
 204 670 190 675 125 675 c 2
 100 675 l 1
540 774 m 1
 499 774 l 1
 365 881 l 2
 356 889 350 898 350 907 c 0
 350 927 369 946 389 946 c 0
 404 946 409 942 427 918 c 2
 540 774 l 1
EndSplineSet
KernsSLIF: 65 -50 0 0
Ligature: 0 0 'liga' U gravecomb
EndChar
StartChar: Ucircumflex
Encoding: 301 219 195
Width: 815
Flags: W
HStem: -15 43<341 366> 675 47<104 158 105 417 597 620>
VStem: 93 110<155 178>
DStem: 195 599 307 599 113 294 217 266 661 505 715 505 603 290 659 294
Fore
100 675 m 1
 105 722 l 1
 423 722 l 1
 417 675 l 1
 413 675 l 2
 364 675 340 671 330 661 c 0
 321 653 321 653 307 599 c 1
 217 266 l 1
 210 238 203 189 203 163 c 0
 203 78 262 28 364 28 c 0
 441 28 499 56 538 112 c 0
 562 146 574 179 603 290 c 1
 661 505 l 1
 683 594 684 598 684 620 c 0
 684 658 655 676 591 675 c 1
 597 722 l 1
 860 722 l 1
 855 675 l 1
 767 671 758 660 715 505 c 1
 659 294 l 2
 632 192 632 192 618 157 c 0
 587 76 548 33 483 8 c 0
 444 -7 394 -15 343 -15 c 0
 180 -15 93 52 93 176 c 0
 93 210 97 236 113 294 c 1
 195 599 l 1
 200 619 204 640 204 648 c 0
 204 670 190 675 125 675 c 2
 100 675 l 1
564 940 m 1
 655 774 l 1
 619 774 l 1
 533 875 l 1
 397 774 l 1
 361 774 l 1
 514 940 l 1
 564 940 l 1
EndSplineSet
KernsSLIF: 65 -50 0 0
Ligature: 0 0 'liga' U uni0302
EndChar
StartChar: Uring
Encoding: 302 366 196
Width: 815
Flags: W
HStem: -15 43<341 366> 675 47<104 158 105 417 597 620> 767 36<536 558> 930 36<546 558>
VStem: 93 110<155 178> 447 36<867 869> 610 36<867 869>
DStem: 195 599 307 599 113 294 217 266 661 505 715 505 603 290 659 294
Fore
100 675 m 1
 105 722 l 1
 423 722 l 1
 417 675 l 1
 413 675 l 2
 364 675 340 671 330 661 c 0
 321 653 321 653 307 599 c 1
 217 266 l 1
 210 238 203 189 203 163 c 0
 203 78 262 28 364 28 c 0
 441 28 499 56 538 112 c 0
 562 146 574 179 603 290 c 1
 661 505 l 1
 683 594 684 598 684 620 c 0
 684 658 655 676 591 675 c 1
 597 722 l 1
 860 722 l 1
 855 675 l 1
 767 671 758 660 715 505 c 1
 659 294 l 2
 632 192 632 192 618 157 c 0
 587 76 548 33 483 8 c 0
 444 -7 394 -15 343 -15 c 0
 180 -15 93 52 93 176 c 0
 93 210 97 236 113 294 c 1
 195 599 l 1
 200 619 204 640 204 648 c 0
 204 670 190 675 125 675 c 2
 100 675 l 1
546 966 m 0
 601 966 646 921 646 867 c 0
 646 811 601 767 545 767 c 0
 492 767 447 813 447 867 c 0
 447 921 492 966 546 966 c 0
546 930 m 0
 512 930 483 901 483 867 c 0
 483 832 512 803 546 803 c 0
 581 803 610 831 610 867 c 0
 610 901 581 930 546 930 c 0
EndSplineSet
Ligature: 0 0 'liga' U uni030A
EndChar
StartChar: Uhungarumlaut
Encoding: 303 368 197
Width: 815
Flags: W
HStem: -15 43<341 366> 675 47<104 158 105 417 597 620>
VStem: 93 110<155 178>
DStem: 195 599 307 599 113 294 217 266 661 505 715 505 603 290 659 294
Fore
100 675 m 1
 105 722 l 1
 423 722 l 1
 417 675 l 1
 413 675 l 2
 364 675 340 671 330 661 c 0
 321 653 321 653 307 599 c 1
 217 266 l 1
 210 238 203 189 203 163 c 0
 203 78 262 28 364 28 c 0
 441 28 499 56 538 112 c 0
 562 146 574 179 603 290 c 1
 661 505 l 1
 683 594 684 598 684 620 c 0
 684 658 655 676 591 675 c 1
 597 722 l 1
 860 722 l 1
 855 675 l 1
 767 671 758 660 715 505 c 1
 659 294 l 2
 632 192 632 192 618 157 c 0
 587 76 548 33 483 8 c 0
 444 -7 394 -15 343 -15 c 0
 180 -15 93 52 93 176 c 0
 93 210 97 236 113 294 c 1
 195 599 l 1
 200 619 204 640 204 648 c 0
 204 670 190 675 125 675 c 2
 100 675 l 1
391 774 m 1
 531 917 l 2
 553 939 566 947 581 947 c 0
 600 947 616 931 616 913 c 0
 616 899 606 884 591 874 c 2
 432 774 l 1
 391 774 l 1
552 774 m 1
 692 917 l 2
 714 939 727 947 742 947 c 0
 761 947 777 932 777 913 c 0
 777 898 767 884 752 874 c 2
 593 774 l 1
 552 774 l 1
EndSplineSet
Ligature: 0 0 'liga' U uni030B
EndChar
StartChar: Yacute
Encoding: 304 221 198
Width: 685
Flags: W
HStem: 0 47<91 433> 675 47<36 65 37 340 475 504>
DStem: 150 606 262 613 270 308 362 364 270 308 382 308 220 123 332 123 532 582 582 564 362 364 382 308
Fore
362 364 m 1
 532 582 l 1
 548 601 558 623 558 636 c 0
 558 660 534 675 494 675 c 2
 471 675 l 1
 476 722 l 1
 758 722 l 1
 753 675 l 1
 681 671 652 652 582 564 c 1
 382 308 l 1
 332 123 l 1
 322 82 322 82 322 74 c 0
 322 52 336 47 402 47 c 2
 438 47 l 1
 433 0 l 1
 86 0 l 1
 92 47 l 1
 114 47 l 2
 163 47 187 51 197 61 c 0
 206 69 206 70 220 123 c 2
 270 308 l 1
 150 606 l 2
 127 662 108 675 49 675 c 2
 32 675 l 1
 37 722 l 1
 345 722 l 1
 340 675 l 1
 312 675 l 2
 268 675 251 668 251 651 c 0
 251 643 255 630 262 613 c 2
 362 364 l 1
364 774 m 1
 502 917 l 2
 523 939 537 947 552 947 c 0
 571 947 587 931 587 913 c 0
 587 898 577 884 562 874 c 2
 403 774 l 1
 364 774 l 1
EndSplineSet
Ligature: 0 0 'liga' Y acutecomb
EndChar
StartChar: Zacute
Encoding: 305 377 199
Width: 667
Flags: W
HStem: 0 47<127 529> 675 47<164 514>
DStem: 514 675 661 683 -19 38 127 47
Fore
667 722 m 1
 661 683 l 1
 127 47 l 1
 262 47 l 2
 360 47 421 68 473 120 c 0
 507 154 526 183 569 268 c 1
 611 256 l 1
 529 0 l 1
 -25 0 l 1
 -19 38 l 1
 514 675 l 1
 418 675 l 2
 335 675 279 662 241 633 c 0
 204 606 194 592 135 492 c 0
 131 484 127 477 124 472 c 1
 83 483 l 1
 164 722 l 1
 667 722 l 1
355 774 m 1
 493 917 l 2
 514 939 528 947 543 947 c 0
 562 947 578 931 578 913 c 0
 578 898 568 884 553 874 c 2
 394 774 l 1
 355 774 l 1
EndSplineSet
Ligature: 0 0 'liga' Z acutecomb
EndChar
StartChar: Zcaron
Encoding: 306 381 200
Width: 667
Flags: W
HStem: 0 47<127 529> 675 47<164 514>
DStem: 514 675 661 683 -19 38 127 47
Fore
667 722 m 1
 661 683 l 1
 127 47 l 1
 262 47 l 2
 360 47 421 68 473 120 c 0
 507 154 526 183 569 268 c 1
 611 256 l 1
 529 0 l 1
 -25 0 l 1
 -19 38 l 1
 514 675 l 1
 418 675 l 2
 335 675 279 662 241 633 c 0
 204 606 194 592 135 492 c 0
 131 484 127 477 124 472 c 1
 83 483 l 1
 164 722 l 1
 667 722 l 1
391 774 m 1
 300 940 l 1
 336 940 l 1
 422 839 l 1
 558 940 l 1
 594 940 l 1
 441 774 l 1
 391 774 l 1
EndSplineSet
Ligature: 0 0 'liga' Z uni030C
EndChar
StartChar: Zdotaccent
Encoding: 307 379 201
Width: 667
Flags: W
HStem: 0 47<127 529> 675 47<164 514> 812 98<438 443>
VStem: 392 98<851.126 864>
DStem: 514 675 661 683 -19 38 127 47
Fore
667 722 m 1
 661 683 l 1
 127 47 l 1
 262 47 l 2
 360 47 421 68 473 120 c 0
 507 154 526 183 569 268 c 1
 611 256 l 1
 529 0 l 1
 -25 0 l 1
 -19 38 l 1
 514 675 l 1
 418 675 l 2
 335 675 279 662 241 633 c 0
 204 606 194 592 135 492 c 0
 131 484 127 477 124 472 c 1
 83 483 l 1
 164 722 l 1
 667 722 l 1
441 910 m 0
 468 910 490 888 490 861 c 0
 490 834 468 812 440 812 c 0
 414 812 392 834 392 861 c 0
 392 888 414 910 441 910 c 0
EndSplineSet
Ligature: 0 0 'liga' Z uni0307
EndChar
StartChar: Amacron
Encoding: 308 256 202
Width: 704
Flags: W
HStem: 0 47<-77 -61.2657 157 187 366 663> 238 47<200 428> 717 20G<401 442> 823 54<292 583>
DStem: 363 572 442 737 420 285 567 108 401 737 363 572 71 168 200 285 401 737 173 238 71 168 118 142 428 238 442 737 451 115 567 108
Fore
442 737 m 1
 567 108 l 1
 577 56 588 47 643 47 c 2
 668 47 l 1
 663 0 l 1
 362 0 l 1
 367 47 l 1
 383 47 l 2
 440 47 455 54 455 83 c 0
 455 90 453 103 451 115 c 1
 428 238 l 1
 173 238 l 1
 118 142 l 2
 106 122 100 102 100 87 c 0
 100 57 117 47 169 47 c 2
 193 47 l 1
 187 0 l 1
 -82 0 l 1
 -77 47 l 1
 -23 47 18 80 71 168 c 1
 401 737 l 1
 442 737 l 1
420 285 m 1
 363 572 l 1
 200 285 l 1
 420 285 l 1
293 877 m 1
 594 877 l 1
 583 823 l 1
 282 823 l 1
 293 877 l 1
EndSplineSet
Ligature: 0 0 'liga' A uni0304
EndChar
StartChar: Tcommaaccent
Encoding: 309 354 203
Width: 685
Flags: W
HStem: -144 104<210 222> 0 47<84 426> 675 47<128 537>
VStem: 162 123<-112 -96>
DStem: 350 633 458 619 214 123 325 123
Fore
726 722 m 1
 684 447 l 1
 642 452 l 1
 644 493 644 504 644 522 c 0
 644 580 630 628 607 650 c 0
 589 666 560 675 522 675 c 2
 508 675 l 2
 477 675 472 670 458 619 c 1
 325 123 l 2
 320 104 316 81 316 74 c 0
 316 52 330 47 395 47 c 2
 432 47 l 1
 426 0 l 1
 80 0 l 1
 85 47 l 1
 107 47 l 2
 156 47 180 51 191 61 c 0
 199 69 200 70 214 123 c 2
 350 633 l 2
 353 644 355 653 355 658 c 0
 355 670 345 675 322 675 c 2
 308 675 l 2
 254 675 207 650 167 598 c 0
 140 564 130 547 81 458 c 1
 40 464 l 1
 128 722 l 1
 726 722 l 1
125 -288 m 1
 113 -260 l 1
 180 -230 220 -188 227 -143 c 1
 212 -144 l 2
 182 -144 162 -125 162 -96 c 0
 162 -65 188 -40 222 -40 c 0
 258 -40 285 -70 285 -112 c 0
 285 -181 222 -251 125 -288 c 1
EndSplineSet
Ligature: 0 0 'liga' T uni0327
EndChar
StartChar: Ydieresis
Encoding: 310 376 204
Width: 685
Flags: W
HStem: 0 47<91 433> 675 47<36 65 37 340 475 496> 812 98<319 337 526 535>
VStem: 278 98<851.126 864> 480 98<851.126 864>
DStem: 150 606 262 613 270 308 362 364 270 308 382 308 220 123 332 123 532 582 582 564 362 364 382 308
Fore
362 364 m 1
 532 582 l 1
 548 601 558 623 558 636 c 0
 558 660 534 675 494 675 c 2
 471 675 l 1
 476 722 l 1
 758 722 l 1
 753 675 l 1
 681 671 652 652 582 564 c 1
 382 308 l 1
 332 123 l 1
 322 82 322 82 322 74 c 0
 322 52 336 47 402 47 c 2
 438 47 l 1
 433 0 l 1
 86 0 l 1
 92 47 l 1
 114 47 l 2
 163 47 187 51 197 61 c 0
 206 69 206 70 220 123 c 2
 270 308 l 1
 150 606 l 2
 127 662 108 675 49 675 c 2
 32 675 l 1
 37 722 l 1
 345 722 l 1
 340 675 l 1
 312 675 l 2
 268 675 251 668 251 651 c 0
 251 643 255 630 262 613 c 2
 362 364 l 1
327 910 m 0
 354 910 376 888 376 861 c 0
 376 834 354 812 326 812 c 0
 300 812 278 834 278 861 c 0
 278 888 300 910 327 910 c 0
529 910 m 0
 556 910 578 888 578 861 c 0
 578 834 556 812 528 812 c 0
 502 812 480 834 480 861 c 0
 480 888 502 910 529 910 c 0
EndSplineSet
Ligature: 0 0 'liga' Y uni0308
EndChar
StartChar: Emacron
Encoding: 311 274 205
Width: 722
Flags: W
HStem: 0 47<-33 564> 481 241<117 662> 675 47<116 172 117 496> 823 54<301 592>
DStem: 207 599 320 606 79 123 265 401 207 599 511 520 79 123 422 186 207 599 253 354 79 123 194 134
Fore
701 722 m 1xb0
 662 481 l 1
 617 481 l 1xd0
 617 516 l 2
 617 585 608 617 580 642 c 0
 555 664 521 675 478 675 c 2
 420 675 l 2
 345 675 337 670 320 606 c 2
 265 401 l 1
 288 401 l 2
 385 401 437 438 466 526 c 1
 511 520 l 1
 422 186 l 1
 377 194 l 1
 384 226 386 241 386 263 c 0
 386 324 349 354 275 354 c 2
 253 354 l 1
 194 134 l 2
 184 96 183 91 183 79 c 0
 183 55 201 47 253 47 c 2
 307 47 l 2
 388 47 446 65 494 106 c 0
 533 138 552 165 596 245 c 2
 601 253 l 1
 642 245 l 1
 564 0 l 1
 -37 0 l 1
 -32 47 l 1
 -27 47 l 2
 22 47 45 51 56 61 c 0
 64 69 65 70 79 123 c 2
 207 599 l 1
 212 619 216 640 216 648 c 0
 216 670 202 675 137 675 c 2
 111 675 l 1xb0
 117 722 l 1xd0
 701 722 l 1xb0
302 877 m 1
 603 877 l 1
 592 823 l 1
 291 823 l 1
 302 877 l 1
EndSplineSet
Ligature: 0 0 'liga' E uni0304
EndChar
StartChar: Imacron
Encoding: 312 298 206
Width: 407
Flags: W
HStem: 0 47<-28 7.40404 222 277> 675 47<120 176 121 426> 823 54<163 454>
DStem: 207 599 319 599 79 123 191 123
Fore
283 47 m 1
 277 0 l 1
 -33 0 l 1
 -28 47 l 1
 31 48 44 50 56 61 c 0
 65 70 66 73 79 123 c 1
 207 599 l 2
 214 626 217 640 217 648 c 0
 217 670 203 675 137 675 c 2
 115 675 l 1
 121 722 l 1
 431 722 l 1
 426 675 l 1
 368 674 354 672 342 661 c 0
 333 652 333 651 319 599 c 2
 191 123 l 2
 182 89 181 84 181 75 c 0
 181 52 195 47 261 47 c 2
 283 47 l 1
164 877 m 1
 465 877 l 1
 454 823 l 1
 153 823 l 1
 164 877 l 1
EndSplineSet
Ligature: 0 0 'liga' I uni0304
EndChar
StartChar: Iogonek
Encoding: 313 302 207
Width: 407
Flags: W
HStem: -155 41<260 280> 0 47<-28 7.40404 222 261> 675 47<120 176 121 426>
VStem: 190 49<-87 -72>
DStem: 207 599 319 599 79 123 191 123
Fore
121 722 m 1
 431 722 l 1
 426 675 l 1
 368 674 354 672 342 661 c 0
 333 652 333 651 319 599 c 2
 191 123 l 2
 182 89 181 84 181 75 c 0
 181 52 195 47 261 47 c 2
 283 47 l 1
 277 0 l 1
 249 -33 239 -52 239 -74 c 0
 239 -95 259 -114 280 -114 c 0
 301 -114 323 -103 351 -77 c 1
 367 -99 l 1
 327 -139 297 -155 260 -155 c 0
 219 -155 190 -127 190 -87 c 0
 190 -54 202 -32 241 0 c 1
 -33 0 l 1
 -28 47 l 1
 31 48 44 50 56 61 c 0
 65 70 66 73 79 123 c 1
 207 599 l 2
 214 626 217 640 217 648 c 0
 217 670 203 675 137 675 c 2
 115 675 l 1
 121 722 l 1
EndSplineSet
Ligature: 0 0 'liga' I uni0328
EndChar
StartChar: Kcommaaccent
Encoding: 314 310 208
Width: 741
Flags: W
HStem: -144 104<278 290> 0 47<-36 278 368 691> 675 47<113 169 114 426 513 553>
VStem: 230 123<-112 -96>
DStem: 204 599 315 599 76 123 247 342 204 599 224 257 76 123 188 123 337 350 420 420 454 104 572 105 535 582 608 577 247 342 420 420 535 582 337 350 247 342 224 257
Fore
247 342 m 1
 535 582 l 2
 573 613 589 633 589 650 c 0
 589 669 575 675 530 675 c 2
 508 675 l 1
 514 722 l 1
 814 722 l 1
 809 675 l 1
 729 669 687 649 608 577 c 1
 420 420 l 1
 572 105 l 2
 600 47 600 47 666 47 c 2
 697 47 l 1
 691 0 l 1
 364 0 l 1
 369 47 l 1
 402 47 l 2
 455 47 470 51 470 65 c 0
 470 71 470 71 454 104 c 2
 337 350 l 1
 224 257 l 1
 188 123 l 1
 178 82 178 82 178 74 c 0
 178 52 192 47 257 47 c 2
 283 47 l 1
 278 0 l 1
 -40 0 l 1
 -35 47 l 1
 -30 47 l 2
 19 47 42 51 53 61 c 0
 61 68 62 69 76 123 c 1
 204 599 l 1
 209 619 213 640 213 648 c 0
 213 670 199 675 134 675 c 2
 108 675 l 1
 114 722 l 1
 431 722 l 1
 426 675 l 1
 422 675 l 2
 373 675 349 671 339 661 c 1
 330 654 330 654 315 599 c 1
 247 342 l 1
193 -288 m 1
 181 -260 l 1
 248 -230 288 -188 295 -143 c 1
 280 -144 l 2
 250 -144 230 -125 230 -96 c 0
 230 -65 256 -40 290 -40 c 0
 326 -40 353 -70 353 -112 c 0
 353 -181 290 -251 193 -288 c 1
EndSplineSet
Ligature: 0 0 'liga' K uni0327
EndChar
StartChar: Lcommaaccent
Encoding: 315 315 209
Width: 667
Flags: W
HStem: -144 104<201 213> 0 47<-33 552> 675 47<116 172 117 447>
VStem: 153 123<-112 -96>
DStem: 207 599 319 599 79 123 194 134
Fore
589 253 m 1
 630 245 l 1
 552 0 l 1
 -37 0 l 1
 -32 47 l 1
 -27 47 l 2
 22 47 45 51 56 61 c 0
 64 69 65 70 79 123 c 2
 207 599 l 1
 212 619 216 640 216 648 c 0
 216 670 202 675 137 675 c 2
 111 675 l 1
 117 722 l 1
 453 722 l 1
 447 675 l 1
 425 675 l 2
 376 675 352 671 342 661 c 0
 333 653 333 653 319 599 c 1
 194 134 l 2
 184 97 183 92 183 79 c 0
 183 55 201 47 253 47 c 2
 295 47 l 2
 437 47 501 92 589 253 c 1
116 -288 m 1
 104 -260 l 1
 171 -230 211 -188 218 -143 c 1
 203 -144 l 2
 173 -144 153 -125 153 -96 c 0
 153 -65 179 -40 213 -40 c 0
 249 -40 276 -70 276 -112 c 0
 276 -181 213 -251 116 -288 c 1
EndSplineSet
Ligature: 0 0 'liga' L uni0327
EndChar
StartChar: Ncommaaccent
Encoding: 316 325 210
Width: 815
Flags: W
HStem: -144 104<275 287> 0 47<-43 -22.1069 207 228> 675 47<103 179 597 614.679>
VStem: 227 123<-112 -96>
DStem: 216 643 256 587 102 217 157 217 256 587 315 722 534 -14 568 170 658 505 712 505 568 170 573 -14
Fore
315 722 m 1
 568 170 l 1
 658 505 l 1
 680 594 681 598 681 620 c 0
 681 657 652 675 591 675 c 1
 597 722 l 1
 859 722 l 1
 854 675 l 1
 770 672 750 649 712 505 c 1
 573 -14 l 1
 534 -14 l 1
 256 587 l 1
 157 217 l 1
 134 128 133 124 133 102 c 0
 133 65 162 47 223 47 c 2
 234 47 l 1
 228 0 l 1
 -48 0 l 1
 -43 47 l 1
 44 49 63 71 102 217 c 2
 216 643 l 1
 208 670 199 675 151 675 c 2
 99 675 l 1
 104 722 l 1
 315 722 l 1
190 -288 m 1
 178 -260 l 1
 245 -230 285 -188 292 -143 c 1
 277 -144 l 2
 247 -144 227 -125 227 -96 c 0
 227 -65 253 -40 287 -40 c 0
 323 -40 350 -70 350 -112 c 0
 350 -181 287 -251 190 -288 c 1
EndSplineSet
Ligature: 0 0 'liga' N uni0327
EndChar
StartChar: Omacron
Encoding: 317 332 211
Width: 778
Flags: W
HStem: -15 43<295 329> 694 43<439 473> 823 54<369 660>
VStem: 40 118<207 275> 618 117<450 496>
Fore
457 737 m 0
 533 737 604 708 655 658 c 0
 709 605 735 537 735 450 c 0
 735 322 682 196 590 104 c 0
 510 25 417 -15 312 -15 c 0
 146 -15 40 98 40 275 c 0
 40 397 86 514 169 602 c 0
 253 692 349 737 457 737 c 0
460 694 m 0
 391 694 334 662 281 594 c 0
 216 510 158 328 158 207 c 0
 158 97 218 28 314 28 c 0
 392 28 465 71 510 144 c 0
 572 244 618 393 618 496 c 0
 618 543 603 603 584 634 c 0
 563 670 512 694 460 694 c 0
370 877 m 1
 671 877 l 1
 660 823 l 1
 359 823 l 1
 370 877 l 1
EndSplineSet
Ligature: 0 0 'liga' O uni0304
EndChar
StartChar: Rcommaaccent
Encoding: 318 342 212
Width: 741
Flags: W
HStem: -144 104<238 250> 0 47<-37 277> 350 47<260 344> 675 47<112 168 113 456>
VStem: 190 123<-112 -96> 424 113<95 134> 433 106<202 260> 571 120<556 577>
DStem: 203 599 319 615 75 123 260 397 203 599 248 350 75 123 187 123
Fore
248 350 m 1xfb
 187 123 l 1
 177 82 177 82 177 74 c 0
 177 52 191 47 256 47 c 2
 282 47 l 1
 277 0 l 1
 -41 0 l 1
 -36 47 l 1
 -31 47 l 2
 18 47 41 51 52 61 c 0
 60 69 61 70 75 123 c 2
 203 599 l 1
 208 619 212 640 212 648 c 0
 212 670 198 675 133 675 c 2
 107 675 l 1
 113 722 l 1
 433 722 l 2
 517 722 566 714 605 694 c 0
 660 666 691 617 691 558 c 0
 691 493 651 432 589 400 c 0
 553 382 514 373 436 364 c 1
 509 337 539 289 539 202 c 0xfb
 539 191 539 179 538 166 c 1
 537 115 l 1
 537 73 546 54 567 54 c 0
 595 54 612 76 637 147 c 1
 673 132 l 1
 634 26 594 -15 530 -15 c 0
 467 -15 424 34 424 106 c 0xfd
 424 125 424 130 430 206 c 0
 432 227 433 248 433 260 c 0
 433 325 401 350 317 350 c 2
 248 350 l 1xfb
260 397 m 1
 338 397 l 2
 422 397 452 402 489 424 c 0
 543 456 571 504 571 565 c 0
 571 635 523 675 439 675 c 2
 390 675 l 2
 343 675 333 666 319 615 c 2
 260 397 l 1
153 -288 m 1
 141 -260 l 1
 208 -230 248 -188 255 -143 c 1
 240 -144 l 2
 210 -144 190 -125 190 -96 c 0
 190 -65 216 -40 250 -40 c 0
 286 -40 313 -70 313 -112 c 0
 313 -181 250 -251 153 -288 c 1
EndSplineSet
Ligature: 0 0 'liga' R uni0327
EndChar
StartChar: Gcommaaccent
Encoding: 319 290 213
Width: 778
Flags: W
HStem: -144 104<257 269> -15 43<314 344> 285 47<437 504 438 757> 694 43<453 472>
VStem: 39 122<222 273> 209 123<-112 -96>
Fore
739 715 m 1
 684 434 l 1
 642 441 l 1
 641 510 635 550 618 588 c 0
 589 655 532 694 463 694 c 0
 373 694 297 637 238 525 c 0
 191 435 161 318 161 222 c 0
 161 101 228 28 339 28 c 0
 435 28 501 80 527 178 c 1
 536 209 l 1
 541 229 545 250 545 258 c 0
 545 280 531 285 466 285 c 2
 433 285 l 1
 438 332 l 1
 763 332 l 1
 757 285 l 1
 753 285 l 2
 704 285 681 281 670 271 c 0
 661 264 661 263 647 209 c 1
 587 -14 l 1
 543 -14 l 1
 531 67 l 1
 469 8 409 -15 314 -15 c 0
 142 -15 39 92 39 273 c 0
 39 399 92 522 188 618 c 0
 267 697 357 737 455 737 c 0
 536 737 591 712 643 653 c 1
 705 715 l 1
 739 715 l 1
172 -288 m 1
 160 -260 l 1
 227 -230 267 -188 274 -143 c 1
 259 -144 l 2
 229 -144 209 -125 209 -96 c 0
 209 -65 235 -40 269 -40 c 0
 305 -40 332 -70 332 -112 c 0
 332 -181 269 -251 172 -288 c 1
EndSplineSet
Ligature: 0 0 'liga' G uni0327
EndChar
StartChar: Umacron
Encoding: 320 362 214
Width: 815
Flags: W
HStem: -15 43<341 366> 675 47<104 158 105 417 597 620> 823 54<407 698>
VStem: 93 110<155 178>
DStem: 195 599 307 599 113 294 217 266 661 505 715 505 603 290 659 294
Fore
100 675 m 1
 105 722 l 1
 423 722 l 1
 417 675 l 1
 413 675 l 2
 364 675 340 671 330 661 c 0
 321 653 321 653 307 599 c 1
 217 266 l 1
 210 238 203 189 203 163 c 0
 203 78 262 28 364 28 c 0
 441 28 499 56 538 112 c 0
 562 146 574 179 603 290 c 1
 661 505 l 1
 683 594 684 598 684 620 c 0
 684 658 655 676 591 675 c 1
 597 722 l 1
 860 722 l 1
 855 675 l 1
 767 671 758 660 715 505 c 1
 659 294 l 2
 632 192 632 192 618 157 c 0
 587 76 548 33 483 8 c 0
 444 -7 394 -15 343 -15 c 0
 180 -15 93 52 93 176 c 0
 93 210 97 236 113 294 c 1
 195 599 l 1
 200 619 204 640 204 648 c 0
 204 670 190 675 125 675 c 2
 100 675 l 1
408 877 m 1
 709 877 l 1
 698 823 l 1
 397 823 l 1
 408 877 l 1
EndSplineSet
Ligature: 0 0 'liga' U uni0304
EndChar
StartChar: Uogonek
Encoding: 321 370 215
Width: 815
Flags: W
HStem: -155 41<465 485> -15 43<341 366> 675 47<104 158 105 417 597 618.818>
VStem: 93 110<161 182> 396 49<-87 -74>
DStem: 195 599 307 599 113 294 217 266 661 505 715 505 603 290 659 294
Fore
597 722 m 1
 860 722 l 1
 855 675 l 1
 767 671 758 660 715 505 c 1
 659 294 l 1
 615 120 593 79 518 25 c 0
 483 0 471 -11 461 -27 c 0
 451 -43 445 -62 445 -76 c 0
 445 -95 465 -114 485 -114 c 0
 507 -114 528 -103 557 -77 c 1
 573 -99 l 1
 533 -139 502 -155 465 -155 c 0
 425 -155 396 -127 396 -87 c 0
 396 -56 409 -32 441 -5 c 1
 405 -12 378 -15 343 -15 c 0
 180 -15 93 52 93 176 c 0
 93 210 97 236 113 294 c 1
 195 599 l 1
 200 619 204 640 204 648 c 0
 204 670 190 675 125 675 c 2
 100 675 l 1
 105 722 l 1
 423 722 l 1
 417 675 l 1
 413 675 l 2
 364 675 340 671 330 661 c 0
 321 653 321 653 307 599 c 1
 217 266 l 1
 210 238 203 189 203 163 c 0
 203 78 262 28 364 28 c 0
 441 28 499 56 538 112 c 0
 562 146 574 179 603 290 c 1
 661 505 l 1
 683 594 684 598 684 620 c 0
 684 658 655 676 591 675 c 1
 597 722 l 1
EndSplineSet
Ligature: 0 0 'liga' U uni0328
EndChar
StartChar: adieresis
Encoding: 322 228 216
Width: 574
Flags: W
HStem: -15 51<149 172> 415 55<247 264> 546 98<229 231 421.089 434>
VStem: 1 91<126 160> 180 98<595 597> 296 76<50 65> 382 98<595 597>
DStem: 396 455 483 455 369 365 383 119
Fore
396 455 m 1
 483 455 l 1
 383 119 l 1
 376 94 372 75 372 65 c 0
 372 51 382 40 393 40 c 0
 419 40 454 82 492 158 c 1
 523 141 l 1
 511 114 494 86 474 58 c 0
 439 9 401 -15 357 -15 c 0
 321 -15 296 11 296 50 c 0
 296 60 297 67 301 82 c 1
 251 10 211 -15 149 -15 c 0
 60 -15 1 50 1 148 c 0
 1 228 31 312 82 378 c 0
 129 438 186 470 247 470 c 0
 312 470 362 427 369 365 c 1
 396 455 l 1
264 415 m 0
 234 415 206 403 184 380 c 0
 131 326 92 222 92 134 c 0
 92 73 122 36 172 36 c 0
 222 36 258 64 289 126 c 0
 320 189 340 269 340 326 c 0
 340 381 311 415 264 415 c 0
229 644 m 0
 256 644 278 622 278 595 c 0
 278 568 256 546 229 546 c 0
 202 546 180 568 180 595 c 0
 180 622 202 644 229 644 c 0
431 644 m 0
 458 644 480 622 480 595 c 0
 480 568 458 546 431 546 c 0
 404 546 382 568 382 595 c 0
 382 622 404 644 431 644 c 0
EndSplineSet
KernsSLIF: 121 -37 0 0 119 -18 0 0 118 -21 0 0
Ligature: 0 0 'liga' a uni0308
EndChar
StartChar: aacute
Encoding: 323 225 217
Width: 574
Flags: W
HStem: -15 51<149 172> 415 55<247 264> 669 20G<433.5 450.5>
VStem: 1 91<126 160> 296 76<50 65>
DStem: 396 455 483 455 369 365 383 119
Fore
396 455 m 1
 483 455 l 1
 383 119 l 1
 376 94 372 75 372 65 c 0
 372 51 382 40 393 40 c 0
 419 40 454 82 492 158 c 1
 523 141 l 1
 511 114 494 86 474 58 c 0
 439 9 401 -15 357 -15 c 0
 321 -15 296 11 296 50 c 0
 296 60 297 67 301 82 c 1
 251 10 211 -15 149 -15 c 0
 60 -15 1 50 1 148 c 0
 1 228 31 312 82 378 c 0
 129 438 186 470 247 470 c 0
 312 470 362 427 369 365 c 1
 396 455 l 1
264 415 m 0
 234 415 206 403 184 380 c 0
 131 326 92 222 92 134 c 0
 92 73 122 36 172 36 c 0
 222 36 258 64 289 126 c 0
 320 189 340 269 340 326 c 0
 340 381 311 415 264 415 c 0
253 519 m 1
 391 659 l 1
 415 682 426 689 441 689 c 0
 460 689 476 673 476 654 c 0
 476 640 466 625 451 615 c 2
 292 519 l 1
 253 519 l 1
EndSplineSet
KernsSLIF: 121 -37 0 0 119 -18 0 0 118 -21 0 0
Ligature: 0 0 'liga' a acutecomb
EndChar
StartChar: agrave
Encoding: 324 224 218
Width: 574
Flags: W
HStem: -15 51<149 172> 415 55<247 264> 671 20G<210 227>
VStem: 1 91<126 160> 296 76<50 65>
DStem: 396 455 483 455 369 365 383 119
Fore
396 455 m 1
 483 455 l 1
 383 119 l 1
 376 94 372 75 372 65 c 0
 372 51 382 40 393 40 c 0
 419 40 454 82 492 158 c 1
 523 141 l 1
 511 114 494 86 474 58 c 0
 439 9 401 -15 357 -15 c 0
 321 -15 296 11 296 50 c 0
 296 60 297 67 301 82 c 1
 251 10 211 -15 149 -15 c 0
 60 -15 1 50 1 148 c 0
 1 228 31 312 82 378 c 0
 129 438 186 470 247 470 c 0
 312 470 362 427 369 365 c 1
 396 455 l 1
264 415 m 0
 234 415 206 403 184 380 c 0
 131 326 92 222 92 134 c 0
 92 73 122 36 172 36 c 0
 222 36 258 64 289 126 c 0
 320 189 340 269 340 326 c 0
 340 381 311 415 264 415 c 0
371 519 m 1
 330 519 l 1
 196 626 l 2
 187 633 181 643 181 652 c 0
 181 672 200 691 220 691 c 0
 234 691 240 687 258 663 c 2
 371 519 l 1
EndSplineSet
KernsSLIF: 121 -37 0 0 119 -18 0 0 118 -21 0 0
Ligature: 0 0 'liga' a gravecomb
EndChar
StartChar: acircumflex
Encoding: 325 226 219
Width: 574
Flags: W
HStem: -15 51<149 172> 415 55<247 264> 668 20G<317 367>
VStem: 1 91<126 160> 296 76<50 65>
DStem: 396 455 483 455 369 365 383 119
Fore
396 455 m 1
 483 455 l 1
 383 119 l 1
 376 94 372 75 372 65 c 0
 372 51 382 40 393 40 c 0
 419 40 454 82 492 158 c 1
 523 141 l 1
 511 114 494 86 474 58 c 0
 439 9 401 -15 357 -15 c 0
 321 -15 296 11 296 50 c 0
 296 60 297 67 301 82 c 1
 251 10 211 -15 149 -15 c 0
 60 -15 1 50 1 148 c 0
 1 228 31 312 82 378 c 0
 129 438 186 470 247 470 c 0
 312 470 362 427 369 365 c 1
 396 455 l 1
264 415 m 0
 234 415 206 403 184 380 c 0
 131 326 92 222 92 134 c 0
 92 73 122 36 172 36 c 0
 222 36 258 64 289 126 c 0
 320 189 340 269 340 326 c 0
 340 381 311 415 264 415 c 0
367 688 m 1
 458 519 l 1
 422 519 l 1
 336 623 l 1
 200 519 l 1
 164 519 l 1
 317 688 l 1
 367 688 l 1
EndSplineSet
Ligature: 0 0 'liga' a uni0302
EndChar
StartChar: abreve
Encoding: 326 259 220
Width: 574
Flags: W
HStem: -15 51<149 172> 415 55<247 264> 518 63<320 342>
VStem: 1 91<126 160> 296 76<50 65>
DStem: 396 455 483 455 369 365 383 119
Fore
396 455 m 1
 483 455 l 1
 383 119 l 1
 376 94 372 75 372 65 c 0
 372 51 382 40 393 40 c 0
 419 40 454 82 492 158 c 1
 523 141 l 1
 511 114 494 86 474 58 c 0
 439 9 401 -15 357 -15 c 0
 321 -15 296 11 296 50 c 0
 296 60 297 67 301 82 c 1
 251 10 211 -15 149 -15 c 0
 60 -15 1 50 1 148 c 0
 1 228 31 312 82 378 c 0
 129 438 186 470 247 470 c 0
 312 470 362 427 369 365 c 1
 396 455 l 1
264 415 m 0
 234 415 206 403 184 380 c 0
 131 326 92 222 92 134 c 0
 92 73 122 36 172 36 c 0
 222 36 258 64 289 126 c 0
 320 189 340 269 340 326 c 0
 340 381 311 415 264 415 c 0
190 677 m 1
 220 677 l 1
 223 617 264 581 327 581 c 0
 387 581 434 615 459 677 c 1
 490 677 l 1
 472 580 407 518 323 518 c 0
 244 518 189 574 189 653 c 0
 189 658 189 667 190 677 c 1
EndSplineSet
Ligature: 0 0 'liga' a uni0306
EndChar
StartChar: atilde
Encoding: 327 227 221
Width: 574
Flags: W
HStem: -15 51<149 172> 415 55<247 264> 545 63<414 428> 589 60<254 269>
VStem: 1 91<126 160> 296 76<50 65>
DStem: 396 455 483 455 369 365 383 119
Fore
396 455 m 1xcc
 483 455 l 1
 383 119 l 1
 376 94 372 75 372 65 c 0
 372 51 382 40 393 40 c 0
 419 40 454 82 492 158 c 1
 523 141 l 1
 511 114 494 86 474 58 c 0
 439 9 401 -15 357 -15 c 0
 321 -15 296 11 296 50 c 0
 296 60 297 67 301 82 c 1
 251 10 211 -15 149 -15 c 0
 60 -15 1 50 1 148 c 0
 1 228 31 312 82 378 c 0
 129 438 186 470 247 470 c 0
 312 470 362 427 369 365 c 1
 396 455 l 1xcc
264 415 m 0
 234 415 206 403 184 380 c 0
 131 326 92 222 92 134 c 0
 92 73 122 36 172 36 c 0
 222 36 258 64 289 126 c 0
 320 189 340 269 340 326 c 0
 340 381 311 415 264 415 c 0
477 650 m 1
 507 650 l 1
 500 592 458 545 414 545 c 0xec
 392 545 383 547 328 568 c 0
 284 584 268 589 254 589 c 0
 232 589 217 574 209 544 c 1
 179 544 l 1
 191 610 224 649 269 649 c 0xdc
 286 649 310 643 369 623 c 0
 405 610 414 608 428 608 c 0xec
 450 608 465 620 477 650 c 1
EndSplineSet
Ligature: 0 0 'liga' a tildecomb
EndChar
StartChar: aring
Encoding: 328 229 222
Width: 574
Flags: W
HStem: -15 51<149 172> 415 55<247 264> 513 36<320 340> 676 36<330 340>
VStem: 1 91<126 160> 230 36<613 615> 296 76<50 65> 393 36<613 615>
DStem: 396 455 483 455 369 365 383 119
Fore
396 455 m 1
 483 455 l 1
 383 119 l 1
 376 94 372 75 372 65 c 0
 372 51 382 40 393 40 c 0
 419 40 454 82 492 158 c 1
 523 141 l 1
 511 114 494 86 474 58 c 0
 439 9 401 -15 357 -15 c 0
 321 -15 296 11 296 50 c 0
 296 60 297 67 301 82 c 1
 251 10 211 -15 149 -15 c 0
 60 -15 1 50 1 148 c 0
 1 228 31 312 82 378 c 0
 129 438 186 470 247 470 c 0
 312 470 362 427 369 365 c 1
 396 455 l 1
264 415 m 0
 234 415 206 403 184 380 c 0
 131 326 92 222 92 134 c 0
 92 73 122 36 172 36 c 0
 222 36 258 64 289 126 c 0
 320 189 340 269 340 326 c 0
 340 381 311 415 264 415 c 0
330 712 m 0
 384 712 429 667 429 613 c 0
 429 557 384 513 328 513 c 0
 275 513 230 559 230 613 c 0
 230 667 275 712 330 712 c 0
330 676 m 0
 295 676 266 647 266 613 c 0
 266 578 295 549 329 549 c 0
 365 549 393 577 393 613 c 0
 393 647 364 676 330 676 c 0
EndSplineSet
KernsSLIF: 121 -37 0 0 119 -18 0 0 118 -21 0 0
Ligature: 0 0 'liga' a uni030A
EndChar
StartChar: aogonek
Encoding: 329 261 223
Width: 574
Flags: W
HStem: -155 41<415 436> -15 51<149 172> 415 55<247 264>
VStem: 1 91<126 160> 296 76<50 65> 346 49<-88 -74>
DStem: 396 455 483 455 369 365 383 119
Fore
492 158 m 1xf8
 523 141 l 1
 503 97 483 67 427 -2 c 0
 408 -27 395 -56 395 -76 c 0
 395 -95 415 -114 436 -114 c 0
 457 -114 479 -103 507 -77 c 1
 523 -99 l 1
 483 -139 452 -155 415 -155 c 0
 375 -155 346 -127 346 -88 c 0xf4
 346 -59 356 -39 383 -12 c 1
 371 -14 366 -15 358 -15 c 0
 321 -15 296 11 296 50 c 0
 296 60 297 67 301 82 c 1
 251 10 211 -15 149 -15 c 0
 60 -15 1 50 1 148 c 0
 1 228 31 312 82 378 c 0
 129 438 186 470 247 470 c 0
 312 470 362 427 369 365 c 1
 396 455 l 1
 483 455 l 1
 383 119 l 1
 376 94 372 75 372 65 c 0
 372 51 382 40 393 40 c 0
 419 40 454 82 492 158 c 1xf8
264 415 m 0
 234 415 206 403 184 380 c 0
 131 326 92 222 92 134 c 0
 92 73 122 36 172 36 c 0
 222 36 258 64 289 126 c 0
 320 189 340 269 340 326 c 0
 340 381 311 415 264 415 c 0
EndSplineSet
Ligature: 0 0 'liga' a uni0328
EndChar
StartChar: cacute
Encoding: 330 263 224
Width: 444
Flags: W
HStem: -15 48<175 192> 287 183<271 338> 432 38<258 287> 669 20G<401.5 418.5>
VStem: 5 92<144 178> 285 116<336 362>
Fore
341 132 m 1xbc
 370 110 l 1
 317 27 252 -15 177 -15 c 0
 73 -15 5 56 5 166 c 0
 5 326 131 470 271 470 c 0
 343 470 401 422 401 362 c 0
 401 319 374 287 338 287 c 0xdc
 307 287 285 307 285 336 c 0
 285 360 295 372 322 384 c 0
 333 388 338 393 338 399 c 0
 338 416 306 432 274 432 c 0
 230 432 194 408 159 358 c 0
 120 302 97 223 97 152 c 0
 97 77 131 33 190 33 c 0
 238 33 291 67 341 132 c 1xbc
221 519 m 1
 359 659 l 1
 383 682 394 689 409 689 c 0
 428 689 444 673 444 654 c 0
 444 640 434 625 419 615 c 2
 260 519 l 1
 221 519 l 1
EndSplineSet
Ligature: 0 0 'liga' c acutecomb
EndChar
StartChar: ccaron
Encoding: 331 269 225
Width: 444
Flags: W
HStem: -15 48<175 192> 287 183<271 338> 432 38<260 287>
VStem: 5 92<144 178> 285 116<336 362>
Fore
341 132 m 1xb8
 370 110 l 1
 317 27 252 -15 177 -15 c 0
 73 -15 5 56 5 166 c 0
 5 326 131 470 271 470 c 0
 343 470 401 422 401 362 c 0
 401 319 374 287 338 287 c 0xd8
 307 287 285 307 285 336 c 0
 285 360 295 372 322 384 c 0
 333 388 338 393 338 399 c 0
 338 416 306 432 274 432 c 0
 230 432 194 408 159 358 c 0
 120 302 97 223 97 152 c 0
 97 77 131 33 190 33 c 0
 238 33 291 67 341 132 c 1xb8
264 520 m 1
 169 683 l 1
 206 683 l 1
 295 585 l 1
 437 683 l 1
 474 683 l 1
 315 520 l 1
 264 520 l 1
EndSplineSet
Ligature: 0 0 'liga' c uni030C
EndChar
StartChar: ccedilla
Encoding: 332 231 226
Width: 444
Flags: W
HStem: -216 38<132 152> -99 38<145 188> 287 183<271 338> 432 38<260 287>
VStem: 5 92<143 169> 193 76<-140 -129> 285 116<336 362>
DStem: 150 -14 185 -14 103 -99 158 -64
Fore
185 -14 m 1xde
 158 -64 l 1
 172 -62 179 -61 188 -61 c 0
 236 -61 269 -89 269 -129 c 0
 269 -181 220 -216 145 -216 c 0
 113 -216 85 -211 57 -199 c 1
 75 -166 l 1
 98 -174 118 -178 138 -178 c 0
 171 -178 193 -162 193 -138 c 0
 193 -115 174 -99 145 -99 c 0
 136 -99 125 -101 112 -105 c 1
 103 -99 l 1
 150 -14 l 1
 57 1 5 65 5 165 c 0
 5 326 131 470 271 470 c 0
 343 470 401 422 401 362 c 0
 401 319 374 287 338 287 c 0xee
 307 287 285 307 285 336 c 0
 285 360 295 372 322 384 c 0
 333 388 338 393 338 399 c 0
 338 416 306 432 274 432 c 0
 229 432 190 407 158 358 c 0
 124 306 97 213 97 145 c 0
 97 77 135 33 193 33 c 0
 242 33 287 63 341 132 c 1
 370 110 l 1
 323 34 256 -11 185 -14 c 1xde
EndSplineSet
Ligature: 0 0 'liga' c uni0327
EndChar
StartChar: dcaron
Encoding: 333 271 227
Width: 651
Flags: W
HStem: -15 47<160 189> 425 45<274 292> 605 104<636 648>
VStem: 3 97<129 162> 321 72<55 78> 588 123<637 653>
DStem: 462 611 586 737 396 388 408 137
Fore
534 158 m 1
 564 140 l 1
 508 34 452 -15 389 -15 c 0
 345 -15 321 10 321 56 c 0
 321 60 321 70 322 78 c 1
 278 14 228 -15 160 -15 c 0
 67 -15 3 52 3 150 c 0
 3 316 137 470 281 470 c 0
 316 470 350 456 371 434 c 0
 382 422 388 412 396 388 c 1
 462 611 l 2
 468 631 471 645 471 655 c 0
 471 677 455 686 414 686 c 2
 383 686 l 1
 387 722 l 1
 586 737 l 1
 408 137 l 1
 398 102 393 79 393 65 c 0
 393 48 402 38 418 38 c 0
 451 38 476 64 534 158 c 1
284 425 m 0
 235 425 191 392 153 326 c 0
 121 270 100 197 100 140 c 0
 100 75 136 32 189 32 c 0
 237 32 279 65 312 129 c 0
 344 190 369 281 369 334 c 0
 369 387 333 425 284 425 c 0
551 461 m 1
 539 489 l 1
 606 519 646 561 653 606 c 1
 638 605 l 2
 608 605 588 624 588 653 c 0
 588 684 614 709 648 709 c 0
 684 709 711 679 711 637 c 0
 711 568 648 498 551 461 c 1
EndSplineSet
Ligature: 0 0 'liga' d uni030C
EndChar
StartChar: edieresis
Encoding: 334 235 228
Width: 444
Flags: W
HStem: -15 47<167 186> 430 40<251 272> 546 98<144.089 157 346.089 365>
VStem: -6 93<135 158> 105 98<595 597> 307 84<365 375> 307 98<595 597>
Fore
339 116 m 1xfc
 363 89 l 1
 309 19 244 -15 167 -15 c 0
 59 -15 -6 50 -6 158 c 0
 -6 321 126 470 272 470 c 0
 342 470 391 428 391 367 c 0
 391 309 348 258 271 224 c 0
 226 204 206 198 89 170 c 1
 88 157 87 143 87 136 c 0
 87 72 124 32 184 32 c 0
 236 32 280 55 339 116 c 1xfc
94 209 m 1
 150 221 167 226 196 239 c 0
 268 271 307 318 307 373 c 0
 307 407 285 430 252 430 c 0
 178 430 117 344 94 209 c 1
154 644 m 0
 181 644 203 622 203 595 c 0
 203 568 181 546 154 546 c 0
 127 546 105 568 105 595 c 0
 105 622 127 644 154 644 c 0
356 644 m 0
 383 644 405 622 405 595 c 0
 405 568 383 546 356 546 c 0
 329 546 307 568 307 595 c 0xfa
 307 622 329 644 356 644 c 0
EndSplineSet
Ligature: 0 0 'liga' e uni0308
EndChar
StartChar: eacute
Encoding: 335 233 229
Width: 444
Flags: W
HStem: -15 47<167 190> 430 40<251 272> 669 20G<368.5 385.5>
VStem: -6 93<135 158> 307 84<365 375>
Fore
339 116 m 1
 363 89 l 1
 309 19 244 -15 167 -15 c 0
 59 -15 -6 50 -6 158 c 0
 -6 321 126 470 272 470 c 0
 342 470 391 428 391 367 c 0
 391 309 348 258 271 224 c 0
 226 204 206 198 89 170 c 1
 88 157 87 143 87 136 c 0
 87 72 124 32 184 32 c 0
 236 32 280 55 339 116 c 1
94 209 m 1
 150 221 167 226 196 239 c 0
 268 271 307 318 307 373 c 0
 307 407 285 430 252 430 c 0
 178 430 117 344 94 209 c 1
188 519 m 1
 326 659 l 1
 350 682 361 689 376 689 c 0
 395 689 411 673 411 654 c 0
 411 640 401 625 386 615 c 2
 227 519 l 1
 188 519 l 1
EndSplineSet
KernsSLIF: 121 -4 0 0 119 -23 0 0 118 -22 0 0
Ligature: 0 0 'liga' e acutecomb
EndChar
StartChar: egrave
Encoding: 336 232 230
Width: 444
Flags: W
HStem: -15 47<167 186> 430 40<251 272> 671 20G<158 175>
VStem: -6 93<135 158> 307 84<365 375>
Fore
339 116 m 1
 363 89 l 1
 309 19 244 -15 167 -15 c 0
 59 -15 -6 50 -6 158 c 0
 -6 321 126 470 272 470 c 0
 342 470 391 428 391 367 c 0
 391 309 348 258 271 224 c 0
 226 204 206 198 89 170 c 1
 88 157 87 143 87 136 c 0
 87 72 124 32 184 32 c 0
 236 32 280 55 339 116 c 1
94 209 m 1
 150 221 167 226 196 239 c 0
 268 271 307 318 307 373 c 0
 307 407 285 430 252 430 c 0
 178 430 117 344 94 209 c 1
319 519 m 1
 278 519 l 1
 144 626 l 2
 135 633 129 643 129 652 c 0
 129 672 148 691 168 691 c 0
 182 691 188 687 206 663 c 2
 319 519 l 1
EndSplineSet
Ligature: 0 0 'liga' e gravecomb
EndChar
StartChar: ecircumflex
Encoding: 337 234 231
Width: 444
Flags: W
HStem: -15 47<167 186> 430 40<251 272> 668 20G<250 300>
VStem: -6 93<135 158> 307 84<365 375>
Fore
339 116 m 1
 363 89 l 1
 309 19 244 -15 167 -15 c 0
 59 -15 -6 50 -6 158 c 0
 -6 321 126 470 272 470 c 0
 342 470 391 428 391 367 c 0
 391 309 348 258 271 224 c 0
 226 204 206 198 89 170 c 1
 88 157 87 143 87 136 c 0
 87 72 124 32 184 32 c 0
 236 32 280 55 339 116 c 1
94 209 m 1
 150 221 167 226 196 239 c 0
 268 271 307 318 307 373 c 0
 307 407 285 430 252 430 c 0
 178 430 117 344 94 209 c 1
300 688 m 1
 391 519 l 1
 355 519 l 1
 269 623 l 1
 133 519 l 1
 97 519 l 1
 250 688 l 1
 300 688 l 1
EndSplineSet
KernsSLIF: 121 -4 0 0 119 -22 0 0 118 -22 0 0
Ligature: 0 0 'liga' e uni0302
EndChar
StartChar: ecaron
Encoding: 338 283 232
Width: 444
Flags: W
HStem: -15 47<167 186> 430 40<251 272>
VStem: -6 93<135 158> 307 84<365 375>
Fore
339 116 m 1
 363 89 l 1
 309 19 244 -15 167 -15 c 0
 59 -15 -6 50 -6 158 c 0
 -6 321 126 470 272 470 c 0
 342 470 391 428 391 367 c 0
 391 309 348 258 271 224 c 0
 226 204 206 198 89 170 c 1
 88 157 87 143 87 136 c 0
 87 72 124 32 184 32 c 0
 236 32 280 55 339 116 c 1
94 209 m 1
 150 221 167 226 196 239 c 0
 268 271 307 318 307 373 c 0
 307 407 285 430 252 430 c 0
 178 430 117 344 94 209 c 1
224 520 m 1
 129 683 l 1
 166 683 l 1
 255 585 l 1
 397 683 l 1
 434 683 l 1
 275 520 l 1
 224 520 l 1
EndSplineSet
Ligature: 0 0 'liga' e uni030C
EndChar
StartChar: edotaccent
Encoding: 339 279 233
Width: 444
Flags: W
HStem: -15 47<167 186> 430 40<251 272> 546 98<262 271>
VStem: -6 93<135 158> 213 98<595 597> 307 84<365 375>
Fore
339 116 m 1xf4
 363 89 l 1
 309 19 244 -15 167 -15 c 0
 59 -15 -6 50 -6 158 c 0
 -6 321 126 470 272 470 c 0
 342 470 391 428 391 367 c 0
 391 309 348 258 271 224 c 0
 226 204 206 198 89 170 c 1
 88 157 87 143 87 136 c 0
 87 72 124 32 184 32 c 0
 236 32 280 55 339 116 c 1xf4
94 209 m 1
 150 221 167 226 196 239 c 0
 268 271 307 318 307 373 c 0
 307 407 285 430 252 430 c 0
 178 430 117 344 94 209 c 1
262 644 m 0
 289 644 311 622 311 595 c 0
 311 568 289 546 262 546 c 0
 235 546 213 568 213 595 c 0xf8
 213 622 235 644 262 644 c 0
EndSplineSet
Ligature: 0 0 'liga' e uni0307
EndChar
StartChar: eogonek
Encoding: 340 281 234
Width: 444
Flags: W
HStem: -155 41<253 274> -15 47<167 186> 430 40<251 272>
VStem: -6 93<135 158> 184 49<-88 -73> 307 84<365 375>
Fore
339 116 m 1
 363 89 l 1
 350 71 339 60 307 33 c 0
 254 -12 233 -43 233 -75 c 0
 233 -95 253 -114 274 -114 c 0
 295 -114 317 -103 345 -77 c 1
 361 -99 l 1
 321 -139 290 -155 253 -155 c 0
 213 -155 184 -127 184 -88 c 0
 184 -58 196 -34 226 -8 c 1
 202 -13 188 -15 167 -15 c 0
 59 -15 -6 50 -6 158 c 0
 -6 321 126 470 272 470 c 0
 342 470 391 428 391 367 c 0
 391 309 348 258 271 224 c 0
 226 204 206 198 89 170 c 1
 88 157 87 143 87 136 c 0
 87 72 124 32 184 32 c 0
 236 32 280 55 339 116 c 1
94 209 m 1
 150 221 167 226 196 239 c 0
 268 271 307 318 307 373 c 0
 307 407 285 430 252 430 c 0
 178 430 117 344 94 209 c 1
EndSplineSet
Ligature: 0 0 'liga' e uni0328
EndChar
StartChar: gbreve
Encoding: 341 287 235
Width: 537
Flags: W
HStem: -202 42<112 171> 152 37<224 243> 409 96<460 483> 432 38<256 274> 518 63<303 324>
VStem: -79 81<-92 -81> -6 74<95 122> 55 91<279 301> 322 77<-69 -40> 352 89<321 352>
Fore
382 432 m 1xd9
 421 404 441 367 441 321 c 0
 441 276 415 225 376 194 c 0
 341 166 297 152 241 152 c 0
 216 152 210 153 169 159 c 0
 155 161 141 162 128 162 c 0
 93 162 68 145 68 122 c 0xda40
 68 105 81 93 105 87 c 0
 119 84 127 83 215 78 c 0
 283 74 315 67 347 50 c 0
 380 32 399 -1 399 -40 c 0
 399 -87 374 -130 331 -158 c 0
 282 -190 225 -202 126 -202 c 0
 43 -202 -3 -191 -43 -163 c 1
 -65 -146 -79 -118 -79 -90 c 0xdc80
 -79 -57 -60 -25 -30 -7 c 0
 -9 6 7 12 49 21 c 1
 10 40 -6 61 -6 95 c 0xda
 -6 119 7 146 27 162 c 0
 50 182 71 189 117 195 c 1
 74 218 55 251 55 299 c 0
 55 391 150 470 260 470 c 0xd9
 292 470 314 465 346 451 c 1
 398 492 425 505 460 505 c 0
 495 505 523 481 523 453 c 0
 523 428 505 409 483 409 c 0xe9
 467 409 461 413 445 435 c 0
 437 446 429 451 419 451 c 0
 407 451 398 446 382 432 c 1xd9
267 432 m 0
 195 432 146 369 146 279 c 0xd940
 146 223 180 189 234 189 c 0
 265 189 293 202 311 223 c 0
 336 254 352 305 352 352 c 0
 352 401 319 432 267 432 c 0
145 3 m 0
 55 3 2 -29 2 -83 c 0
 2 -135 48 -160 144 -160 c 0
 258 -160 322 -128 322 -69 c 0xcc80
 322 -44 310 -27 285 -17 c 0
 262 -7 190 3 145 3 c 0
172 677 m 1
 202 677 l 1
 205 617 246 581 309 581 c 0
 369 581 416 615 441 677 c 1xc840
 472 677 l 1
 454 580 389 518 305 518 c 0
 226 518 171 574 171 653 c 0
 171 658 171 667 172 677 c 1
EndSplineSet
Ligature: 0 0 'liga' g uni0306
EndChar
StartChar: idieresis
Encoding: 342 239 236
Width: 333
Flags: W
HStem: -14 50<95 130> 546 98<98 107 290.089 303>
VStem: 27 86<48 59> 49 98<585.089 598> 251 98<585.089 598>
DStem: 107 344 231 470 49 149 125 113
Fore
231 470 m 1xd8
 125 113 l 2
 117 85 113 67 113 57 c 0
 113 45 120 36 130 36 c 0
 157 36 201 80 251 157 c 1
 282 140 l 1
 222 39 158 -14 95 -14 c 0
 57 -14 27 13 27 48 c 0xe8
 27 70 31 86 49 149 c 1
 107 344 l 1
 113 366 116 379 116 388 c 0
 116 410 100 419 59 419 c 2
 35 419 l 1
 39 455 l 1
 231 470 l 1xd8
98 644 m 0
 125 644 147 622 147 595 c 0
 147 568 125 546 98 546 c 0
 71 546 49 568 49 595 c 0xd8
 49 622 71 644 98 644 c 0
300 644 m 0
 327 644 349 622 349 595 c 0
 349 568 327 546 300 546 c 0
 273 546 251 568 251 595 c 0
 251 622 273 644 300 644 c 0
EndSplineSet
Ligature: 0 0 'liga' i uni0308
EndChar
StartChar: iacute
Encoding: 343 237 237
Width: 333
Flags: W
HStem: -14 50<96 130> 669 20G<312.5 329.5>
VStem: 27 86<48 59>
DStem: 107 344 231 470 49 149 125 113
Fore
231 470 m 1
 125 113 l 2
 117 85 113 67 113 57 c 0
 113 45 120 36 130 36 c 0
 157 36 201 80 251 157 c 1
 282 140 l 1
 254 97 238 75 220 55 c 0
 180 9 139 -14 96 -14 c 0
 57 -14 27 13 27 48 c 0
 27 70 31 86 49 149 c 1
 107 344 l 1
 113 366 116 379 116 388 c 0
 116 410 100 419 59 419 c 2
 35 419 l 1
 39 455 l 1
 231 470 l 1
132 519 m 1
 270 659 l 1
 294 682 305 689 320 689 c 0
 339 689 355 673 355 654 c 0
 355 640 345 625 330 615 c 2
 171 519 l 1
 132 519 l 1
EndSplineSet
Ligature: 0 0 'liga' i acutecomb
EndChar
StartChar: igrave
Encoding: 344 236 238
Width: 333
Flags: W
HStem: -14 50<96 130> 671 20G<56 73>
VStem: 27 86<48 59>
DStem: 107 344 231 470 49 149 125 113
Fore
231 470 m 1
 125 113 l 2
 117 85 113 67 113 57 c 0
 113 45 120 36 130 36 c 0
 157 36 201 80 251 157 c 1
 282 140 l 1
 254 97 238 75 220 55 c 0
 180 9 139 -14 96 -14 c 0
 57 -14 27 13 27 48 c 0
 27 70 31 86 49 149 c 1
 107 344 l 1
 113 366 116 379 116 388 c 0
 116 410 100 419 59 419 c 2
 35 419 l 1
 39 455 l 1
 231 470 l 1
217 519 m 1
 176 519 l 1
 42 626 l 2
 33 633 27 643 27 652 c 0
 27 672 46 691 66 691 c 0
 80 691 86 687 104 663 c 2
 217 519 l 1
EndSplineSet
Ligature: 0 0 'liga' i gravecomb
EndChar
StartChar: icircumflex
Encoding: 345 238 239
Width: 333
Flags: W
HStem: -14 50<96 130> 668 20G<150 200>
VStem: 27 86<48 59>
DStem: 107 344 231 470 49 149 125 113
Fore
200 688 m 1
 291 519 l 1
 255 519 l 1
 169 623 l 1
 33 519 l 1
 -3 519 l 1
 150 688 l 1
 200 688 l 1
231 470 m 1
 125 113 l 2
 117 85 113 67 113 57 c 0
 113 45 120 36 130 36 c 0
 157 36 201 80 251 157 c 1
 282 140 l 1
 254 97 238 75 220 55 c 0
 180 9 139 -14 96 -14 c 0
 57 -14 27 13 27 48 c 0
 27 70 31 86 49 149 c 1
 107 344 l 1
 113 366 116 379 116 388 c 0
 116 410 100 419 59 419 c 2
 35 419 l 1
 39 455 l 1
 231 470 l 1
EndSplineSet
Ligature: 0 0 'liga' i uni0302
EndChar
StartChar: lacute
Encoding: 346 314 240
Width: 333
Flags: W
HStem: -15 51<81 114>
VStem: 16 80<53 66>
DStem: 170 611 294 737 43 182 109 112
Fore
294 737 m 1
 109 112 l 2
 96 69 96 68 96 57 c 0
 96 45 103 36 114 36 c 0
 142 36 187 80 237 157 c 1
 268 140 l 1
 208 38 144 -15 81 -15 c 0
 41 -15 16 12 16 55 c 0
 16 86 19 102 43 182 c 2
 170 611 l 2
 176 631 179 645 179 655 c 0
 179 677 163 686 122 686 c 2
 91 686 l 1
 95 722 l 1
 294 737 l 1
148 774 m 1
 286 914 l 1
 310 937 321 944 336 944 c 0
 355 944 371 928 371 909 c 0
 371 895 361 880 346 870 c 2
 187 774 l 1
 148 774 l 1
EndSplineSet
Ligature: 0 0 'liga' l acutecomb
EndChar
StartChar: lcaron
Encoding: 347 318 241
Width: 359
Flags: W
HStem: -15 51<81 114> 605 104<344 356>
VStem: 16 80<53 66> 296 123<637 653>
DStem: 170 611 294 737 43 182 109 112
Fore
294 737 m 1
 109 112 l 2
 96 69 96 68 96 57 c 0
 96 45 103 36 114 36 c 0
 142 36 187 80 237 157 c 1
 268 140 l 1
 208 38 144 -15 81 -15 c 0
 41 -15 16 12 16 55 c 0
 16 86 19 102 43 182 c 2
 170 611 l 2
 176 631 179 645 179 655 c 0
 179 677 163 686 122 686 c 2
 91 686 l 1
 95 722 l 1
 294 737 l 1
259 461 m 1
 247 489 l 1
 314 519 354 561 361 606 c 1
 346 605 l 2
 316 605 296 624 296 653 c 0
 296 684 322 709 356 709 c 0
 392 709 419 679 419 637 c 0
 419 568 356 498 259 461 c 1
EndSplineSet
Ligature: 0 0 'liga' l uni030C
EndChar
StartChar: nacute
Encoding: 348 324 242
Width: 611
Flags: W
HStem: -15 51<379 409> 410 60<355 385> 669 20G<451.5 468.5>
VStem: 309 82<48 66> 395 86<367 375>
DStem: 116 344 142 139 14 0 101 0 380 299 457 260 327 143 410 122
Fore
229 470 m 1
 200 335 l 1
 267 427 326 470 385 470 c 0
 438 470 481 426 481 373 c 0
 481 344 473 305 457 260 c 1
 410 122 l 1
 394 78 391 66 391 55 c 0
 391 44 399 36 409 36 c 0
 440 36 483 77 533 156 c 1
 562 135 l 1
 506 38 442 -15 379 -15 c 0
 339 -15 309 17 309 59 c 0
 309 81 314 104 327 143 c 2
 380 299 l 1
 390 330 395 352 395 369 c 0
 395 392 378 410 355 410 c 0
 312 410 259 371 216 307 c 0
 180 254 168 226 142 139 c 2
 101 0 l 1
 14 0 l 1
 116 344 l 1
 122 366 125 379 125 388 c 0
 125 410 109 419 68 419 c 2
 44 419 l 1
 48 455 l 1
 229 470 l 1
271 519 m 1
 409 659 l 1
 433 682 444 689 459 689 c 0
 478 689 494 673 494 654 c 0
 494 640 484 625 469 615 c 2
 310 519 l 1
 271 519 l 1
EndSplineSet
Ligature: 0 0 'liga' n acutecomb
EndChar
StartChar: ncaron
Encoding: 349 328 243
Width: 611
Flags: W
HStem: -15 51<379 409> 410 60<355 385>
VStem: 309 82<48 66> 395 86<367 375>
DStem: 116 344 142 139 14 0 101 0 380 299 457 260 327 143 410 122
Fore
229 470 m 1
 200 335 l 1
 267 427 326 470 385 470 c 0
 438 470 481 426 481 373 c 0
 481 344 473 305 457 260 c 1
 410 122 l 1
 394 78 391 66 391 55 c 0
 391 44 399 36 409 36 c 0
 440 36 483 77 533 156 c 1
 562 135 l 1
 506 38 442 -15 379 -15 c 0
 339 -15 309 17 309 59 c 0
 309 81 314 104 327 143 c 2
 380 299 l 1
 390 330 395 352 395 369 c 0
 395 392 378 410 355 410 c 0
 312 410 259 371 216 307 c 0
 180 254 168 226 142 139 c 2
 101 0 l 1
 14 0 l 1
 116 344 l 1
 122 366 125 379 125 388 c 0
 125 410 109 419 68 419 c 2
 44 419 l 1
 48 455 l 1
 229 470 l 1
307 520 m 1
 212 683 l 1
 249 683 l 1
 338 585 l 1
 480 683 l 1
 517 683 l 1
 358 520 l 1
 307 520 l 1
EndSplineSet
Ligature: 0 0 'liga' n uni030C
EndChar
